<?xml version="1.0" encoding="UTF-8"?>
<svg version="1.1" xmlns="http://www.w3.org/2000/svg" width="512" height="512">
<path d="M0 0 C1.01225647 0.00049347 2.02451294 0.00098694 3.06744385 0.00149536 C17.74839319 0.02342196 31.90388837 0.69841915 46.375 3.3125 C51.25312733 4.19195415 54.80142731 4.60913008 59.375 2.375 C76.16938703 -3.98823189 90.64500032 3.13235419 106.33837891 9.33496094 C112.04502227 11.58525476 117.77772388 13.76584906 123.51171875 15.9453125 C132.82598249 19.4873765 142.13556537 23.04133466 151.44140625 26.60546875 C161.56696549 30.48152947 171.69999234 34.33728251 181.83984375 38.17578125 C183.13052421 38.66451378 184.42120414 39.1532477 185.71188354 39.64198303 C190.67962812 41.5228056 195.64757193 43.40309337 200.61682129 45.27993774 C207.37633032 47.83299443 214.1315086 50.39691199 220.88031006 52.97814941 C223.32475841 53.91149433 225.77023264 54.84165329 228.21734619 55.76794434 C231.46740814 56.99892593 234.71294552 58.24124013 237.9558506 59.49094772 C239.7871489 60.19371377 241.62250044 60.88588879 243.45793152 61.57778931 C244.56727554 62.0076413 245.67661957 62.43749329 246.81958008 62.88037109 C247.79784256 63.25422943 248.77610504 63.62808777 249.78401184 64.01327515 C252.60075456 65.42570234 254.33501058 66.92524731 256.375 69.3125 C256.90625 71.3125 256.90625 71.3125 256.875 73.3125 C256.8853125 73.9725 256.895625 74.6325 256.90625 75.3125 C256.14393816 78.18237988 254.57969863 79.35912525 252.375 81.3125 C250.10968018 82.47686768 250.10968018 82.47686768 247.60644531 83.41894531 C246.66577209 83.77901672 245.72509888 84.13908813 244.75592041 84.5100708 C243.74849792 84.88315369 242.74107544 85.25623657 241.703125 85.640625 C240.66557068 86.03449402 239.62801636 86.42836304 238.559021 86.83416748 C235.25141919 88.0871177 231.93839482 89.32496121 228.625 90.5625 C226.37853217 91.41046797 224.13243363 92.25941497 221.88671875 93.109375 C216.38704363 95.18845348 210.88284317 97.25516477 205.375 99.3125 C205.375 102.63550268 207.88941309 104.91941153 209.8125 107.5 C215.15800425 114.84186899 219.88709476 122.42196104 224.375 130.3125 C224.73948242 130.94430176 225.10396484 131.57610352 225.47949219 132.22705078 C247.08534998 169.97532572 256.85198095 212.74189997 256.6875 255.9375 C256.68534485 256.95540619 256.6831897 257.97331238 256.68096924 259.02206421 C256.63129854 273.63113523 256.38040191 287.96325853 253.375 302.3125 C253.07698486 303.77478027 253.07698486 303.77478027 252.77294922 305.26660156 C240.31286762 364.83232498 208.4226363 421.18616419 159.375 458.3125 C158.83617187 458.72773926 158.29734375 459.14297852 157.7421875 459.57080078 C125.87232453 484.07165115 89.31918759 500.56392134 49.9375 508.625 C49.21860596 508.77235596 48.49971191 508.91971191 47.7590332 509.0715332 C32.21101358 512.02671297 16.7909346 512.71811671 1 512.6875 C-0.01013153 512.68728851 -1.02026306 512.68707703 -2.06100464 512.68685913 C-18.25144501 512.65311072 -33.74385494 511.68551109 -49.625 508.3125 C-50.53282227 508.13058105 -51.44064453 507.94866211 -52.37597656 507.76123047 C-99.22001977 498.26168637 -142.249301 475.42120895 -176.625 442.3125 C-177.28435547 441.68037598 -177.94371094 441.04825195 -178.62304688 440.39697266 C-188.11130305 431.25252521 -196.8512044 421.95515991 -204.625 411.3125 C-205.48306152 410.16144983 -206.34113451 409.01040823 -207.19921875 407.859375 C-213.23677396 399.66974019 -218.61957302 391.16711724 -223.625 382.3125 C-224.0271875 381.60528809 -224.429375 380.89807617 -224.84375 380.16943359 C-239.59720851 353.96475553 -249.12670334 325.02703614 -253.625 295.3125 C-253.80232666 294.19367432 -253.97965332 293.07484863 -254.16235352 291.92211914 C-255.84376341 280.20014053 -255.98234341 268.57751024 -255.9375 256.75 C-255.93426727 255.21939438 -255.93426727 255.21939438 -255.93096924 253.65786743 C-255.88133352 239.03039476 -255.63419712 224.67986162 -252.625 210.3125 C-252.42632324 209.33764648 -252.22764648 208.36279297 -252.02294922 207.35839844 C-241.90232806 158.9765226 -219.9858123 114.98821731 -185.625 79.3125 C-184.99287598 78.65314453 -184.36075195 77.99378906 -183.70947266 77.31445312 C-174.56502521 67.82619695 -165.26765991 59.0862956 -154.625 51.3125 C-153.47394983 50.45443848 -152.32290823 49.59636549 -151.171875 48.73828125 C-142.98224019 42.70072604 -134.47961724 37.31792698 -125.625 32.3125 C-124.91778809 31.9103125 -124.21057617 31.508125 -123.48193359 31.09375 C-100.34654164 18.0683259 -75.17537591 9.31948539 -49.1875 4 C-48.46860596 3.85264404 -47.74971191 3.70528809 -47.0090332 3.5534668 C-31.36081931 0.57924331 -15.89069674 -0.05331144 0 0 Z " fill="#FA5858" transform="translate(255.625,-0.3125)"/>
<path d="M0 0 C5.70664337 2.25029383 11.43934498 4.43088812 17.17333984 6.61035156 C26.48760359 10.15241556 35.79718647 13.70637372 45.10302734 17.27050781 C55.22858659 21.14656853 65.36161344 25.00232157 75.50146484 28.84082031 C76.7921453 29.32955284 78.08282524 29.81828677 79.37350464 30.30702209 C84.34124921 32.18784466 89.30919303 34.06813244 94.27844238 35.94497681 C101.03795141 38.49803349 107.79312969 41.06195105 114.54193115 43.64318848 C116.98637951 44.57653339 119.43185373 45.50669236 121.87896729 46.4329834 C125.12902924 47.66396499 128.37456661 48.9062792 131.61747169 50.15598679 C133.44877 50.85875283 135.28412153 51.55092785 137.11955261 52.24282837 C138.22889664 52.67268036 139.33824066 53.10253235 140.48120117 53.54541016 C141.45946365 53.91926849 142.43772614 54.29312683 143.44563293 54.67831421 C146.26237565 56.09074141 147.99663168 57.59028637 150.03662109 59.97753906 C150.56787109 61.97753906 150.56787109 61.97753906 150.53662109 63.97753906 C150.55208984 64.96753906 150.55208984 64.96753906 150.56787109 65.97753906 C149.76044049 69.0172778 148.50033367 69.95991092 146.03662109 71.97753906 C142.68177066 73.61083555 139.21078991 74.8981703 135.71630859 76.20019531 C134.70247101 76.58694931 133.68863342 76.97370331 132.64407349 77.37217712 C130.49916497 78.18813799 128.35228698 78.99893783 126.20361328 79.80493164 C122.94053675 81.02919033 119.68349311 82.26844746 116.42724609 83.51074219 C114.33643823 84.30395133 112.24530242 85.09629666 110.15380859 85.88769531 C109.18990204 86.25339127 108.22599548 86.61908722 107.23287964 86.99586487 C101.91911414 88.98563428 96.5950416 90.77961292 91.14227295 92.35101318 C88.49817635 93.13775053 85.95929119 94.10957574 83.41162109 95.16503906 C82.57373047 95.50921875 81.73583984 95.85339844 80.87255859 96.20800781 C80.26669922 96.46195312 79.66083984 96.71589844 79.03662109 96.97753906 C79.03662109 100.60307351 79.36465576 102.39184 80.54956055 105.69506836 C81.04556511 107.09253548 81.04556511 107.09253548 81.55158997 108.51823425 C82.09525459 110.01982841 82.09525459 110.01982841 82.64990234 111.55175781 C83.20522896 113.10936577 83.20522896 113.10936577 83.77177429 114.69844055 C84.95831799 118.02278649 86.15345707 121.34396382 87.34912109 124.66503906 C88.53222287 127.96889959 89.71356214 131.27338496 90.89433289 134.57807922 C91.62939703 136.63338773 92.36613244 138.68809954 93.10481262 140.74211121 C94.67821145 145.12473984 96.24169125 149.5109085 97.75610352 153.91430664 C97.99254074 154.59890457 98.22897797 155.2835025 98.47257996 155.98884583 C99.49372595 159.58919691 99.53562772 162.23498933 99.03662109 165.97753906 C95.47039884 170.26920957 91.32485728 172.70191194 86.41162109 175.16503906 C85.21061768 175.78245972 85.21061768 175.78245972 83.98535156 176.41235352 C82.10933097 177.37562778 80.2310467 178.33450044 78.35107422 179.29003906 C74.56835639 181.21594843 70.79417132 183.15802143 67.02099609 185.10253906 C61.0101297 188.19919413 54.99692364 191.29124566 48.98193359 194.37988281 C41.5873921 198.17778834 34.19883892 201.98710718 26.81582642 205.80737305 C25.04641371 206.72247454 23.27626048 207.6361437 21.50610352 208.54980469 C16.16140403 211.3111519 10.82336441 214.0834464 5.50765991 216.900177 C3.67433962 217.87107855 1.83916087 218.83837553 0.00341797 219.8046875 C-2.26357439 220.99965719 -4.52693575 222.20155515 -6.78564453 223.41210938 C-18.32647868 229.47881587 -29.64390595 234.58382003 -42.67822266 230.73535156 C-47.86821884 229.11922738 -52.58403829 226.91251353 -57.40087891 224.41503906 C-58.15046875 224.03541016 -58.90005859 223.65578125 -59.67236328 223.26464844 C-65.45786729 220.31802332 -71.19357277 217.27635707 -76.93603516 214.24707031 C-85.76570221 209.59033444 -94.6360595 205.01692606 -103.52481079 200.47418213 C-107.74947047 198.3144546 -111.97151071 196.14961559 -116.19384766 193.98535156 C-117.44611397 193.34356461 -117.44611397 193.34356461 -118.72367859 192.68881226 C-121.13700656 191.45190549 -123.55023006 190.21479526 -125.96337891 188.97753906 C-126.68221252 188.60898804 -127.40104614 188.24043701 -128.1416626 187.86071777 C-132.52268295 185.61367705 -136.90016318 183.35989213 -141.27587891 181.10253906 C-142.8546582 180.29284668 -142.8546582 180.29284668 -144.46533203 179.46679688 C-149.21448312 177.01146402 -153.92656672 174.49722155 -158.56884766 171.84472656 C-159.36830811 171.38952637 -160.16776855 170.93432617 -160.99145508 170.46533203 C-163.2505857 168.76084497 -163.91236447 167.58032229 -164.96337891 164.97753906 C-164.74491425 157.22252298 -162.32915649 150.46758181 -159.74462891 143.20800781 C-159.32669067 142.00944656 -158.90875244 140.81088531 -158.47814941 139.57600403 C-157.37391383 136.41382449 -156.26179299 133.25466599 -155.14532471 130.09680176 C-153.5701426 125.63474915 -152.0104909 121.16723654 -150.4486084 116.70051575 C-149.61793537 114.32782333 -148.7844536 111.95611198 -147.94787598 109.585495 C-147.57078491 108.51370499 -147.19369385 107.44191498 -146.80517578 106.33764648 C-146.47287964 105.39660568 -146.1405835 104.45556488 -145.79821777 103.48600769 C-145.07976927 101.32726113 -144.47547743 99.19283619 -143.96337891 96.97753906 C-144.78314209 96.68097412 -145.60290527 96.38440918 -146.44750977 96.07885742 C-149.58172826 94.94295878 -152.71468348 93.80369041 -155.84692383 92.66235352 C-157.18532298 92.17538813 -158.52416937 91.68964966 -159.86352539 91.20532227 C-170.35225434 87.4110216 -180.67736854 83.29051361 -190.96337891 78.97753906 C-190.92165591 86.25537841 -190.84927613 93.53245637 -190.75585938 100.80981445 C-190.72768258 103.28402834 -190.70645175 105.75833169 -190.69238281 108.23266602 C-190.67090868 111.79522393 -190.62423216 115.35670989 -190.57275391 118.91894531 C-190.57152527 120.02025284 -190.57029663 121.12156036 -190.56903076 122.25624084 C-190.44539032 128.78073661 -189.63101647 132.57706393 -185.96337891 137.97753906 C-184.64789184 145.56093509 -185.95360944 150.63951636 -189.96337891 156.97753906 C-189.60383986 161.34174628 -187.69216206 165.1302377 -185.86572266 169.05175781 C-185.55539093 169.72920547 -185.2450592 170.40665314 -184.92532349 171.10462952 C-184.26321832 172.54854451 -183.59876578 173.99138506 -182.93215942 175.43322754 C-181.8965807 177.67434087 -180.86826213 179.91865041 -179.84204102 182.1640625 C-177.39519212 187.51541753 -174.94046007 192.86308936 -172.47216797 198.20458984 C-171.31581035 200.70885708 -170.16950933 203.21744348 -169.02587891 205.72753906 C-168.70288818 206.41549561 -168.37989746 207.10345215 -168.04711914 207.81225586 C-166.45633061 211.32173291 -165.49757991 214.10782434 -165.96337891 217.97753906 C-166.96337891 218.97753906 -166.96337891 218.97753906 -169.28553772 219.09779358 C-170.31368088 219.09557297 -171.34182404 219.09335236 -172.40112305 219.09106445 C-174.14281517 219.09095116 -174.14281517 219.09095116 -175.91969299 219.09083557 C-177.81496986 219.08309364 -177.81496986 219.08309364 -179.74853516 219.07519531 C-181.03449081 219.07378036 -182.32044647 219.07236542 -183.64537048 219.07090759 C-187.06981333 219.06708324 -190.494214 219.05725368 -193.91864014 219.04620361 C-197.4107608 219.03598771 -200.90288825 219.03140959 -204.39501953 219.02636719 C-211.25115669 219.01563133 -218.10726577 218.9985559 -224.96337891 218.97753906 C-226.23635725 213.94190089 -225.04023993 211.0158622 -222.84228516 206.46582031 C-222.33918068 205.38292473 -222.33918068 205.38292473 -221.82591248 204.27815247 C-221.10845904 202.73822293 -220.38480317 201.2011705 -219.65551758 199.66680908 C-218.52376021 197.28558131 -217.40836639 194.89732146 -216.29736328 192.50634766 C-214.84720943 189.3888828 -213.39134557 186.27422658 -211.92871094 183.16259766 C-209.57604147 178.15647813 -207.24722893 173.14045973 -204.96337891 168.10253906 C-204.6444165 167.42231689 -204.3254541 166.74209473 -203.99682617 166.04125977 C-202.42237821 162.56384267 -201.43295942 159.80318959 -201.96337891 155.97753906 C-202.62337891 154.92566406 -203.28337891 153.87378906 -203.96337891 152.79003906 C-206.68655055 148.35156002 -206.68044594 144.04703626 -205.96337891 138.97753906 C-203.93396714 133.9481273 -203.93396714 133.9481273 -201.96337891 131.97753906 C-201.84015133 130.19850549 -201.78548872 128.41467704 -201.75805664 126.6315918 C-201.73811142 125.49048447 -201.7181662 124.34937714 -201.69761658 123.1736908 C-201.67254784 121.31122459 -201.67254784 121.31122459 -201.64697266 119.41113281 C-201.62619156 118.1473732 -201.60541046 116.88361359 -201.58399963 115.58155823 C-201.52954176 112.21635273 -201.47933611 108.85113734 -201.43115234 105.48583984 C-201.38098132 102.05398006 -201.32527236 98.62221075 -201.27001953 95.19042969 C-201.162677 88.45287145 -201.06093566 81.7152457 -200.96337891 74.97753906 C-201.57826172 74.78200439 -202.19314453 74.58646973 -202.82666016 74.38500977 C-203.63490234 74.12292725 -204.44314453 73.86084473 -205.27587891 73.59082031 C-206.07638672 73.33341064 -206.87689453 73.07600098 -207.70166016 72.81079102 C-210.76579323 71.68191729 -212.75786153 70.38982369 -214.96337891 67.97753906 C-215.9310422 64.88101651 -216.32878139 62.99245159 -215.22149658 59.91694641 C-213.67751253 57.53687174 -212.50974299 56.99435878 -209.89599609 55.94702148 C-209.08787476 55.61616547 -208.27975342 55.28530945 -207.44714355 54.94442749 C-206.62750122 54.62535431 -205.80785889 54.30628113 -204.96337891 53.97753906 C-204.23880493 53.68545563 -203.51423096 53.39337219 -202.7677002 53.09243774 C-200.53224905 52.19891063 -198.28855922 51.3297301 -196.04150391 50.46582031 C-195.19997269 50.14035721 -194.35844147 49.8148941 -193.4914093 49.47956848 C-190.73304221 48.41384181 -187.97329156 47.35175617 -185.21337891 46.29003906 C-183.26277478 45.53792814 -181.3121726 44.78581216 -179.36157227 44.03369141 C-157.53955799 35.6293682 -135.65543472 27.38925253 -113.7699585 19.15197754 C-96.91489601 12.80765907 -80.12029752 6.32648052 -63.37736511 -0.30737305 C-61.46423324 -1.064444 -59.54998188 -1.81862104 -57.63549805 -2.57226562 C-55.20397103 -3.53252561 -52.77598911 -4.50181549 -50.35180664 -5.48046875 C-31.48705533 -12.98708733 -18.00493398 -7.1160065 0 0 Z " fill="#4071CB" transform="translate(361.96337890625,9.0224609375)"/>
<path d="M0 0 C1.68215103 -0.0129007 1.68215103 -0.0129007 3.39828491 -0.02606201 C4.62433441 -0.03032196 5.85038391 -0.03458191 7.11358643 -0.03897095 C8.40829865 -0.04714844 9.70301086 -0.05532593 11.03695679 -0.06375122 C15.32712742 -0.08991159 19.61730752 -0.10527224 23.90753174 -0.11953735 C25.3870367 -0.12489938 26.8665416 -0.13027689 28.34604645 -0.13566971 C34.50201447 -0.15728909 40.65797994 -0.17602448 46.81397629 -0.1872921 C55.62316326 -0.20352477 64.43190878 -0.23669623 73.24092937 -0.29369295 C79.44235761 -0.33244418 85.64366802 -0.35193085 91.84521413 -0.35721266 C95.54561832 -0.3608589 99.24555102 -0.37280166 102.94582367 -0.4053154 C107.07753079 -0.44110126 111.20829338 -0.43701211 115.34014893 -0.42959595 C117.16707779 -0.45420395 117.16707779 -0.45420395 119.03091431 -0.47930908 C127.63382789 -0.41613054 132.45193722 1.45632392 138.73565674 7.21640015 C139.60190674 8.17546265 139.60190674 8.17546265 140.48565674 9.15390015 C141.20753174 9.85515015 141.92940674 10.55640015 142.67315674 11.27890015 C144.91786789 13.60101514 145.42260438 14.69151616 145.86065674 17.90390015 C145.10746291 24.43158003 139.21259479 28.46285076 134.54815674 32.63827515 C129.34519984 36.46166014 124.47518996 36.43893133 118.26080322 36.40927124 C117.33990906 36.41289169 116.41901489 36.41651215 115.47021484 36.42024231 C113.47537157 36.42712369 111.48050952 36.42964411 109.48565483 36.42829514 C106.3293624 36.42732927 103.1734099 36.44027816 100.01716614 36.45727539 C91.04518229 36.50353898 82.0732343 36.52816783 73.10113525 36.53475952 C67.6098522 36.53976659 62.11892605 36.56397153 56.62776375 36.60008621 C54.53498538 36.6098991 52.44215801 36.61220808 50.34936333 36.60691452 C47.42622406 36.59986517 44.50415388 36.6170809 41.58111572 36.63973999 C40.28198997 36.62748131 40.28198997 36.62748131 38.95661926 36.61497498 C34.09433348 36.67094037 34.09433348 36.67094037 29.93891907 39.06103516 C28.29694806 41.42566236 28.02179498 42.3388697 28.42315674 45.15390015 C28.49405518 45.81390015 28.56495361 46.47390015 28.63800049 47.15390015 C29.96008881 50.27329747 31.61631198 51.35391784 34.48565674 53.15390015 C37.58317245 53.69927002 40.62117057 53.61011666 43.75787354 53.53134155 C44.68260027 53.52476406 45.607327 53.51818657 46.56007576 53.51140976 C49.62299619 53.48604791 52.68481246 53.43310568 55.74737549 53.38046265 C59.02021757 53.34539167 62.29307408 53.31719538 65.56598568 53.28944588 C67.82690461 53.26990193 70.08780454 53.24803185 72.34867954 53.22393608 C79.80965838 53.15023231 87.26226003 53.18216592 94.72247314 53.30526733 C106.91529638 53.50504199 119.10369102 53.58922484 131.29815674 53.52890015 C132.36240875 53.52383076 133.42666077 53.51876137 134.52316284 53.51353836 C175.14100552 53.24322692 209.92331007 46.27770053 247.13397217 30.09590149 C256.52638536 26.33363424 267.20961467 27.52992672 276.48565674 31.15390015 C278.48565674 33.15390015 278.48565674 33.15390015 279.11456299 36.23983765 C278.16912755 42.12385196 274.66122408 44.81075107 270.42315674 48.77890015 C269.67098877 49.5162439 268.9188208 50.25358765 268.14385986 51.01327515 C264.77075107 54.27248676 261.42263261 57.30155935 257.54425049 59.9468689 C254.61610326 62.05977207 253.96843416 62.74208976 252.61065674 65.84140015 C246.76616806 78.96067432 232.24385324 89.41608691 219.48565674 95.15390015 C218.82565674 95.15390015 218.16565674 95.15390015 217.48565674 95.15390015 C217.40315674 96.14390015 217.32065674 97.13390015 217.23565674 98.15390015 C215.84564137 107.26215876 210.41218918 113.38870249 203.48565674 119.15390015 C195.70570811 124.67375197 187.67691399 127.79349945 178.48565674 130.15390015 C177.72897705 130.36788452 176.97229736 130.5818689 176.19268799 130.80233765 C162.97513863 134.2245174 148.41111919 133.29835573 134.87096214 133.32256508 C131.64507789 133.32984166 128.41933625 133.34558321 125.1934967 133.36390686 C116.03349607 133.41589456 106.87358541 133.46439214 97.71343994 133.47982788 C92.08090695 133.489934 86.44875291 133.51930354 80.81637001 133.56114769 C78.68390078 133.57340182 76.55137801 133.57858924 74.41887474 133.57634926 C71.4357607 133.57398377 68.45373098 133.5962502 65.47076416 133.62387085 C64.17145714 133.61396873 64.17145714 133.61396873 62.84590149 133.60386658 C46.25870527 133.85451592 35.33081921 144.92809928 24.45050049 156.08358765 C23.4611613 157.1060025 22.4724564 158.12903403 21.48565674 159.15390015 C22.70573618 161.84445295 22.70573618 161.84445295 24.48565674 164.15390015 C24.97418213 166.28182983 24.97418213 166.28182983 24.48565674 169.15390015 C22.49009528 171.75833732 20.0835695 173.89534639 17.66925049 176.10702515 C16.25125422 177.46178402 14.83395798 178.8172759 13.41729736 180.1734314 C11.17241806 182.29426387 8.9205099 184.40635184 6.65484619 186.50497437 C4.4707719 188.53772436 2.31913663 190.60073331 0.16925049 192.66952515 C-0.51399796 193.28547546 -1.1972464 193.90142578 -1.90119934 194.53604126 C-5.47575102 197.92036878 -5.47575102 197.92036878 -6.65284729 202.51802063 C-6.3893067 204.91710567 -6.3893067 204.91710567 -5.83340454 207.15797424 C-5.51434326 209.15390015 -5.51434326 209.15390015 -6.89324951 212.1265564 C-7.72957901 213.16685119 -8.61057735 214.17162347 -9.51434326 215.15390015 C-10.15484619 215.86787964 -10.79534912 216.58185913 -11.45526123 217.31747437 C-13.7402887 219.79220604 -16.08539819 222.19454293 -18.45184326 224.59140015 C-19.25041748 225.43122437 -20.0489917 226.27104858 -20.87176514 227.13632202 C-22.03868896 228.3187146 -22.03868896 228.3187146 -23.22918701 229.5249939 C-23.93164551 230.2461438 -24.634104 230.9672937 -25.35784912 231.71029663 C-27.51434326 233.15390015 -27.51434326 233.15390015 -30.02435303 232.97201538 C-30.8460498 232.70203735 -31.66774658 232.43205933 -32.51434326 232.15390015 C-33.53914795 231.82059692 -33.53914795 231.82059692 -34.58465576 231.4805603 C-66.77206745 219.14256243 -95.66681005 201.08562428 -120.51434326 177.15390015 C-121.17369873 176.52177612 -121.8330542 175.8896521 -122.51239014 175.2383728 C-131.998415 166.09607583 -140.75171912 156.80243623 -148.51434326 146.15390015 C-148.96954346 145.53821167 -149.42474365 144.92252319 -149.89373779 144.28817749 C-151.27596136 142.41624637 -152.6480093 140.53745516 -154.01434326 138.65390015 C-154.42418457 138.09033813 -154.83402588 137.52677612 -155.25628662 136.94613647 C-157.71807696 133.48703455 -159.65387368 129.96242205 -161.51434326 126.15390015 C-156.87308434 121.48730364 -152.22792311 116.82461833 -147.58001709 112.16464233 C-145.99903498 110.57862887 -144.41895122 108.99171939 -142.83978271 107.40390015 C-140.57089568 105.12289528 -138.29880657 102.84512317 -136.02606201 100.56796265 C-135.31971115 99.8564505 -134.61336029 99.14493835 -133.88560486 98.41186523 C-133.22514664 97.75133148 -132.56468842 97.09079773 -131.88421631 96.4102478 C-131.30463669 95.82844757 -130.72505707 95.24664734 -130.12791443 94.6472168 C-128.51434326 93.15390015 -128.51434326 93.15390015 -125.51434326 91.15390015 C-123.93427139 91.39532483 -122.35911325 91.66953107 -120.78778076 91.9624939 C-115.32281295 92.06236407 -112.79471556 90.16331523 -108.98852539 86.57714844 C-105.62949269 83.19125831 -102.36952173 79.72501512 -99.13934326 76.21640015 C-97.13389679 74.07788289 -95.12067719 71.94765656 -93.09573364 69.82759094 C-91.84190886 68.51085241 -90.60025139 67.18239165 -89.37265015 65.84117126 C-86.88274301 63.19339432 -85.19761207 61.40189651 -81.74237061 60.14779663 C-78.8074819 60.15583654 -77.62703819 61.19770114 -75.51434326 63.15390015 C-71.52221258 61.55235798 -68.86232634 58.75697893 -65.90716553 55.74203491 C-65.35865936 55.19060822 -64.8101532 54.63918152 -64.24502563 54.07104492 C-63.05714553 52.8755665 -61.87158126 51.67778349 -60.68808174 50.47796822 C-58.8134369 48.57775768 -56.93258109 46.68389899 -55.04997253 44.7915802 C-50.37535352 40.09024036 -45.71163415 35.37813488 -41.04754639 30.66635132 C-37.10537696 26.68468882 -33.159121 22.70716288 -29.20734978 18.73502922 C-27.35701347 16.87175401 -25.51281967 15.00254288 -23.66877747 13.13304138 C-22.52978843 11.98678443 -21.39051605 10.84080893 -20.25091553 9.69515991 C-19.48781822 8.91656364 -19.48781822 8.91656364 -18.70930481 8.12223816 C-12.8610261 2.27224412 -8.16912148 0.04673188 0 0 Z " fill="#FAA58D" transform="translate(199.51434326171875,264.8460998535156)"/>
<path d="M0 0 C8.14583568 8.62974671 14.07798729 19.79841638 20 30 C20.39719238 30.6815918 20.79438477 31.36318359 21.20361328 32.06542969 C42.82720133 69.66444706 52.47643421 112.57298385 52.3125 155.625 C52.31034485 156.64290619 52.3081897 157.66081238 52.30596924 158.70956421 C52.25629854 173.31863523 52.00540191 187.65075853 49 202 C48.70198486 203.46228027 48.70198486 203.46228027 48.39794922 204.95410156 C35.93786762 264.51982498 4.0476363 320.87366419 -45 358 C-45.53882813 358.41523926 -46.07765625 358.83047852 -46.6328125 359.25830078 C-78.50267547 383.75915115 -115.05581241 400.25142134 -154.4375 408.3125 C-155.15639404 408.45985596 -155.87528809 408.60721191 -156.6159668 408.7590332 C-172.16398642 411.71421297 -187.5840654 412.40561671 -203.375 412.375 C-204.38513153 412.37478851 -205.39526306 412.37457703 -206.43600464 412.37435913 C-222.61548158 412.34063357 -238.13451989 411.4104386 -254 408 C-254.96631348 407.79681152 -255.93262695 407.59362305 -256.92822266 407.38427734 C-267.44463096 405.12962448 -277.79035933 402.39058568 -288 399 C-286.55656298 395.67156039 -284.75661072 393.5440401 -282.15625 391.03125 C-281.40472656 390.29519531 -280.65320313 389.55914062 -279.87890625 388.80078125 C-278.29296875 387.26692708 -276.70703125 385.73307292 -275.12109375 384.19921875 C-274.36957031 383.46316406 -273.61804688 382.72710937 -272.84375 381.96875 C-272.15474609 381.30294922 -271.46574219 380.63714844 -270.75585938 379.95117188 C-267.23325534 376.03673202 -266.78318073 373.20366242 -267 368 C-267 364 -267 364 -265.86108398 362.41371155 C-265.32813721 361.90472824 -264.79519043 361.39574493 -264.24609375 360.87133789 C-263.34515991 359.99506493 -263.34515991 359.99506493 -262.42602539 359.10108948 C-261.76981201 358.48120651 -261.11359863 357.86132355 -260.4375 357.22265625 C-259.07023203 355.89135868 -257.70304708 354.55997584 -256.3359375 353.22851562 C-254.16667937 351.14017426 -251.99338172 349.0561697 -249.81738281 346.97485352 C-247.72197084 344.96378069 -245.64186098 342.93780051 -243.5625 340.91015625 C-242.90628662 340.29229752 -242.25007324 339.67443878 -241.57397461 339.03785706 C-238.02893383 335.67889743 -238.02893383 335.67889743 -236.49609375 331.18139648 C-237.09017623 328.60962955 -237.95259978 327.62085851 -240 326 C-234.62424083 314.08395131 -221.04572813 304.50051117 -209.45729065 299.45864868 C-204.6873729 297.69055385 -200.2870667 297.56613131 -195.24194336 297.58349609 C-194.29926605 297.57491074 -193.35658875 297.56632538 -192.38534546 297.55747986 C-189.28676768 297.53250899 -186.18851283 297.52804573 -183.08984375 297.5234375 C-180.91759789 297.50910779 -178.74536104 297.49334728 -176.57313538 297.47622681 C-170.85956629 297.43443522 -165.14605297 297.40941293 -159.43237305 297.38873291 C-150.31404508 297.35290295 -141.1958561 297.29134019 -132.07766914 297.23024368 C-128.9145674 297.21138305 -125.75150231 297.19948555 -122.58836365 297.18881226 C-97.24807193 297.0739743 -71.35556351 296.94560921 -51.98828125 278.1171875 C-47.67078296 273.52652528 -47.67078296 273.52652528 -45.59765625 267.69140625 C-44.73978284 263.03336635 -43.99141958 260.71959991 -40.05078125 257.859375 C-37.62068577 256.46823584 -35.13281945 255.19759165 -32.640625 253.921875 C-22.9601293 248.96602414 -12.35428492 240.05551305 -8.0625 229.875 C-6.07132876 225.40375386 -2.78516529 223.23726627 1.05078125 220.3359375 C4.5871778 217.53492407 7.87228437 214.56001783 11.125 211.4375 C11.70564209 210.90745361 12.28628418 210.37740723 12.88452148 209.83129883 C16.01666354 206.77264363 16.93989251 205.63880189 17.3671875 201.09765625 C17.24601562 200.07542969 17.12484375 199.05320312 17 198 C15.93458984 197.63648438 15.93458984 197.63648438 14.84765625 197.265625 C13.92855469 196.93046875 13.00945312 196.5953125 12.0625 196.25 C11.14597656 195.92515625 10.22945313 195.6003125 9.28515625 195.265625 C7 194 7 194 6.29003906 192.17041016 C5.96127537 189.71021721 6.27598967 188.3454635 7.07421875 186.0078125 C7.32792236 185.23091064 7.58162598 184.45400879 7.84301758 183.65356445 C8.12169678 182.81913818 8.40037598 181.98471191 8.6875 181.125 C11.08178806 173.58804605 12.93349722 166.10004437 14.3125 158.3125 C14.47129639 157.41740723 14.63009277 156.52231445 14.79370117 155.60009766 C15.22434327 153.070164 15.62334894 150.53850047 16 148 C16.10530029 147.29383545 16.21060059 146.5876709 16.3190918 145.86010742 C22.53034499 98.14111959 9.84403883 46.71338686 -17 7 C-14.78351066 3.54809037 -12.86907126 2.17005933 -9.0625 0.6875 C-8.20785156 0.34074219 -7.35320312 -0.00601563 -6.47265625 -0.36328125 C-3.69869438 -1.07758739 -2.58396056 -1.21904591 0 0 Z " fill="#F44545" transform="translate(460,100)"/>
<path d="M0 0 C1.0115918 0.00082581 2.02318359 0.00165161 3.06542969 0.00250244 C38.14775446 0.06848322 38.14775446 0.06848322 52.375 5.3125 C42.11396852 15.57353148 24.58163703 17.06257397 10.875 17.125 C9.81300385 17.13004547 9.81300385 17.13004547 8.72955322 17.13519287 C8.02232117 17.1381134 7.31508911 17.14103394 6.58642578 17.14404297 C5.17610415 17.15013643 3.76578487 17.15680379 2.35546875 17.1640625 C1.66809631 17.16739594 0.98072388 17.17072937 0.27252197 17.17416382 C-9.57924232 17.28118724 -19.05988571 19.0834821 -28.625 21.3125 C-30.00969482 21.63178467 -30.00969482 21.63178467 -31.42236328 21.95751953 C-69.36474468 30.95403176 -101.43399278 50.83003867 -129.625 77.3125 C-130.26050781 77.89386719 -130.89601563 78.47523437 -131.55078125 79.07421875 C-137.08215004 84.31515768 -141.64169725 90.43100413 -146.23730469 96.48486328 C-147.1208909 97.64857305 -148.0090807 98.80881207 -148.90332031 99.96435547 C-165.95243091 122.07132373 -177.21499718 148.24150948 -183.625 175.3125 C-183.92019531 176.55902344 -184.21539062 177.80554688 -184.51953125 179.08984375 C-194.65580602 225.87649131 -187.31554658 276.23076716 -164.625 318.3125 C-164.08746094 319.32957031 -163.54992187 320.34664063 -162.99609375 321.39453125 C-159.73290294 327.48638877 -156.19512979 333.39681939 -152.625 339.3125 C-155.34888467 342.35813877 -158.13556712 345.3386557 -160.9375 348.3125 C-161.70384766 349.17101562 -162.47019531 350.02953125 -163.25976562 350.9140625 C-169.26032438 357.18850568 -169.26032438 357.18850568 -173.33349609 357.55859375 C-174.24824707 357.47738281 -175.16299805 357.39617187 -176.10546875 357.3125 C-179.54842164 357.02916772 -181.10912932 356.99622549 -184.0871582 358.82202148 C-186.73720167 361.20982246 -189.18118126 363.71369643 -191.625 366.3125 C-192.65226105 367.34529156 -193.68369326 368.37394714 -194.71875 369.39892578 C-198.62610319 373.27559256 -202.48799322 377.19637111 -206.34228516 381.12573242 C-207.99473327 382.80816923 -209.6531801 384.48450061 -211.3125 386.16015625 C-211.81765137 386.67876724 -212.32280273 387.19737823 -212.84326172 387.73170471 C-214.0663853 388.96365699 -215.3414456 390.14364338 -216.625 391.3125 C-217.285 391.3125 -217.945 391.3125 -218.625 391.3125 C-235.9257714 360.95327478 -248.09888296 329.95051236 -253.625 295.3125 C-253.90428345 293.57673706 -253.90428345 293.57673706 -254.18920898 291.8059082 C-255.86534055 280.12813786 -255.98217241 268.53240747 -255.9375 256.75 C-255.93426727 255.21939438 -255.93426727 255.21939438 -255.93096924 253.65786743 C-255.88133352 239.03039476 -255.63419712 224.67986162 -252.625 210.3125 C-252.42632324 209.33764648 -252.22764648 208.36279297 -252.02294922 207.35839844 C-241.90232806 158.9765226 -219.9858123 114.98821731 -185.625 79.3125 C-184.99287598 78.65314453 -184.36075195 77.99378906 -183.70947266 77.31445312 C-174.56502521 67.82619695 -165.26765991 59.0862956 -154.625 51.3125 C-153.47394983 50.45443848 -152.32290823 49.59636549 -151.171875 48.73828125 C-142.98224019 42.70072604 -134.47961724 37.31792698 -125.625 32.3125 C-124.91778809 31.9103125 -124.21057617 31.508125 -123.48193359 31.09375 C-100.34654164 18.0683259 -75.17537591 9.31948539 -49.1875 4 C-48.46860596 3.85264404 -47.74971191 3.70528809 -47.0090332 3.5534668 C-31.36120698 0.57931699 -15.89042479 -0.05477892 0 0 Z " fill="#F44545" transform="translate(255.625,-0.3125)"/>
<path d="M0 0 C8.65701916 2.77493616 17.13000181 6.02168987 25.625 9.25 C27.25176956 9.86667273 28.87856034 10.48328946 30.50537109 11.09985352 C44.13530667 16.27081506 57.74262535 21.50060553 71.33837891 26.76074219 C74.36176846 27.93035825 77.38889197 29.08946704 80.41894531 30.24169922 C83.6109276 31.45696679 86.78192939 32.71601846 89.94824219 33.99658203 C104.14449132 39.64309073 113.66685786 40.65570982 128.125 34.8125 C129.28185303 34.36471191 130.43870605 33.91692383 131.63061523 33.45556641 C134.1297853 32.48715249 136.62532068 31.51238593 139.11767578 30.52685547 C143.01380135 28.98926352 146.92461362 27.49206991 150.83984375 26.00390625 C152.19580592 25.48805063 153.55176289 24.97218132 154.90771484 24.45629883 C155.93212677 24.06663437 155.93212677 24.06663437 156.97723389 23.6690979 C160.51908211 22.32031358 164.05858038 20.96541444 167.59765625 19.609375 C168.33230103 19.32794144 169.0669458 19.04650787 169.82385254 18.75654602 C175.05047114 16.75233903 180.27215955 14.73557759 185.49253845 12.71517944 C189.37352515 11.21473395 193.25687083 9.72045666 197.14059448 8.22711182 C199.04250203 7.49405218 200.94332912 6.75818298 202.8430481 6.01947021 C205.49690205 4.98777431 208.15421848 3.96553539 210.8125 2.9453125 C211.61292221 2.63144592 212.41334442 2.31757935 213.23802185 1.99420166 C215.13732747 1.2707089 217.0666755 0.62694495 219 0 C221.95143616 1.47571808 222.06335235 3.41645361 223.15478516 6.49438477 C223.57506989 7.66973282 223.99535461 8.84508087 224.42837524 10.05604553 C224.88246588 11.35098066 225.33601469 12.64610591 225.7890625 13.94140625 C226.25674675 15.26612657 226.7247175 16.59074578 227.19296265 17.91526794 C228.17478483 20.69865775 229.15070896 23.48403558 230.12304688 26.27075195 C231.36489339 29.82731213 232.62462331 33.37723162 233.88944435 36.92567539 C234.86242626 39.66373124 235.82381618 42.40575394 236.7820549 45.14900017 C237.24136489 46.4584036 237.70462475 47.76642886 238.17201614 49.07296944 C242.84590155 62.16919356 242.84590155 62.16919356 242 69 C238.69757607 73.46911038 234.25271682 75.74217961 229.375 78.1875 C228.57433105 78.59911377 227.77366211 79.01072754 226.94873047 79.43481445 C225.07270987 80.39808872 223.1944256 81.35696137 221.31445312 82.3125 C217.5317353 84.23840937 213.75755022 86.18048237 209.984375 88.125 C203.9735086 91.22165506 197.96030255 94.3137066 191.9453125 97.40234375 C184.55077101 101.20024928 177.16221782 105.00956812 169.77920532 108.82983398 C168.00979262 109.74493547 166.23963938 110.65860464 164.46948242 111.57226562 C159.12478294 114.33361284 153.78674331 117.10590734 148.47103882 119.92263794 C146.63771853 120.89353949 144.80253978 121.86083647 142.96679688 122.82714844 C140.69980451 124.02211812 138.43644316 125.22401608 136.17773438 126.43457031 C124.63690022 132.50127681 113.31947296 137.60628097 100.28515625 133.7578125 C95.09516006 132.14168832 90.37934061 129.93497447 85.5625 127.4375 C84.81291016 127.05787109 84.06332031 126.67824219 83.29101562 126.28710938 C77.50551162 123.34048426 71.76980614 120.29881801 66.02734375 117.26953125 C57.19767669 112.61279538 48.3273194 108.039387 39.43856812 103.49664307 C35.21390843 101.33691553 30.99186819 99.17207653 26.76953125 97.0078125 C25.93468704 96.57995453 25.09984283 96.15209656 24.23970032 95.71127319 C21.82637234 94.47436642 19.41314885 93.2372562 17 92 C16.28116638 91.63144897 15.56233276 91.26289795 14.82171631 90.88317871 C10.44069595 88.63613799 6.06321573 86.38235307 1.6875 84.125 C0.63498047 83.58520508 -0.41753906 83.04541016 -1.50195312 82.48925781 C-6.25110422 80.03392496 -10.96318782 77.51968248 -15.60546875 74.8671875 C-16.4049292 74.4119873 -17.20438965 73.95678711 -18.02807617 73.48779297 C-20.2872156 71.78329926 -20.94912025 70.60286064 -22 68 C-21.77751367 60.25508336 -19.38032393 53.48805038 -16.81640625 46.23046875 C-16.40083969 45.0319075 -15.98527313 43.83334625 -15.55711365 42.59846497 C-14.68135372 40.07806859 -13.80227514 37.55918216 -12.91674805 35.04223633 C-11.78416784 31.82290467 -10.66230134 28.59997414 -9.54432774 25.37554455 C-8.47200628 22.28424441 -7.39431888 19.19482298 -6.31640625 16.10546875 C-5.71319298 14.37419991 -5.71319298 14.37419991 -5.09779358 12.60795593 C-4.72077805 11.53616592 -4.34376251 10.46437592 -3.95532227 9.36010742 C-3.62524673 8.41906662 -3.2951712 7.47802582 -2.95509338 6.50846863 C-2.09486464 4.24915362 -1.12648301 2.13670878 0 0 Z " fill="#274C90" transform="translate(219,106)"/>
<path d="M0 0 C2 2 2 2 2.62890625 5.0859375 C1.68347082 10.96995182 -1.82443266 13.65685092 -6.0625 17.625 C-7.19075195 18.73101562 -7.19075195 18.73101562 -8.34179688 19.859375 C-11.71490567 23.11858661 -15.06302413 26.14765921 -18.94140625 28.79296875 C-21.86955348 30.90587192 -22.51722258 31.58818962 -23.875 34.6875 C-29.71948868 47.80677417 -44.2418035 58.26218676 -57 64 C-57.66 64 -58.32 64 -59 64 C-59.0825 64.99 -59.165 65.98 -59.25 67 C-60.64001537 76.10825861 -66.07346756 82.23480234 -73 88 C-80.77099055 93.51349609 -88.81961457 96.62840043 -98 99 C-98.62390625 99.1757959 -99.2478125 99.3515918 -99.890625 99.53271484 C-112.86311634 102.40648202 -128.73688352 100.6531735 -140.3125 94.3125 C-147.20238322 89.84128754 -151.66111223 84.91623552 -154 77 C-155.14597656 77.03480469 -156.29195313 77.06960938 -157.47265625 77.10546875 C-159.00258939 77.13362703 -160.53253854 77.16092499 -162.0625 77.1875 C-162.81466797 77.21263672 -163.56683594 77.23777344 -164.34179688 77.26367188 C-170.27690809 77.34075124 -175.12058968 76.53723824 -179.7421875 72.46484375 C-182.62264155 68.58119709 -184.14750653 66.44021336 -184.1875 61.625 C-184.20167969 60.85414063 -184.21585937 60.08328125 -184.23046875 59.2890625 C-183.97801607 56.78165112 -183.25193467 55.16738098 -182 53 C-182.97839844 53.05220703 -182.97839844 53.05220703 -183.9765625 53.10546875 C-191.14082169 53.32737058 -195.3011107 52.45353573 -200.75 47.5 C-204.59074438 43.23250624 -205.45185877 40.84383353 -205.31640625 35.28125 C-204.65428107 30.50740918 -201.86220796 27.75956416 -198.375 24.6875 C-194.08561455 21.63977876 -190.7640201 21.93156035 -185.65649414 22.05200195 C-183.85056905 22.0835585 -182.04462363 22.11396672 -180.23866272 22.1434021 C-179.27196215 22.15987164 -178.30526157 22.17634117 -177.30926704 22.19330978 C-124.36572295 22.98063173 -78.26092564 20.21116092 -29.35168457 -1.05799866 C-19.95927138 -4.82026591 -9.27604206 -3.62397342 0 0 Z " fill="#FEBDA9" transform="translate(476,296)"/>
<path d="M0 0 C8.65701916 2.77493616 17.13000181 6.02168987 25.625 9.25 C27.25176956 9.86667273 28.87856034 10.48328946 30.50537109 11.09985352 C44.13530667 16.27081506 57.74262535 21.50060553 71.33837891 26.76074219 C75.88773282 28.51908439 80.44168242 30.26502938 85 32 C85.84075073 32.32027161 86.68150146 32.64054321 87.54772949 32.97052002 C90.12047774 33.94674046 92.69637484 34.91413966 95.2734375 35.87890625 C96.45095078 36.32628395 96.45095078 36.32628395 97.6522522 36.78269958 C98.39526581 37.05880569 99.13827942 37.3349118 99.90380859 37.61938477 C100.55143158 37.86245865 101.19905457 38.10553253 101.86630249 38.35597229 C104.51436661 39.1552546 107.27157382 39.5452623 110 40 C110 71.02 110 102.04 110 134 C111.65 134 113.3 134 115 134 C115 134.33 115 134.66 115 135 C113.54273061 135.08371548 112.08391081 135.14036596 110.625 135.1875 C109.81289063 135.22230469 109.00078125 135.25710937 108.1640625 135.29296875 C100.00280015 134.53729631 92.75613732 131.16731524 85.5625 127.4375 C84.81291016 127.05787109 84.06332031 126.67824219 83.29101562 126.28710938 C77.50551162 123.34048426 71.76980614 120.29881801 66.02734375 117.26953125 C57.19767669 112.61279538 48.3273194 108.039387 39.43856812 103.49664307 C35.21390843 101.33691553 30.99186819 99.17207653 26.76953125 97.0078125 C25.93468704 96.57995453 25.09984283 96.15209656 24.23970032 95.71127319 C21.82637234 94.47436642 19.41314885 93.2372562 17 92 C16.28116638 91.63144897 15.56233276 91.26289795 14.82171631 90.88317871 C10.44069595 88.63613799 6.06321573 86.38235307 1.6875 84.125 C0.63498047 83.58520508 -0.41753906 83.04541016 -1.50195312 82.48925781 C-6.25110422 80.03392496 -10.96318782 77.51968248 -15.60546875 74.8671875 C-16.4049292 74.4119873 -17.20438965 73.95678711 -18.02807617 73.48779297 C-20.2872156 71.78329926 -20.94912025 70.60286064 -22 68 C-21.77751367 60.25508336 -19.38032393 53.48805038 -16.81640625 46.23046875 C-16.40083969 45.0319075 -15.98527313 43.83334625 -15.55711365 42.59846497 C-14.68135372 40.07806859 -13.80227514 37.55918216 -12.91674805 35.04223633 C-11.78416784 31.82290467 -10.66230134 28.59997414 -9.54432774 25.37554455 C-8.47200628 22.28424441 -7.39431888 19.19482298 -6.31640625 16.10546875 C-5.71319298 14.37419991 -5.71319298 14.37419991 -5.09779358 12.60795593 C-4.72077805 11.53616592 -4.34376251 10.46437592 -3.95532227 9.36010742 C-3.62524673 8.41906662 -3.2951712 7.47802582 -2.95509338 6.50846863 C-2.09486464 4.24915362 -1.12648301 2.13670878 0 0 Z " fill="#203E76" transform="translate(219,106)"/>
<path d="M0 0 C2.63914087 0.6103807 3.79419908 1.57262331 5.78217506 3.40111923 C6.82700491 4.35966434 6.82700491 4.35966434 7.89294243 5.33757401 C12.11472424 9.37364711 16.26698087 13.47375987 20.39237404 17.60821152 C21.39501649 18.60949598 22.39787091 19.61056823 23.40091896 20.61144638 C26.10116893 23.3071723 28.79828841 26.0060094 31.49468374 28.70559025 C34.32428047 31.53773321 37.15633259 34.36741921 39.98798561 37.19750595 C44.73558276 41.94328948 49.48107992 46.6911652 54.22538185 51.44024277 C59.70971903 56.93003671 65.19767045 62.41619786 70.68748224 67.90051675 C75.40964721 72.61814626 80.12986394 77.33771843 84.84845221 82.05892539 C87.66316969 84.87520123 90.47855704 87.69079848 93.2957058 90.50464249 C95.93933757 93.14538873 98.58051704 95.78856328 101.21981239 98.43364334 C102.65141002 99.86719583 104.08547323 101.29828476 105.51960182 102.72930527 C106.36903358 103.58155685 107.21846535 104.43380844 108.09363747 105.31188583 C108.83358641 106.0522118 109.57353535 106.79253777 110.33590698 107.55529785 C112.70927696 110.09306709 114.06261574 111.82276839 114.52762794 115.31035995 C113.61867123 123.036492 106.41635902 128.66728575 101.21512794 133.93535995 C100.41655373 134.77518417 99.61797951 135.61500839 98.79520607 136.48028183 C97.62828224 137.66267441 97.62828224 137.66267441 96.43778419 138.8689537 C95.7353257 139.59010361 95.0328672 140.31125351 94.30912209 141.05425644 C92.15262794 142.49785995 92.15262794 142.49785995 89.64261818 142.31597519 C88.8209214 142.04599716 87.99922462 141.77601913 87.15262794 141.49785995 C86.12782326 141.16455673 86.12782326 141.16455673 85.08231544 140.82452011 C52.89490376 128.48652224 24.00016116 110.42958408 -0.84737206 86.49785995 C-1.50672752 85.86573593 -2.16608299 85.23361191 -2.84541893 84.58233261 C-12.33144379 75.44003563 -21.08474791 66.14639604 -28.84737206 55.49785995 C-29.30257225 54.88217148 -29.75777245 54.266483 -30.22676659 53.6321373 C-31.60899015 51.76020618 -32.9810381 49.88141497 -34.34737206 47.99785995 C-34.96213402 47.15251694 -34.96213402 47.15251694 -35.58931541 46.29009628 C-38.05110575 42.83099436 -39.98690247 39.30638185 -41.84737206 35.49785995 C-37.20611313 30.83126345 -32.56095191 26.16857814 -27.91304588 21.50860214 C-26.33206378 19.92258868 -24.75198001 18.3356792 -23.17281151 16.74785995 C-20.90392448 14.46685508 -18.63183537 12.18908298 -16.35909081 9.91192245 C-15.65273994 9.20041031 -14.94638908 8.48889816 -14.21863365 7.75582504 C-13.22794632 6.76502441 -13.22794632 6.76502441 -12.2172451 5.75420761 C-11.63766548 5.17240738 -11.05808586 4.59060715 -10.46094322 3.99117661 C-7.13540141 0.91347724 -4.55550715 -0.13633594 0 0 Z " fill="#EDC372" transform="translate(79.84737205505371,355.502140045166)"/>
<path d="M0 0 C-0.61746094 0.46148438 -1.23492187 0.92296875 -1.87109375 1.3984375 C-15.1465008 11.6227236 -26.30417616 24.91331695 -29 42 C-30.70379413 61.39704084 -28.36263523 78.03201413 -15.93359375 93.5859375 C-11.13974865 99.1384607 -5.96464942 103.74155054 0 108 C-2 109 -2 109 -4.93554688 108.07885742 C-6.19966497 107.59563341 -7.4605144 107.10380918 -8.71875 106.60546875 C-9.73932495 106.21174072 -9.73932495 106.21174072 -10.78051758 105.81005859 C-13.02317061 104.94297381 -15.26148484 104.06520587 -17.5 103.1875 C-19.06676491 102.57973075 -20.63382517 101.97272238 -22.20117188 101.36645508 C-25.35177659 100.14660087 -28.50081684 98.92284583 -31.6484375 97.6953125 C-37.25865635 95.50788647 -42.87888423 93.34674002 -48.5 91.1875 C-49.48097656 90.80948242 -50.46195312 90.43146484 -51.47265625 90.04199219 C-58.60030518 87.29736157 -65.73627793 84.57505393 -72.875 81.859375 C-73.8299939 81.4960054 -74.78498779 81.1326358 -75.7689209 80.758255 C-80.58300435 78.92676081 -85.39759743 77.09662173 -90.21289062 75.26831055 C-91.98568897 74.59426954 -93.75847595 73.92019865 -95.53125 73.24609375 C-96.35705566 72.93303284 -97.18286133 72.61997192 -98.03369141 72.29742432 C-103.77338101 70.11330949 -103.77338101 70.11330949 -106 69 C-105.958277 76.27783935 -105.88589723 83.55491731 -105.79248047 90.83227539 C-105.76430368 93.30648928 -105.74307285 95.78079263 -105.72900391 98.25512695 C-105.70752978 101.81768487 -105.66085325 105.37917083 -105.609375 108.94140625 C-105.60814636 110.04271378 -105.60691772 111.1440213 -105.60565186 112.27870178 C-105.48201142 118.80319755 -104.66763756 122.59952487 -101 128 C-99.68451293 135.58339603 -100.99023053 140.66197729 -105 147 C-104.64046095 151.36420722 -102.72878316 155.15269864 -100.90234375 159.07421875 C-100.59201202 159.75166641 -100.2816803 160.42911407 -99.96194458 161.12709045 C-99.29983942 162.57100545 -98.63538687 164.013846 -97.96878052 165.45568848 C-96.9332018 167.69680181 -95.90488323 169.94111134 -94.87866211 172.18652344 C-92.43181321 177.53787847 -89.97708116 182.88555029 -87.50878906 188.22705078 C-86.35243145 190.73131802 -85.20613042 193.23990441 -84.0625 195.75 C-83.73950928 196.43795654 -83.41651855 197.12591309 -83.08374023 197.8347168 C-81.4929517 201.34419384 -80.53420101 204.13028527 -81 208 C-82 209 -82 209 -84.32215881 209.12025452 C-85.35030197 209.11803391 -86.37844513 209.11581329 -87.43774414 209.11352539 C-89.17943626 209.11341209 -89.17943626 209.11341209 -90.95631409 209.11329651 C-92.85159096 209.10555458 -92.85159096 209.10555458 -94.78515625 209.09765625 C-96.07111191 209.0962413 -97.35706757 209.09482635 -98.68199158 209.09336853 C-102.10643443 209.08954418 -105.53083509 209.07971462 -108.95526123 209.06866455 C-112.44738189 209.05844864 -115.93950934 209.05387053 -119.43164062 209.04882812 C-126.28777778 209.03809227 -133.14388687 209.02101684 -140 209 C-141.27297835 203.96436183 -140.07686102 201.03832314 -137.87890625 196.48828125 C-137.37580177 195.40538567 -137.37580177 195.40538567 -136.86253357 194.3006134 C-136.14508013 192.76068386 -135.42142426 191.22363143 -134.69213867 189.68927002 C-133.5603813 187.30804224 -132.44498748 184.9197824 -131.33398438 182.52880859 C-129.88383052 179.41134374 -128.42796667 176.29668752 -126.96533203 173.18505859 C-124.61266256 168.17893907 -122.28385002 163.16292067 -120 158.125 C-119.6810376 157.44477783 -119.3620752 156.76455566 -119.03344727 156.0637207 C-117.4589993 152.58630361 -116.46958052 149.82565053 -117 146 C-117.66 144.948125 -118.32 143.89625 -119 142.8125 C-121.72317164 138.37402096 -121.71706704 134.0694972 -121 129 C-118.97058824 123.97058824 -118.97058824 123.97058824 -117 122 C-116.87677242 120.22096643 -116.82210981 118.43713797 -116.79467773 116.65405273 C-116.77473251 115.5129454 -116.75478729 114.37183807 -116.73423767 113.19615173 C-116.70916893 111.33368553 -116.70916893 111.33368553 -116.68359375 109.43359375 C-116.66281265 108.16983414 -116.64203156 106.90607452 -116.62062073 105.60401917 C-116.56616286 102.23881367 -116.5159572 98.87359827 -116.46777344 95.50830078 C-116.41760241 92.07644099 -116.36189345 88.64467169 -116.30664062 85.21289062 C-116.19929809 78.47533239 -116.09755675 71.73770664 -116 65 C-116.61488281 64.80446533 -117.22976562 64.60893066 -117.86328125 64.4074707 C-118.67152344 64.14538818 -119.47976562 63.88330566 -120.3125 63.61328125 C-121.11300781 63.35587158 -121.91351563 63.09846191 -122.73828125 62.83325195 C-125.80241432 61.70437823 -127.79448263 60.41228463 -130 58 C-130.9676633 54.90347745 -131.36540248 53.01491253 -130.25811768 49.93940735 C-128.71413362 47.55933268 -127.54636409 47.01681972 -124.93261719 45.96948242 C-123.72043518 45.47319839 -123.72043518 45.47319839 -122.48376465 44.96688843 C-121.66412231 44.64781525 -120.84447998 44.32874207 -120 44 C-119.27542603 43.70791656 -118.55085205 43.41583313 -117.80432129 43.11489868 C-115.56887014 42.22137157 -113.32518031 41.35219104 -111.078125 40.48828125 C-110.23659378 40.16281815 -109.39506256 39.83735504 -108.5280304 39.50202942 C-105.7696633 38.43630275 -103.00991265 37.37421711 -100.25 36.3125 C-98.29939587 35.56038908 -96.34879369 34.8082731 -94.39819336 34.05615234 C-78.59227922 27.96881277 -62.75730344 21.95875304 -46.90405273 15.99584961 C-45.0662335 15.30455129 -43.2284241 14.61322683 -41.390625 13.921875 C-40.50399673 13.5883754 -39.61736847 13.25487579 -38.70387268 12.91127014 C-33.05804323 10.78443923 -27.42389283 8.62919048 -21.796875 6.453125 C-20.41728446 5.92158731 -19.03764757 5.39016988 -17.65795898 4.85888672 C-15.16719094 3.89971186 -12.68067111 2.93143614 -10.19555664 1.95751953 C-9.12684326 1.54614746 -8.05812988 1.13477539 -6.95703125 0.7109375 C-6.03897705 0.35306152 -5.12092285 -0.00481445 -4.17504883 -0.37353516 C-2 -1 -2 -1 0 0 Z " fill="#2F59AB" transform="translate(277,19)"/>
<path d="M0 0 C2.41999672 1.18843403 3.91615651 2.58611993 5.78515625 4.53125 C6.48253906 5.253125 7.17992187 5.975 7.8984375 6.71875 C9.80477223 8.78663852 11.646975 10.89223672 13.47265625 13.03125 C15.66254096 15.57665891 17.88382192 17.8330618 20.45629883 19.98803711 C26.15315867 24.91313537 31.4185751 30.27045411 36.734375 35.59765625 C37.85425003 36.71685603 38.97427333 37.83590748 40.09443665 38.95481873 C42.42827229 41.28718899 44.7603125 43.62133541 47.09106445 45.95678711 C50.066525 48.93795754 53.04647149 51.91459707 56.02777386 54.88992405 C58.33651706 57.19504152 60.64285827 59.50255045 62.94849586 61.81077385 C64.04609784 62.90903884 65.14443185 64.00657276 66.243536 65.10333443 C67.78158146 66.63881866 69.31634899 68.17750941 70.8503418 69.71704102 C71.72111862 70.58861343 72.59189545 71.46018585 73.48905945 72.35816956 C80.63981059 79.87453094 80.63981059 79.87453094 81.70898438 83.3894043 C80.48386147 87.68099033 77.3488665 90.20098663 74.19140625 93.23828125 C73.50332886 93.91928391 72.81525146 94.60028656 72.10632324 95.30192566 C69.90655554 97.47371146 67.6900432 99.62747071 65.47265625 101.78125 C63.97803034 103.2507983 62.48452615 104.7214884 60.9921875 106.19335938 C57.33189355 109.7985331 53.6564859 113.38763523 49.97265625 116.96875 C46.89586944 115.59667243 44.78984983 114.03382306 42.41656494 111.65316772 C41.72951981 110.96887192 41.04247467 110.28457611 40.33460999 109.57954407 C39.22006691 108.45421516 39.22006691 108.45421516 38.08300781 107.30615234 C37.29238449 106.51582108 36.50176117 105.72548981 35.68717957 104.91120911 C33.07444516 102.29708109 30.46886671 99.67593956 27.86328125 97.0546875 C26.05339433 95.24107057 24.24306542 93.42789463 22.43231201 91.61514282 C18.15403554 87.33000966 13.88024324 83.04045349 9.60858989 78.74872172 C4.74434607 73.86211221 -0.12558761 68.9811901 -4.99600554 64.10073543 C-15.01279174 54.06305211 -25.02241796 44.01825407 -35.02734375 33.96875 C-34.11932755 32.83675647 -33.20050549 31.71342637 -32.27734375 30.59375 C-31.51164062 29.65402344 -31.51164062 29.65402344 -30.73046875 28.6953125 C-28.92115552 26.86110047 -27.43389847 25.87243585 -25.02734375 24.96875 C-23.67648568 25.59915043 -22.34481699 26.27126417 -21.02734375 26.96875 C-16.39534928 27.46151537 -13.717676 26.83900842 -10.02734375 23.96875 C-7.68849705 20.73891409 -7.71481995 17.87529747 -8.02734375 13.96875 C-8.95149316 10.69310637 -8.95149316 10.69310637 -10.02734375 7.96875 C-8.79335312 6.59997884 -7.53953752 5.24905834 -6.27734375 3.90625 C-5.58125 3.15214844 -4.88515625 2.39804687 -4.16796875 1.62109375 C-2.02734375 -0.03125 -2.02734375 -0.03125 0 0 Z " fill="#FEE6BF" transform="translate(143.02734375,348.03125)"/>
<path d="M0 0 C1.65092322 -0.00337347 3.30184401 -0.0082305 4.95275879 -0.01449585 C8.40250436 -0.02184225 11.8515999 -0.01123469 15.30126953 0.01220703 C19.70631915 0.04069431 24.10984535 0.02427819 28.51483917 -0.00565529 C31.92087118 -0.02378935 35.32654653 -0.01794252 38.73258972 -0.00501633 C40.35597416 -0.00169913 41.97939179 -0.00570962 43.60273743 -0.01741409 C59.85080288 -0.10887664 59.85080288 -0.10887664 66.09375 5.6640625 C66.83625 6.3446875 67.57875 7.0253125 68.34375 7.7265625 C68.92125 8.3659375 69.49875 9.0053125 70.09375 9.6640625 C71.1765625 10.7159375 71.1765625 10.7159375 72.28125 11.7890625 C74.52596116 14.11117749 75.03069764 15.20167851 75.46875 18.4140625 C74.70708695 25.01514224 68.70257269 29.0671818 63.9609375 33.24609375 C60.1869902 36.11208302 56.24084886 35.83546409 51.7199707 35.87280273 C50.97160446 35.88258652 50.22323822 35.8923703 49.45219421 35.90245056 C46.97465788 35.93237104 44.49717551 35.95378304 42.01953125 35.97265625 C41.17172781 35.97922808 40.32392437 35.9857999 39.45042992 35.99257088 C34.96086673 36.02515314 30.47132713 36.04960426 25.98168945 36.0690918 C22.27332862 36.08688725 18.56573073 36.12167986 14.85766602 36.17163086 C10.37372049 36.23195807 5.89048092 36.26258462 1.40614891 36.27226448 C-0.29825875 36.28080054 -2.0026485 36.29957309 -3.70682335 36.3290081 C-19.80366807 36.59201973 -19.80366807 36.59201973 -25.58454895 31.22328186 C-29.58184996 26.50763975 -30.53138588 22.25636925 -30.3125 16.19140625 C-29.38808675 10.44048921 -26.38539003 6.57259241 -21.84570312 3.08764648 C-15.29088185 -0.915098 -7.42081686 -0.0535048 0 0 Z " fill="#FEBDA9" transform="translate(269.90625,264.3359375)"/>
<path d="M0 0 C-33.66631772 21.67557442 -71.74052282 33.4371271 -111.8125 33.375 C-112.70931488 33.37678253 -113.60612976 33.37856506 -114.53012085 33.38040161 C-128.64671685 33.38401766 -142.08444479 32.37310451 -155.90161133 29.25366211 C-159.77750686 28.78512744 -161.7703677 29.8469118 -165 32 C-159.62424083 20.08395131 -146.04572813 10.50051117 -134.45729065 5.45864868 C-129.6873729 3.69055385 -125.2870667 3.56613131 -120.24194336 3.58349609 C-119.29926605 3.57491074 -118.35658875 3.56632538 -117.38534546 3.55747986 C-114.28676768 3.53250899 -111.18851283 3.52804573 -108.08984375 3.5234375 C-105.91759789 3.50910779 -103.74536104 3.49334728 -101.57313538 3.47622681 C-95.85956629 3.43443522 -90.14605297 3.40941293 -84.43237305 3.38873291 C-75.31404508 3.35290295 -66.1958561 3.29134019 -57.07766914 3.23024368 C-53.9145674 3.21138305 -50.75150231 3.19948555 -47.58836365 3.18881226 C-27.73341687 3.3461725 -27.73341687 3.3461725 -8.1875 0.375 C-2.1998486 -1.0999243 -2.1998486 -1.0999243 0 0 Z " fill="#FA5858" transform="translate(385,394)"/>
<path d="M0 0 C2.6555426 0.61658878 3.83060154 1.60582874 5.83129883 3.44580078 C6.86927612 4.39749146 6.86927612 4.39749146 7.92822266 5.3684082 C11.89664522 9.16718429 15.79159297 13.03315893 19.65551758 16.93798828 C20.47793945 17.76492188 21.30036133 18.59185547 22.14770508 19.44384766 C24.1526387 21.46043787 26.15518011 23.47934064 28.15551758 25.50048828 C23.46730824 31.13617489 18.45566349 36.33152795 13.25708008 41.49658203 C12.42212006 42.33012711 11.58716003 43.16367218 10.72689819 44.0224762 C8.0804591 46.66335353 5.43054999 49.30071724 2.78051758 51.93798828 C0.97690114 53.73658477 -0.82648667 55.53541055 -2.62963867 57.33447266 C-7.03194503 61.72580076 -11.43709956 66.11425557 -15.84448242 70.50048828 C-19.70539484 66.68943855 -23.21041607 62.79196892 -26.59448242 58.56298828 C-27.11236328 57.9170874 -27.63024414 57.27118652 -28.16381836 56.60571289 C-33.21296811 50.20572138 -37.60211455 43.45325785 -41.84448242 36.50048828 C-37.90550974 31.7864383 -33.80877158 27.31595761 -29.45776367 22.98095703 C-28.87407516 22.3963118 -28.29038666 21.81166656 -27.68901062 21.20930481 C-26.4675663 19.98718575 -25.24488142 18.76630538 -24.02099609 17.54663086 C-22.14783442 15.67886664 -20.28012361 13.8057695 -18.4128418 11.93212891 C-17.21980326 10.73975052 -16.0264549 9.54768201 -14.83276367 8.35595703 C-14.27647781 7.79764694 -13.72019196 7.23933685 -13.14704895 6.66410828 C-8.96551373 2.50787381 -6.17135177 -0.177422 0 0 Z " fill="#DBAC5C" transform="translate(79.844482421875,355.49951171875)"/>
<path d="M0 0 C2.49536133 2.04125977 2.49536133 2.04125977 5.08203125 4.69140625 C5.77059456 5.38845924 5.77059456 5.38845924 6.47306824 6.09959412 C7.92924735 7.57806683 9.37085904 9.06986157 10.8125 10.5625 C11.80050098 11.57057507 12.78942404 12.5777473 13.77929688 13.58398438 C16.19696393 16.04562454 18.60176584 18.51940673 21 21 C18 24 15 27 12 30 C12.495 31.299375 12.495 31.299375 13 32.625 C14.4979349 37.6805303 14.79054159 40.53185134 12.25 45.25 C9.11267606 49.08450704 9.11267606 49.08450704 6 50 C1.53545723 50.38822111 -1.83195258 49.58782759 -6 48 C-8.31 50.31 -10.62 52.62 -13 55 C-16.92175855 53.03912073 -18.94122867 51.29119537 -21.984375 48.2109375 C-22.44483215 47.74765045 -22.90528931 47.2843634 -23.37969971 46.80703735 C-24.84125078 45.33434102 -26.29567168 43.85482597 -27.75 42.375 C-28.74302611 41.37193678 -29.73651089 40.36932743 -30.73046875 39.3671875 C-33.15897941 36.91669165 -35.58114675 34.4600333 -38 32 C-32.72635168 25.5481962 -26.87271237 19.72042069 -20.97607422 13.84570312 C-19.23677418 12.11181533 -17.50294858 10.37257934 -15.76953125 8.6328125 C-14.66438345 7.5283246 -13.55892598 6.42414645 -12.453125 5.3203125 C-11.93542542 4.80058868 -11.41772583 4.28086487 -10.88433838 3.74539185 C-5.39000477 -1.7129356 -5.39000477 -1.7129356 0 0 Z " fill="#FED893" transform="translate(122,326)"/>
<path d="M0 0 C2.57016662 2.57016662 3.73394876 5.5108268 5.1953125 8.78125 C5.65868767 9.80378876 5.65868767 9.80378876 6.13142395 10.84698486 C7.13397971 13.06257042 8.12984972 15.28107941 9.125 17.5 C9.80649202 19.01344993 10.48821415 20.52679627 11.17016602 22.04003906 C12.18248797 24.28754032 13.19405402 26.53536685 14.20332336 28.78424072 C16.0377017 32.8713237 17.89004662 36.94901266 19.76953125 41.015625 C20.1464209 41.83869141 20.52331055 42.66175781 20.91162109 43.50976562 C21.57312291 44.95430173 22.24095724 46.39596285 22.91650391 47.83398438 C24.50646144 51.34397571 25.46582895 54.13003641 25 58 C24 59 24 59 21.67784119 59.12025452 C20.64969803 59.11803391 19.62155487 59.11581329 18.56225586 59.11352539 C16.82056374 59.11341209 16.82056374 59.11341209 15.04368591 59.11329651 C13.14840904 59.10555458 13.14840904 59.10555458 11.21484375 59.09765625 C9.92888809 59.0962413 8.64293243 59.09482635 7.31800842 59.09336853 C3.89356557 59.08954418 0.46916491 59.07971462 -2.95526123 59.06866455 C-6.44738189 59.05844864 -9.93950934 59.05387053 -13.43164062 59.04882812 C-20.28777778 59.03809227 -27.14388687 59.02101684 -34 59 C-35.27298726 53.96432657 -34.07679918 51.03836291 -31.87890625 46.48828125 C-31.54350327 45.76612427 -31.20810028 45.04396729 -30.86253357 44.29992676 C-29.77484776 41.9647888 -28.66881861 39.63885946 -27.5625 37.3125 C-26.81821739 35.72227339 -26.07537815 34.13137042 -25.33398438 32.53979492 C-23.88282509 29.42647176 -22.42618748 26.31581539 -20.96533203 23.20703125 C-18.574437 18.1059979 -16.26818848 12.96916602 -14 7.8125 C-13.6810376 7.0903833 -13.3620752 6.3682666 -13.03344727 5.62426758 C-12.35369725 4.08369706 -11.67644389 2.54202505 -11 1 C-10.67 1 -10.34 1 -10 1 C-9.98786972 1.83898331 -9.98786972 1.83898331 -9.97549438 2.69491577 C-9.88961651 8.50225045 -9.7901211 14.30923715 -9.68261719 20.11621094 C-9.64427009 22.28509693 -9.60942745 24.45404777 -9.578125 26.62304688 C-9.53259862 29.73591332 -9.47458427 32.84833106 -9.4140625 35.9609375 C-9.40251129 36.934935 -9.39096008 37.9089325 -9.37905884 38.91244507 C-9.35918915 39.81322784 -9.33931946 40.71401062 -9.31884766 41.64208984 C-9.30552399 42.43706879 -9.29220032 43.23204773 -9.2784729 44.05111694 C-9.16532992 46.23465372 -9.16532992 46.23465372 -7 48 C-5.02 48 -3.04 48 -1 48 C-0.67 32.16 -0.34 16.32 0 0 Z " fill="#4371C9" transform="translate(171,169)"/>
<path d="M0 0 C1.48034764 0.47550561 2.95925021 0.95551216 4.4375 1.4375 C5.26121094 1.70433594 6.08492187 1.97117187 6.93359375 2.24609375 C9 3 9 3 10 4 C10.10193601 5.58939615 10.13569142 7.18322917 10.1418457 8.77587891 C10.14888016 9.79428864 10.15591461 10.81269836 10.16316223 11.86196899 C10.16732651 12.97228485 10.17149078 14.08260071 10.17578125 15.2265625 C10.19898925 17.56120684 10.22310698 19.89584227 10.24804688 22.23046875 C10.28311099 25.92372497 10.3124696 29.6166565 10.32592773 33.31005859 C10.34143383 36.86596484 10.38167623 40.42091081 10.42578125 43.9765625 C10.42387283 45.07473297 10.42196442 46.17290344 10.41999817 47.30435181 C10.5236968 53.82726496 11.33249084 57.60162018 15 63 C15.53125 66.0625 15.53125 66.0625 15.5 69 C15.5103125 69.969375 15.520625 70.93875 15.53125 71.9375 C15 75 15 75 12.99829102 77.98535156 C10.13547421 82.87257684 10.45200158 87.76671344 10.49609375 93.296875 C10.48667252 94.36746155 10.47725128 95.4380481 10.46754456 96.54107666 C10.43897008 99.94424818 10.43581497 103.34671834 10.4375 106.75 C10.4338966 110.16746065 10.42444201 113.58441574 10.39674377 117.00177002 C10.37990386 119.12405963 10.37711969 121.24651664 10.38975525 123.36883545 C10.38287186 124.32703186 10.37598846 125.28522827 10.36889648 126.27246094 C10.36985825 127.11516541 10.37082001 127.95786987 10.37181091 128.82611084 C9.91471688 131.4986299 9.17363871 132.41626182 7 134 C3.65807308 133.75546876 2.39456443 133.39456443 0 131 C-0.2515564 128.90840149 -0.2515564 128.90840149 -0.25537109 126.29418945 C-0.26233002 125.31589676 -0.26928894 124.33760406 -0.27645874 123.32966614 C-0.27546173 122.26825912 -0.27446472 121.20685211 -0.2734375 120.11328125 C-0.2937355 117.87304196 -0.31458645 115.63280763 -0.3359375 113.39257812 C-0.35850149 109.85518224 -0.37499091 106.31798201 -0.38085938 102.78051758 C-0.39040327 99.37024363 -0.42421692 95.96085596 -0.4609375 92.55078125 C-0.45589203 91.49949539 -0.45084656 90.44820953 -0.44564819 89.36506653 C-0.53103173 82.96574263 -1.40490974 79.29969301 -5 74 C-6.09897695 68.10706059 -5.25661117 63.08031342 -2 58 C-1.505 57.505 -1.505 57.505 -1 57 C-0.87677242 55.22096643 -0.82210981 53.43713797 -0.79467773 51.65405273 C-0.77473251 50.5129454 -0.75478729 49.37183807 -0.73423767 48.19615173 C-0.70916893 46.33368553 -0.70916893 46.33368553 -0.68359375 44.43359375 C-0.66281265 43.16983414 -0.64203156 41.90607452 -0.62062073 40.60401917 C-0.56616286 37.23881367 -0.5159572 33.87359827 -0.46777344 30.50830078 C-0.41760241 27.07644099 -0.36189345 23.64467169 -0.30664062 20.21289062 C-0.19929809 13.47533239 -0.09755675 6.73770664 0 0 Z " fill="#243E75" transform="translate(161,84)"/>
<path d="M0 0 C1.093125 0.185625 2.18625 0.37125 3.3125 0.5625 C6.93624133 1.2578068 6.93624133 1.2578068 10 0 C10.07595711 6.92334988 10.12856051 13.84659263 10.16479492 20.77026367 C10.17989747 23.12642431 10.20038091 25.48255677 10.22631836 27.83862305 C10.26263656 31.22191312 10.27971167 34.60483208 10.29296875 37.98828125 C10.30845261 39.04461258 10.32393646 40.10094391 10.33988953 41.18928528 C10.34022942 42.66047066 10.34022942 42.66047066 10.34057617 44.16137695 C10.34723801 45.02519485 10.35389984 45.88901276 10.36076355 46.77900696 C9.92047699 49.48957287 9.20679097 50.4031919 7 52 C3.65807308 51.75546876 2.39456443 51.39456443 0 49 C-0.24050903 46.89926147 -0.24050903 46.89926147 -0.22705078 44.27490234 C-0.22682419 42.80360367 -0.22682419 42.80360367 -0.22659302 41.30258179 C-0.21627045 40.24108917 -0.20594788 39.17959656 -0.1953125 38.0859375 C-0.1924826 37.00116119 -0.18965271 35.91638489 -0.18673706 34.79873657 C-0.17551578 31.32404687 -0.15040762 27.84961218 -0.125 24.375 C-0.11497272 22.02344121 -0.10584643 19.6718784 -0.09765625 17.3203125 C-0.07557011 11.54678756 -0.04207345 5.77341199 0 0 Z " fill="#203F78" transform="translate(161,166)"/>
<path d="M0 0 C0.70318359 -0.00708984 1.40636719 -0.01417969 2.13085938 -0.02148438 C6.60609636 0.03304054 9.49775983 0.7170404 13.0625 3.4375 C15.39099047 6.65303446 15.60707007 9.54771377 15.0625 13.4375 C13.23702064 16.36233867 11.19391589 18.87179205 8.0625 20.4375 C5.42132311 20.61454592 2.83053404 20.71491548 0.1875 20.75 C-0.53308594 20.77900391 -1.25367188 20.80800781 -1.99609375 20.83789062 C-5.40629917 20.87871261 -7.54450758 20.69846184 -10.4140625 18.79296875 C-12.33382591 15.82471916 -12.47268915 13.95641464 -12.4375 10.4375 C-12.4478125 9.40625 -12.458125 8.375 -12.46875 7.3125 C-11.9375 4.4375 -11.9375 4.4375 -10.40234375 2.08984375 C-7.00166172 -0.18985276 -3.95095433 -0.11164958 0 0 Z " fill="#FEDCCD" transform="translate(329.9375,272.5625)"/>
<path d="M0 0 C4.08555089 0.75040731 5.46531435 2.38816198 8.0625 5.5625 C11.11045316 10.49677383 10.6631251 15.95910726 10.0625 21.5625 C8.87094586 25.1310204 7.16477798 27.68067762 4.1875 30.0625 C1.0889223 30.79157711 -0.89830194 30.51224939 -3.9375 29.5625 C-7.98709726 25.40041393 -10.22277534 21.51357741 -10.25 15.6875 C-10.1260708 10.06937608 -8.52152967 6.63812508 -5.125 2.1875 C-2.9375 0.5625 -2.9375 0.5625 0 0 Z " fill="#4471C9" transform="translate(165.9375,137.4375)"/>
<path d="M0 0 C3.4431146 2.09580889 5.7468218 4.1265401 7 8 C7.51555338 11.9525759 7.15914688 13.7044415 5.25 17.25 C2.2772789 20.88332579 0.72224085 21.77535989 -3.875 22.375 C-7.87153796 21.89541545 -9.90459308 20.53260567 -13 18 C-15.59107284 14.58449489 -15.50288306 11.16674536 -15 7 C-11.2816636 0.80738027 -7.10145172 -0.99502107 0 0 Z " fill="#EDC473" transform="translate(129,354)"/>
<path d="M0 0 C2.875 0.375 2.875 0.375 4.875 2.375 C5.47632958 5.8455307 5.61286782 8.25959172 3.61914062 11.2734375 C1.87161336 13.24836867 0.04202986 15.0644718 -1.875 16.875 C-2.82632812 17.84179688 -2.82632812 17.84179688 -3.796875 18.828125 C-7.3506482 22.29305387 -7.3506482 22.29305387 -9.125 23.375 C-11.27832031 23.23242188 -11.27832031 23.23242188 -13.125 22.375 C-14.37997957 18.6100613 -14.64564444 16.34491382 -14.125 12.375 C-12.09757113 9.38955529 -9.67054498 6.92054498 -7.125 4.375 C-6.444375 3.55 -5.76375 2.725 -5.0625 1.875 C-3.125 0.375 -3.125 0.375 0 0 Z " fill="#FEDCCD" transform="translate(473.125,295.625)"/>
<path d="M0 0 C0 3 0 3 -2.625 5.91796875 C-3.74249406 7.01550756 -4.86785643 8.10507895 -6 9.1875 C-6.57234375 9.74630859 -7.1446875 10.30511719 -7.734375 10.88085938 C-9.14962788 12.26073093 -10.57397155 13.63126734 -12 15 C-13.29110061 12.41779878 -13.00139227 10.61894283 -12.2109375 7.88671875 C-9.55520302 3.74891309 -4.34311106 1.98272462 0 0 Z " fill="#FA5959" transform="translate(428,354)"/>
</svg>
