<?xml version="1.0" encoding="UTF-8"?>
<svg version="1.1" xmlns="http://www.w3.org/2000/svg" width="512" height="512">
<path d="M0 0 C0.98484375 0.78117187 1.9696875 1.56234375 2.984375 2.3671875 C17.02570546 13.74322456 30.11687721 26.71011244 40.77636719 41.32324219 C42.0242756 43.03326513 43.29600266 44.72365149 44.5703125 46.4140625 C50.850799 54.85413813 56.06694141 63.7193148 61 73 C61.33741211 73.62036133 61.67482422 74.24072266 62.02246094 74.87988281 C91.93625469 130.06718426 95.69084669 198.68470339 78.1875 258.375 C69.80341433 285.67926336 56.08664516 311.90038045 38 334 C36.7934375 335.51207031 36.7934375 335.51207031 35.5625 337.0546875 C19.10669313 357.3592097 -0.02926376 372.99419387 -21.703125 387.32421875 C-22.48333008 387.84072998 -23.26353516 388.35724121 -24.06738281 388.8894043 C-26 390 -26 390 -28 390 C-28.33 390.66 -28.66 391.32 -29 392 C-31.27255979 393.29081396 -33.5310886 394.47678046 -35.875 395.625 C-36.57520264 395.97111328 -37.27540527 396.31722656 -37.99682617 396.67382812 C-43.69695502 399.44980401 -49.47869524 402.01869884 -55.3125 404.5 C-56.13024902 404.8501416 -56.94799805 405.2002832 -57.79052734 405.56103516 C-58.55703613 405.88120605 -59.32354492 406.20137695 -60.11328125 406.53125 C-60.79173096 406.81548828 -61.47018066 407.09972656 -62.16918945 407.39257812 C-64 408 -64 408 -67 408 C-67.33 408.66 -67.66 409.32 -68 410 C-70.64860427 410.59355614 -73.29197322 410.74209269 -76 411 C-76 411.66 -76 412.32 -76 413 C-76.886875 413.103125 -77.77375 413.20625 -78.6875 413.3125 C-89.74260183 414.88651285 -89.74260183 414.88651285 -100 419 C-100.33 418.67 -100.66 418.34 -101 418 C-103.62837506 418.39796865 -106.20788775 418.8554448 -108.8125 419.375 C-109.90014648 419.58382812 -109.90014648 419.58382812 -111.00976562 419.796875 C-115.06279549 420.57282928 -115.06279549 420.57282928 -119.0534668 421.61181641 C-121 422 -121 422 -124 421 C-124.74886475 421.30389648 -125.49772949 421.60779297 -126.26928711 421.92089844 C-129.56503304 423.2232853 -132.15270331 423.25876277 -135.69140625 423.265625 C-137.60276367 423.26949219 -137.60276367 423.26949219 -139.55273438 423.2734375 C-140.21104248 423.26924805 -140.86935059 423.26505859 -141.54760742 423.26074219 C-143.5600384 423.25001312 -145.57158053 423.26067124 -147.58398438 423.2734375 C-149.4934082 423.26957031 -149.4934082 423.26957031 -151.44140625 423.265625 C-152.60357666 423.26336914 -153.76574707 423.26111328 -154.96313477 423.25878906 C-157.91713066 423.00706178 -159.47403318 422.44736443 -162 421 C-164.36222232 420.76020238 -164.36222232 420.76020238 -166.75 420.875 C-167.54921875 420.89304687 -168.3484375 420.91109375 -169.171875 420.9296875 C-169.77515625 420.95289063 -170.3784375 420.97609375 -171 421 C-171 420.34 -171 419.68 -171 419 C-172.7634375 419.0309375 -172.7634375 419.0309375 -174.5625 419.0625 C-178.45154867 419.06939548 -182.15541451 418.60307223 -186 418 C-186.99 418 -187.98 418 -189 418 C-191.00795609 417.35769417 -193.00629551 416.68526406 -195 416 C-198.05238143 415.08856887 -201.11918862 414.23104145 -204.1875 413.375 C-204.99380859 413.14554687 -205.80011719 412.91609375 -206.63085938 412.6796875 C-207.79391602 412.35484375 -207.79391602 412.35484375 -208.98046875 412.0234375 C-209.68067139 411.82669434 -210.38087402 411.62995117 -211.10229492 411.42724609 C-213.16358954 410.89017969 -213.16358954 410.89017969 -216 411 C-216 410.34 -216 409.68 -216 409 C-216.99 409.33 -217.98 409.66 -219 410 C-219 409.34 -219 408.68 -219 408 C-219.6703125 407.89429688 -220.340625 407.78859375 -221.03125 407.6796875 C-238.71871355 403.63018927 -256.90967976 392.99201065 -271.625 382.65625 C-273.99843264 380.95781168 -273.99843264 380.95781168 -276.6015625 379.45703125 C-278.73539841 378.16074331 -280.5117913 376.83712136 -282.375 375.1875 C-283.26058594 374.4140625 -283.26058594 374.4140625 -284.1640625 373.625 C-285.41004284 372.52217485 -286.65479459 371.41796037 -287.8984375 370.3125 C-288.50945312 369.77625 -289.12046875 369.24 -289.75 368.6875 C-290.30171875 368.19636719 -290.8534375 367.70523437 -291.421875 367.19921875 C-293.10624145 365.78558375 -293.10624145 365.78558375 -296 365 C-297.33203125 363.64453125 -297.33203125 363.64453125 -298.8125 361.8125 C-304.02814411 355.64140384 -309.85601936 350.05933998 -315.59887695 344.38525391 C-317.67169244 342.33591516 -319.56954833 340.31362125 -321.4375 338.0625 C-323.77116937 335.16218532 -323.77116937 335.16218532 -325.6875 333.375 C-327.25670627 331.73106963 -327.98461967 330.03076065 -329 328 C-330.32255312 326.32476605 -331.65705519 324.65893182 -333 323 C-334.33333333 321 -335.66666667 319 -337 317 C-337.66 316.34 -338.32 315.68 -339 315 C-339.67886218 313.33826345 -340.3429852 311.67049507 -341 310 C-342.18345091 307.71610039 -343.39324623 305.44571525 -344.625 303.1875 C-345.11226563 302.2912793 -345.11226563 302.2912793 -345.609375 301.37695312 C-346.40379151 299.91662865 -347.20155376 298.45812509 -348 297 C-348.66 297 -349.32 297 -350 297 C-350.11214844 296.29101562 -350.22429687 295.58203125 -350.33984375 294.8515625 C-351.28252228 290.77963748 -353.12885837 287.27176597 -354.94140625 283.5234375 C-356 281 -356 281 -356 278 C-356.99 277.67 -357.98 277.34 -359 277 C-359.12375 275.865625 -359.2475 274.73125 -359.375 273.5625 C-359.58125 272.386875 -359.7875 271.21125 -360 270 C-360.66 269.67 -361.32 269.34 -362 269 C-362.24415936 267.40108031 -362.47744221 265.79995465 -362.66455078 264.19335938 C-363.48286202 258.84277116 -365.25313384 253.64111876 -366.74023438 248.4453125 C-368.34400479 242.73063678 -369.61542948 237.06547193 -370.57250977 231.20605469 C-370.90341042 228.96910489 -370.90341042 228.96910489 -372 227 C-372.29871008 224.01064907 -372.54587887 221.03502409 -372.75390625 218.0390625 C-372.81907944 217.13811859 -372.88425262 216.23717468 -372.95140076 215.30892944 C-373.08875934 213.3940907 -373.22395541 211.47909581 -373.35717773 209.56396484 C-373.55928225 206.67105856 -373.77032146 203.7789072 -373.98242188 200.88671875 C-375.86117538 174.72235076 -375.86117538 174.72235076 -374 171 C-373.86045631 169.56230441 -373.77460137 168.11915288 -373.71875 166.67578125 C-373.68136719 165.81146484 -373.64398438 164.94714844 -373.60546875 164.05664062 C-373.57066406 163.15107422 -373.53585937 162.24550781 -373.5 161.3125 C-373.01622772 148.9942244 -373.01622772 148.9942244 -372 144 C-371.34 143.67 -370.68 143.34 -370 143 C-369.64386444 140.80060338 -369.64386444 140.80060338 -369.56640625 138.15625 C-369.11321668 131.99685588 -367.67655269 126.40713025 -365.9375 120.5 C-365.38080749 118.57386941 -364.82727068 116.64682312 -364.27734375 114.71875 C-364.03234131 113.88279297 -363.78733887 113.04683594 -363.53491211 112.18554688 C-362.88113353 109.88934384 -362.88113353 109.88934384 -363 107 C-362.34 107 -361.68 107 -361 107 C-360.87753906 106.29488281 -360.75507813 105.58976563 -360.62890625 104.86328125 C-358.42719641 94.83934762 -353.43355867 85.59112611 -348.76953125 76.53125 C-347.35686419 73.71215283 -346.12389899 70.94024758 -345 68 C-344 66 -344 66 -342.5625 64.1875 C-340.89866546 62.05739929 -340.89866546 62.05739929 -340.0625 59.5 C-339 57 -339 57 -337.19140625 55.22265625 C-334.66660552 52.66185123 -332.83757812 49.94852766 -330.875 46.9375 C-330.19179688 45.89464844 -329.50859375 44.85179688 -328.8046875 43.77734375 C-328.20914063 42.86082031 -327.61359375 41.94429688 -327 41 C-324.92806017 37.89209026 -322.65317038 35.62227465 -320 33 C-318.3457796 31.1951514 -316.70043173 29.38214372 -315.0625 27.5625 C-304.4932931 15.98202498 -293.65184744 5.30039082 -281 -4 C-280.12730469 -4.64453125 -279.25460937 -5.2890625 -278.35546875 -5.953125 C-246.852218 -28.54996399 -210.468269 -43.05712446 -172 -48 C-171.30946533 -48.0942627 -170.61893066 -48.18852539 -169.9074707 -48.28564453 C-109.60973222 -55.49634852 -47.33855698 -37.95018395 0 0 Z M-155 421 C-155 421.33 -155 421.66 -155 422 C-151.37 422 -147.74 422 -144 422 C-144 421.67 -144 421.34 -144 421 C-147.63 421 -151.26 421 -155 421 Z M-143 421 C-143 421.33 -143 421.66 -143 422 C-139.37 422 -135.74 422 -132 422 C-132 421.67 -132 421.34 -132 421 C-135.63 421 -139.26 421 -143 421 Z " fill="#E52226" transform="translate(399,70)"/>
<path d="M0 0 C1.98390464 -0.00486377 3.96780435 -0.01231009 5.95169067 -0.02212524 C11.30925084 -0.04084144 16.66607372 -0.02218012 22.02357602 0.00453901 C27.64649046 0.02727626 33.26937147 0.01894475 38.89231873 0.01504517 C48.33149163 0.01328276 57.77037631 0.03536804 67.20947266 0.07226562 C78.10344092 0.11460802 88.99698741 0.12161599 99.89102131 0.10914171 C110.39678901 0.09773053 120.90240904 0.109073 131.40815544 0.1314888 C135.86762171 0.14074796 140.32699718 0.14254279 144.78647041 0.13831711 C150.04226569 0.13453431 155.2976351 0.15088853 160.55333328 0.1824379 C162.47571106 0.19088194 164.39813222 0.19265288 166.3205204 0.1870575 C190.29509111 0.12789017 190.29509111 0.12789017 199.68139648 9.04150391 C205.14460189 15.26071424 208.42031548 22.07106956 208.43818665 30.44805908 C208.44527145 31.56093796 208.45235626 32.67381683 208.45965576 33.82041931 C208.45717834 35.02678543 208.45470093 36.23315155 208.45214844 37.47607422 C208.45725937 38.75811234 208.4623703 40.04015045 208.46763611 41.36103821 C208.48099242 44.86747004 208.48160829 48.37379386 208.47907281 51.88024616 C208.47800028 54.81478604 208.48289392 57.74930432 208.48767823 60.68383956 C208.4987629 67.61313615 208.49921743 74.54237853 208.49316406 81.47167969 C208.48713163 88.60055032 208.49941898 95.72922322 208.52073413 102.85806012 C208.53840094 108.99418045 208.54434331 115.13023814 208.54109639 121.26638293 C208.53929063 124.92419738 208.541848 128.58187093 208.55581093 132.23966217 C208.57082314 136.32510519 208.56137496 140.41015121 208.54980469 144.49560547 C208.55744843 145.69387466 208.56509216 146.89214386 208.57296753 148.12672424 C208.50790182 158.55456668 206.97037106 167.87585881 199.38842773 175.55712891 C191.40651523 182.9534957 183.81743839 184.89442204 173.04400635 184.89179993 C172.22937384 184.89547661 171.41474134 184.8991533 170.575423 184.90294141 C167.84804575 184.91394695 165.12070665 184.91781674 162.39331055 184.92163086 C160.43675618 184.9278978 158.48020301 184.9345448 156.52365112 184.94154358 C150.10098088 184.96255626 143.67831047 184.9729423 137.25561523 184.98291016 C135.04279315 184.98695854 132.82997119 184.99107548 130.61714935 184.99526024 C120.22195072 185.01430454 109.82675917 185.02853805 99.43154645 185.03687221 C87.43835582 185.04664683 75.44534965 185.07297555 63.45222402 185.1133731 C54.17732311 185.14354114 44.90247506 185.15834168 35.62752604 185.16165322 C30.09007372 185.16400259 24.55281863 185.17294883 19.01541901 185.1981144 C13.80494363 185.22141252 8.59479514 185.22562124 3.38428116 185.21535301 C1.47555325 185.214858 -0.43319085 185.22116833 -2.34186935 185.23490906 C-15.11408063 185.32168863 -24.28850646 184.73592282 -34.03344727 175.67041016 C-39.77643979 169.48854265 -43.0607283 162.4791154 -43.0899353 153.965271 C-43.09846527 152.83556381 -43.10699524 151.70585663 -43.11578369 150.54191589 C-43.11487732 149.3168483 -43.11397095 148.0917807 -43.11303711 146.82958984 C-43.11975433 145.52804459 -43.12647156 144.22649933 -43.13339233 142.88551331 C-43.15101167 139.32537441 -43.15574606 135.76533175 -43.15702391 132.20515347 C-43.15844866 129.97681881 -43.16272445 127.74850837 -43.16801834 125.52017975 C-43.18650696 117.73446611 -43.19469064 109.94882081 -43.19311523 102.16308594 C-43.19191497 94.92510455 -43.21299757 87.6874219 -43.24460256 80.44951606 C-43.27082732 74.21997682 -43.2814799 67.99053475 -43.28020442 61.76094079 C-43.27969649 58.04718273 -43.28528482 54.33369018 -43.30656052 50.61998749 C-43.32967529 46.47220228 -43.32038429 42.32507834 -43.30834961 38.17724609 C-43.31958862 36.96027542 -43.33082764 35.74330475 -43.34240723 34.48945618 C-43.26837302 24.4200493 -41.0890968 15.94969909 -33.94820309 8.55324364 C-23.60352634 -0.24837161 -12.83364147 -0.11070553 0 0 Z " fill="#FEFBFC" transform="translate(166.822509765625,158.25537109375)"/>
<path d="M0 0 C4.01293665 1.91164674 7.41344193 4.44165146 10.9375 7.125 C11.62553711 7.64489502 12.31357422 8.16479004 13.02246094 8.70043945 C15.3515603 10.46271576 17.67626298 12.23065944 20 14 C21.29091553 14.98250732 21.29091553 14.98250732 22.60791016 15.98486328 C26.23980815 18.75011073 29.87074807 21.51660494 33.49975586 24.28564453 C37.98654058 27.70863699 42.47907992 31.12222686 47 34.5 C52.44450616 38.56782389 57.84715805 42.68954342 63.25 46.8125 C71.5360354 53.13425284 79.85148678 59.41447101 88.19970703 65.65380859 C91.13564689 67.84919405 94.06768582 70.04977565 97 72.25 C97.969375 72.97703125 98.93875 73.7040625 99.9375 74.453125 C100.618125 74.96359375 101.29875 75.4740625 102 76 C108.93367026 71.77637134 115.51499631 67.22972204 122.03198242 62.39892578 C126.76985797 58.89039771 131.55342194 55.45503203 136.375 52.0625 C137.08422607 51.56331055 137.79345215 51.06412109 138.52416992 50.54980469 C140.68213161 49.03227821 142.84100052 47.51604953 145 46 C153.64211114 39.92641117 162.26111999 33.8258747 170.8125 27.625 C177.49026072 22.78981205 184.19758156 17.99820526 190.9375 13.25 C192.22587769 12.33661865 192.22587769 12.33661865 193.5402832 11.40478516 C194.34038818 10.8432373 195.14049316 10.28168945 195.96484375 9.703125 C197.02626587 8.95530762 197.02626587 8.95530762 198.10913086 8.19238281 C200 7 200 7 203 6 C203.07007653 20.66425048 203.12298149 35.32847881 203.15543652 49.9928627 C203.1709064 56.8017766 203.19199811 63.61058647 203.22631836 70.41943359 C203.25940964 76.98759481 203.27684241 83.55567617 203.28463173 90.12392426 C203.29018433 92.63261366 203.30102688 95.14129701 203.31719017 97.64994049 C203.33889654 101.15770874 203.34196971 104.66502721 203.34057617 108.17285156 C203.351362 109.21510391 203.36214783 110.25735626 203.3732605 111.33119202 C203.36913651 112.28749008 203.36501251 113.24378815 203.36076355 114.22906494 C203.36352893 115.05867863 203.36629431 115.88829231 203.36914349 116.74304581 C202.87837249 119.74363418 202.29821537 120.9741647 200 123 C197.26150442 123.39879499 194.92114884 123.5360373 192.18054199 123.50120544 C191.3756356 123.50673984 190.57072921 123.51227424 189.74143171 123.51797634 C187.03499259 123.53162724 184.32946862 123.51659 181.62304688 123.50170898 C179.68660591 123.50549055 177.75016764 123.51098925 175.81373596 123.51808167 C170.54723678 123.53207468 165.28106289 123.52083952 160.01458168 123.50437045 C154.5106542 123.49054864 149.00674617 123.49697675 143.50280762 123.50050354 C134.25881693 123.50320794 125.01495593 123.48971032 115.77099609 123.46655273 C105.07421904 123.43994159 94.37765885 123.43819506 83.68086004 123.4499411 C73.40310222 123.46070954 63.12542308 123.45453915 52.84767151 123.44038582 C48.46812588 123.4346179 44.08863768 123.43471502 39.70909119 123.43945122 C34.55447531 123.44421344 29.40009778 123.43415068 24.24552727 123.41249657 C22.35042563 123.40691821 20.45530114 123.40647296 18.56019783 123.41144943 C15.97968415 123.41737737 13.39990533 123.40494554 10.81945801 123.38768005 C10.06372608 123.3936901 9.30799415 123.39970014 8.52936125 123.40589231 C5.65435134 123.3707437 3.51413769 123.31822378 1.0338316 121.78304672 C-0.33391875 119.42409118 -0.36930889 117.80953742 -0.36076355 115.08357239 C-0.36488754 114.06974991 -0.36901154 113.05592743 -0.3732605 112.01138306 C-0.36247467 110.90008026 -0.35168884 109.78877747 -0.34057617 108.64379883 C-0.34123329 106.88749901 -0.34123329 106.88749901 -0.34190369 105.09571838 C-0.34017069 101.88509815 -0.32511638 98.67486924 -0.30418181 95.4643271 C-0.28543902 92.10910378 -0.28366647 88.75387293 -0.28010559 85.39860535 C-0.27077804 79.04500644 -0.24615477 72.69156223 -0.21605712 66.33803147 C-0.18253511 59.10474773 -0.16603266 51.87145664 -0.15097082 44.63811457 C-0.11960574 29.75865682 -0.06683156 14.87934388 0 0 Z " fill="#E52226" transform="translate(148,196)"/>
<path d="M0 0 C55.11 0 110.22 0 167 0 C164.20803646 2.79196354 162.02399158 4.82601726 158.8671875 6.99609375 C158.07054687 7.5478125 157.27390625 8.09953125 156.453125 8.66796875 C155.60234375 9.25191406 154.7515625 9.83585938 153.875 10.4375 C152.05910222 11.69546977 150.24401381 12.95460857 148.4296875 14.21484375 C147.51670898 14.84890137 146.60373047 15.48295898 145.66308594 16.13623047 C141.74292312 18.87976942 137.86947876 21.68563667 134 24.5 C127.71211843 29.0667461 121.37561587 33.5565936 115 38 C106.81595158 43.704735 98.70170049 49.49986089 90.625 55.35546875 C89.98175781 55.81743652 89.33851563 56.2794043 88.67578125 56.75537109 C86.87118284 58.05973217 86.87118284 58.05973217 84.8125 59.92578125 C83 61 83 61 80.71875 61.03515625 C76.75210988 59.52486942 73.79683569 57.07288341 70.5 54.4375 C68.97694094 53.24691155 67.45348532 52.05683028 65.9296875 50.8671875 C65.12756836 50.23651367 64.32544922 49.60583984 63.49902344 48.95605469 C59.2369013 45.61997393 54.93091545 42.34173952 50.625 39.0625 C49.74158936 38.38840088 48.85817871 37.71430176 47.94799805 37.01977539 C42.11313866 32.57728333 36.23008021 28.20648773 30.3125 23.875 C23.80552683 19.10859772 17.37176802 14.25838635 11 9.3125 C10.23985596 8.72388184 9.47971191 8.13526367 8.6965332 7.52880859 C7.64018677 6.70437256 7.64018677 6.70437256 6.5625 5.86328125 C5.63630859 5.14072144 5.63630859 5.14072144 4.69140625 4.40356445 C3.04089429 3.03393494 1.51658741 1.51658741 0 0 Z " fill="#E52428" transform="translate(170,182)"/>
<path d="M0 0 C0.33 0 0.66 0 1 0 C1.96365512 4.03059229 2.27946955 8.02537513 2.5949707 12.14379883 C6.063353 56.6877928 21.95208443 99.06469159 49.64501953 134.27050781 C50.80151485 135.74665427 51.9327719 137.24251589 53.05859375 138.7421875 C65.37182356 154.6478083 80.5655019 168.48932971 97 180 C97.61617188 180.43957031 98.23234375 180.87914062 98.8671875 181.33203125 C124.63750618 199.63669967 153.67383833 211.91581724 184.625 218.1875 C185.85734375 218.44724609 187.0896875 218.70699219 188.359375 218.97460938 C199.03414156 221.16735601 209.47480547 222.14692275 220.36328125 222.23828125 C221.79319649 222.25038887 221.79319649 222.25038887 223.2519989 222.26274109 C225.25953415 222.2764698 227.26709165 222.2872412 229.2746582 222.29516602 C231.28026426 222.30661004 233.28584172 222.32693938 235.29125977 222.35668945 C249.12079587 222.56081966 262.03668021 221.41950983 275.56788635 218.52075195 C278.77267322 217.83455909 281.98676577 217.1981513 285.20137024 216.55982971 C301.28557868 213.2469629 316.17845919 206.92582905 331 200 C331.6791748 199.68836914 332.35834961 199.37673828 333.05810547 199.05566406 C354.26958836 189.27052795 373.18647188 175.11486299 390 159 C390.58539551 158.44715332 391.17079102 157.89430664 391.77392578 157.32470703 C405.70292311 144.12167482 417.07596915 129.40116548 427 113 C428.01320313 111.32550781 428.01320313 111.32550781 429.046875 109.6171875 C436.65851408 96.66560007 442.68644976 83.30900919 447.8125 69.1875 C448.18560303 68.16229248 448.55870605 67.13708496 448.94311523 66.08081055 C452.92284223 54.84929705 455.39727363 43.66184 457.0625 31.875 C457.23168945 30.70735107 457.40087891 29.53970215 457.57519531 28.33666992 C458.92024827 18.91158065 460.05884476 9.47347053 461 0 C461.33 0 461.66 0 462 0 C463.76627346 52.00694078 444.89539839 105.80593509 412 146 C411.195625 147.00804687 410.39125 148.01609375 409.5625 149.0546875 C393.10669313 169.3592097 373.97073624 184.99419387 352.296875 199.32421875 C351.51666992 199.84072998 350.73646484 200.35724121 349.93261719 200.8894043 C348 202 348 202 346 202 C345.67 202.66 345.34 203.32 345 204 C342.72744021 205.29081396 340.4689114 206.47678046 338.125 207.625 C337.42479736 207.97111328 336.72459473 208.31722656 336.00317383 208.67382812 C330.30304498 211.44980401 324.52130476 214.01869884 318.6875 216.5 C317.86975098 216.8501416 317.05200195 217.2002832 316.20947266 217.56103516 C315.05970947 218.0412915 315.05970947 218.0412915 313.88671875 218.53125 C313.20826904 218.81548828 312.52981934 219.09972656 311.83081055 219.39257812 C310 220 310 220 307 220 C306.67 220.66 306.34 221.32 306 222 C303.35139573 222.59355614 300.70802678 222.74209269 298 223 C298 223.66 298 224.32 298 225 C297.113125 225.103125 296.22625 225.20625 295.3125 225.3125 C284.25739817 226.88651285 284.25739817 226.88651285 274 231 C273.67 230.67 273.34 230.34 273 230 C270.37162494 230.39796865 267.79211225 230.8554448 265.1875 231.375 C264.09985352 231.58382812 264.09985352 231.58382812 262.99023438 231.796875 C258.93720451 232.57282928 258.93720451 232.57282928 254.9465332 233.61181641 C253 234 253 234 250 233 C249.25113525 233.30389648 248.50227051 233.60779297 247.73071289 233.92089844 C244.43496696 235.2232853 241.84729669 235.25876277 238.30859375 235.265625 C236.39723633 235.26949219 236.39723633 235.26949219 234.44726562 235.2734375 C233.45980347 235.26715332 233.45980347 235.26715332 232.45239258 235.26074219 C230.4399616 235.25001312 228.42841947 235.26067124 226.41601562 235.2734375 C225.14306641 235.27085937 223.87011719 235.26828125 222.55859375 235.265625 C221.39642334 235.26336914 220.23425293 235.26111328 219.03686523 235.25878906 C216.08286934 235.00706178 214.52596682 234.44736443 212 233 C209.63777768 232.76020238 209.63777768 232.76020238 207.25 232.875 C206.45078125 232.89304687 205.6515625 232.91109375 204.828125 232.9296875 C204.22484375 232.95289063 203.6215625 232.97609375 203 233 C203 232.34 203 231.68 203 231 C201.2365625 231.0309375 201.2365625 231.0309375 199.4375 231.0625 C195.54845133 231.06939548 191.84458549 230.60307223 188 230 C187.01 230 186.02 230 185 230 C182.99204391 229.35769417 180.99370449 228.68526406 179 228 C175.94761857 227.08856887 172.88081138 226.23104145 169.8125 225.375 C169.00619141 225.14554688 168.19988281 224.91609375 167.36914062 224.6796875 C166.59376953 224.463125 165.81839844 224.2465625 165.01953125 224.0234375 C164.31932861 223.82669434 163.61912598 223.62995117 162.89770508 223.42724609 C160.83641046 222.89017969 160.83641046 222.89017969 158 223 C158 222.34 158 221.68 158 221 C157.01 221.33 156.02 221.66 155 222 C155 221.34 155 220.68 155 220 C154.3296875 219.89429688 153.659375 219.78859375 152.96875 219.6796875 C135.28128645 215.63018927 117.09032024 204.99201065 102.375 194.65625 C100.00156736 192.95781168 100.00156736 192.95781168 97.3984375 191.45703125 C95.26460159 190.16074331 93.4882087 188.83712136 91.625 187.1875 C90.73941406 186.4140625 90.73941406 186.4140625 89.8359375 185.625 C88.58995716 184.52217485 87.34520541 183.41796037 86.1015625 182.3125 C85.49054688 181.77625 84.87953125 181.24 84.25 180.6875 C83.69828125 180.19636719 83.1465625 179.70523438 82.578125 179.19921875 C80.89375855 177.78558375 80.89375855 177.78558375 78 177 C76.66796875 175.64453125 76.66796875 175.64453125 75.1875 173.8125 C69.97185589 167.64140384 64.14398064 162.05933998 58.40112305 156.38525391 C56.32830756 154.33591516 54.43045167 152.31362125 52.5625 150.0625 C50.22883063 147.16218532 50.22883063 147.16218532 48.3125 145.375 C46.74329373 143.73106963 46.01538033 142.03076065 45 140 C43.67744688 138.32476605 42.34294481 136.65893182 41 135 C39.66666667 133 38.33333333 131 37 129 C36.01 128.01 36.01 128.01 35 127 C34.32113782 125.33826345 33.6570148 123.67049507 33 122 C31.81654909 119.71610039 30.60675377 117.44571525 29.375 115.1875 C29.05015625 114.59001953 28.7253125 113.99253906 28.390625 113.37695312 C27.59620849 111.91662865 26.79844624 110.45812509 26 109 C25.34 109 24.68 109 24 109 C23.88785156 108.29101562 23.77570312 107.58203125 23.66015625 106.8515625 C22.71747772 102.77963748 20.87114163 99.27176597 19.05859375 95.5234375 C18 93 18 93 18 90 C16.515 89.505 16.515 89.505 15 89 C14.87625 87.865625 14.7525 86.73125 14.625 85.5625 C14.41875 84.386875 14.2125 83.21125 14 82 C13.34 81.67 12.68 81.34 12 81 C11.75584064 79.40108031 11.52255779 77.79995465 11.33544922 76.19335938 C10.51713798 70.84277116 8.74686616 65.64111876 7.25976562 60.4453125 C5.65599521 54.73063678 4.38457052 49.06547193 3.42749023 43.20605469 C3.09658958 40.96910489 3.09658958 40.96910489 2 39 C1.49534421 34.91091971 1.24441752 30.79564782 0.9375 26.6875 C0.80118164 25.00430664 0.80118164 25.00430664 0.66210938 23.28710938 C0.06803168 15.51049836 -0.10878323 7.797743 0 0 Z M219 233 C219 233.33 219 233.66 219 234 C222.63 234 226.26 234 230 234 C230 233.67 230 233.34 230 233 C226.37 233 222.74 233 219 233 Z M231 233 C231 233.33 231 233.66 231 234 C234.63 234 238.26 234 242 234 C242 233.67 242 233.34 242 233 C238.37 233 234.74 233 231 233 Z " fill="#FEF5F5" transform="translate(25,258)"/>
<path d="M0 0 C0.33 0 0.66 0 1 0 C1.71097132 3.31049475 2.19578462 6.53979093 2.46484375 9.9140625 C2.54178467 10.83525879 2.61872559 11.75645508 2.69799805 12.70556641 C2.77703369 13.66897949 2.85606934 14.63239258 2.9375 15.625 C3.52051378 22.50085198 4.17465762 29.23844524 5.73046875 35.9765625 C6.03337869 38.25058207 5.69244514 39.82935638 5 42 C2.78992298 40.24514616 2.0588525 39.2830512 1.47583008 36.47900391 C1.40775146 35.48819824 1.33967285 34.49739258 1.26953125 33.4765625 C1.18896484 32.37183594 1.10839844 31.26710938 1.02539062 30.12890625 C0.95513672 28.97261719 0.88488281 27.81632812 0.8125 26.625 C0.73064453 25.50738281 0.64878906 24.38976562 0.56445312 23.23828125 C0.03231539 15.48427419 -0.09386027 7.7703465 0 0 Z " fill="#FAD0D1" transform="translate(25,258)"/>
<path d="M0 0 C0.33 0 0.66 0 1 0 C1.21915315 6.05106191 1.18220673 11.30201576 -1 17 C-1.66 17.33 -2.32 17.66 -3 18 C-2.67352516 14.99921002 -2.33790914 11.99952226 -2 9 C-1.91621094 8.2265625 -1.83242188 7.453125 -1.74609375 6.65625 C-1.11349693 1.11349693 -1.11349693 1.11349693 0 0 Z " fill="#FBDDDE" transform="translate(484,283)"/>
<path d="M0 0 C9.24 0 18.48 0 28 0 C28 0.33 28 0.66 28 1 C18.76 1 9.52 1 0 1 C0 0.67 0 0.34 0 0 Z " fill="#F3999B" transform="translate(242,19)"/>
<path d="M0 0 C0.33 0 0.66 0 1 0 C1 1.65 1 3.3 1 5 C0.67 5 0.34 5 0 5 C0 3.35 0 1.7 0 0 Z " fill="#F3999B" transform="translate(487,275)"/>
<path d="M0 0 C0.33 0 0.66 0 1 0 C1 1.65 1 3.3 1 5 C0.67 5 0.34 5 0 5 C0 3.35 0 1.7 0 0 Z " fill="#F3999B" transform="translate(24,275)"/>
<path d="M0 0 C0.33 0 0.66 0 1 0 C1 1.65 1 3.3 1 5 C0.67 5 0.34 5 0 5 C0 3.35 0 1.7 0 0 Z " fill="#F3999B" transform="translate(487,232)"/>
<path d="M0 0 C0.33 0 0.66 0 1 0 C1 1.65 1 3.3 1 5 C0.67 5 0.34 5 0 5 C0 3.35 0 1.7 0 0 Z " fill="#F3999B" transform="translate(24,232)"/>
<path d="M0 0 C4 1 4 1 4 1 Z " fill="#F3999B" transform="translate(230,491)"/>
<path d="M0 0 C1 4 1 4 1 4 Z " fill="#F3999B" transform="translate(486,286)"/>
<path d="M0 0 C1 4 1 4 1 4 Z " fill="#F3999B" transform="translate(25,286)"/>
<path d="M0 0 C1 4 1 4 1 4 Z " fill="#F3999B" transform="translate(486,222)"/>
<path d="M0 0 C1 4 1 4 1 4 Z " fill="#F3999B" transform="translate(25,222)"/>
<path d="M0 0 C4 1 4 1 4 1 Z " fill="#F3999B" transform="translate(278,20)"/>
<path d="M0 0 C4 1 4 1 4 1 Z " fill="#F3999B" transform="translate(230,20)"/>
<path d="M0 0 C3 1 3 1 3 1 Z " fill="#F3999B" transform="translate(293,489)"/>
<path d="M0 0 C3 1 3 1 3 1 Z " fill="#F3999B" transform="translate(216,489)"/>
<path d="M0 0 C3 1 3 1 3 1 Z " fill="#F3999B" transform="translate(293,22)"/>
<path d="M0 0 C3 1 3 1 3 1 Z " fill="#F3999B" transform="translate(216,22)"/>
<path d="M0 0 C2 1 2 1 2 1 Z " fill="#F3999B" transform="translate(287,490)"/>
<path d="M0 0 C2 1 2 1 2 1 Z " fill="#F3999B" transform="translate(223,490)"/>
<path d="M0 0 C2 1 2 1 2 1 Z " fill="#F3999B" transform="translate(304,487)"/>
<path d="M0 0 C2 1 2 1 2 1 Z " fill="#F3999B" transform="translate(206,487)"/>
<path d="M0 0 C2 1 2 1 2 1 Z " fill="#F3999B" transform="translate(308,486)"/>
<path d="M0 0 C2 1 2 1 2 1 Z " fill="#F3999B" transform="translate(202,486)"/>
<path d="M0 0 C2 1 2 1 2 1 Z " fill="#F3999B" transform="translate(316,484)"/>
<path d="M0 0 C2 1 2 1 2 1 Z " fill="#F3999B" transform="translate(194,484)"/>
<path d="M0 0 C2 1 2 1 2 1 Z " fill="#F3999B" transform="translate(187,482)"/>
<path d="" fill="#F3999B" transform="translate(0,0)"/>
<path d="" fill="#F3999B" transform="translate(0,0)"/>
<path d="" fill="#F3999B" transform="translate(0,0)"/>
<path d="" fill="#F3999B" transform="translate(0,0)"/>
<path d="" fill="#F3999B" transform="translate(0,0)"/>
<path d="" fill="#F3999B" transform="translate(0,0)"/>
<path d="" fill="#F3999B" transform="translate(0,0)"/>
<path d="" fill="#F3999B" transform="translate(0,0)"/>
<path d="" fill="#F3999B" transform="translate(0,0)"/>
<path d="" fill="#F3999B" transform="translate(0,0)"/>
<path d="" fill="#F3999B" transform="translate(0,0)"/>
<path d="" fill="#F3999B" transform="translate(0,0)"/>
<path d="" fill="#F3999B" transform="translate(0,0)"/>
<path d="" fill="#F3999B" transform="translate(0,0)"/>
<path d="" fill="#F3999B" transform="translate(0,0)"/>
<path d="" fill="#F3999B" transform="translate(0,0)"/>
<path d="M0 0 C2 1 2 1 2 1 Z " fill="#F3999B" transform="translate(187,29)"/>
<path d="M0 0 C2 1 2 1 2 1 Z " fill="#F3999B" transform="translate(194,27)"/>
<path d="M0 0 C2 1 2 1 2 1 Z " fill="#F3999B" transform="translate(308,25)"/>
<path d="M0 0 C2 1 2 1 2 1 Z " fill="#F3999B" transform="translate(202,25)"/>
<path d="M0 0 C2 1 2 1 2 1 Z " fill="#F3999B" transform="translate(304,24)"/>
<path d="M0 0 C2 1 2 1 2 1 Z " fill="#F3999B" transform="translate(206,24)"/>
<path d="M0 0 C2 1 2 1 2 1 Z " fill="#F3999B" transform="translate(299,23)"/>
<path d="M0 0 C2 1 2 1 2 1 Z " fill="#F3999B" transform="translate(211,23)"/>
<path d="M0 0 C2 1 2 1 2 1 Z " fill="#F3999B" transform="translate(287,21)"/>
<path d="M0 0 C2 1 2 1 2 1 Z " fill="#F3999B" transform="translate(223,21)"/>
<path d="" fill="#F3999B" transform="translate(0,0)"/>
<path d="" fill="#F3999B" transform="translate(0,0)"/>
<path d="" fill="#F3999B" transform="translate(0,0)"/>
<path d="" fill="#F3999B" transform="translate(0,0)"/>
<path d="" fill="#F3999B" transform="translate(0,0)"/>
<path d="" fill="#F3999B" transform="translate(0,0)"/>
<path d="" fill="#F3999B" transform="translate(0,0)"/>
<path d="" fill="#F3999B" transform="translate(0,0)"/>
<path d="" fill="#F3999B" transform="translate(0,0)"/>
<path d="" fill="#F3999B" transform="translate(0,0)"/>
<path d="" fill="#F3999B" transform="translate(0,0)"/>
<path d="" fill="#F3999B" transform="translate(0,0)"/>
<path d="" fill="#F3999B" transform="translate(0,0)"/>
<path d="" fill="#F3999B" transform="translate(0,0)"/>
<path d="" fill="#F3999B" transform="translate(0,0)"/>
<path d="" fill="#F3999B" transform="translate(0,0)"/>
<path d="" fill="#F3999B" transform="translate(0,0)"/>
<path d="" fill="#F3999B" transform="translate(0,0)"/>
<path d="" fill="#F3999B" transform="translate(0,0)"/>
<path d="" fill="#F3999B" transform="translate(0,0)"/>
<path d="" fill="#F3999B" transform="translate(0,0)"/>
<path d="" fill="#F3999B" transform="translate(0,0)"/>
<path d="" fill="#F3999B" transform="translate(0,0)"/>
<path d="" fill="#F3999B" transform="translate(0,0)"/>
<path d="" fill="#F3999B" transform="translate(0,0)"/>
<path d="" fill="#F3999B" transform="translate(0,0)"/>
<path d="" fill="#F3999B" transform="translate(0,0)"/>
<path d="" fill="#F3999B" transform="translate(0,0)"/>
<path d="" fill="#F3999B" transform="translate(0,0)"/>
<path d="" fill="#F3999B" transform="translate(0,0)"/>
<path d="" fill="#F3999B" transform="translate(0,0)"/>
<path d="" fill="#F3999B" transform="translate(0,0)"/>
<path d="" fill="#F3999B" transform="translate(0,0)"/>
<path d="" fill="#F3999B" transform="translate(0,0)"/>
<path d="" fill="#F3999B" transform="translate(0,0)"/>
<path d="" fill="#F3999B" transform="translate(0,0)"/>
<path d="" fill="#F3999B" transform="translate(0,0)"/>
<path d="" fill="#F3999B" transform="translate(0,0)"/>
<path d="" fill="#F3999B" transform="translate(0,0)"/>
<path d="" fill="#F3999B" transform="translate(0,0)"/>
<path d="" fill="#F3999B" transform="translate(0,0)"/>
<path d="" fill="#F3999B" transform="translate(0,0)"/>
<path d="" fill="#F3999B" transform="translate(0,0)"/>
<path d="" fill="#F3999B" transform="translate(0,0)"/>
<path d="" fill="#F3999B" transform="translate(0,0)"/>
<path d="" fill="#F3999B" transform="translate(0,0)"/>
<path d="" fill="#F3999B" transform="translate(0,0)"/>
<path d="" fill="#F3999B" transform="translate(0,0)"/>
<path d="" fill="#F3999B" transform="translate(0,0)"/>
<path d="" fill="#F3999B" transform="translate(0,0)"/>
<path d="" fill="#F3999B" transform="translate(0,0)"/>
<path d="" fill="#F3999B" transform="translate(0,0)"/>
<path d="" fill="#F3999B" transform="translate(0,0)"/>
<path d="" fill="#F3999B" transform="translate(0,0)"/>
<path d="" fill="#F3999B" transform="translate(0,0)"/>
<path d="" fill="#F3999B" transform="translate(0,0)"/>
<path d="" fill="#F3999B" transform="translate(0,0)"/>
<path d="" fill="#F3999B" transform="translate(0,0)"/>
<path d="" fill="#F3999B" transform="translate(0,0)"/>
<path d="" fill="#F3999B" transform="translate(0,0)"/>
<path d="" fill="#F3999B" transform="translate(0,0)"/>
<path d="" fill="#F3999B" transform="translate(0,0)"/>
<path d="" fill="#F3999B" transform="translate(0,0)"/>
<path d="" fill="#F3999B" transform="translate(0,0)"/>
<path d="" fill="#F3999B" transform="translate(0,0)"/>
<path d="" fill="#F3999B" transform="translate(0,0)"/>
<path d="" fill="#F3999B" transform="translate(0,0)"/>
<path d="" fill="#F3999B" transform="translate(0,0)"/>
<path d="" fill="#F3999B" transform="translate(0,0)"/>
<path d="" fill="#F3999B" transform="translate(0,0)"/>
<path d="" fill="#F3999B" transform="translate(0,0)"/>
<path d="" fill="#F3999B" transform="translate(0,0)"/>
<path d="" fill="#F3999B" transform="translate(0,0)"/>
<path d="" fill="#F3999B" transform="translate(0,0)"/>
<path d="" fill="#F3999B" transform="translate(0,0)"/>
<path d="" fill="#F3999B" transform="translate(0,0)"/>
<path d="" fill="#F3999B" transform="translate(0,0)"/>
<path d="" fill="#F3999B" transform="translate(0,0)"/>
<path d="" fill="#F3999B" transform="translate(0,0)"/>
<path d="" fill="#F3999B" transform="translate(0,0)"/>
<path d="" fill="#F3999B" transform="translate(0,0)"/>
<path d="" fill="#F3999B" transform="translate(0,0)"/>
<path d="" fill="#F3999B" transform="translate(0,0)"/>
<path d="" fill="#F3999B" transform="translate(0,0)"/>
<path d="" fill="#F3999B" transform="translate(0,0)"/>
<path d="" fill="#F3999B" transform="translate(0,0)"/>
<path d="" fill="#F3999B" transform="translate(0,0)"/>
<path d="" fill="#F3999B" transform="translate(0,0)"/>
<path d="" fill="#F3999B" transform="translate(0,0)"/>
<path d="" fill="#F3999B" transform="translate(0,0)"/>
<path d="" fill="#F3999B" transform="translate(0,0)"/>
<path d="" fill="#F3999B" transform="translate(0,0)"/>
<path d="" fill="#F3999B" transform="translate(0,0)"/>
<path d="" fill="#F3999B" transform="translate(0,0)"/>
<path d="" fill="#F3999B" transform="translate(0,0)"/>
<path d="" fill="#F3999B" transform="translate(0,0)"/>
<path d="" fill="#F3999B" transform="translate(0,0)"/>
<path d="" fill="#F3999B" transform="translate(0,0)"/>
<path d="" fill="#F3999B" transform="translate(0,0)"/>
<path d="" fill="#F3999B" transform="translate(0,0)"/>
<path d="" fill="#F3999B" transform="translate(0,0)"/>
<path d="" fill="#F3999B" transform="translate(0,0)"/>
<path d="" fill="#F3999B" transform="translate(0,0)"/>
<path d="" fill="#F3999B" transform="translate(0,0)"/>
<path d="" fill="#F3999B" transform="translate(0,0)"/>
<path d="" fill="#F3999B" transform="translate(0,0)"/>
<path d="" fill="#F3999B" transform="translate(0,0)"/>
<path d="" fill="#F3999B" transform="translate(0,0)"/>
<path d="" fill="#F3999B" transform="translate(0,0)"/>
<path d="" fill="#F3999B" transform="translate(0,0)"/>
<path d="" fill="#F3999B" transform="translate(0,0)"/>
<path d="" fill="#F3999B" transform="translate(0,0)"/>
<path d="" fill="#F3999B" transform="translate(0,0)"/>
<path d="" fill="#F3999B" transform="translate(0,0)"/>
<path d="" fill="#F3999B" transform="translate(0,0)"/>
<path d="" fill="#F3999B" transform="translate(0,0)"/>
<path d="" fill="#F3999B" transform="translate(0,0)"/>
<path d="" fill="#F3999B" transform="translate(0,0)"/>
<path d="" fill="#F3999B" transform="translate(0,0)"/>
<path d="" fill="#F3999B" transform="translate(0,0)"/>
<path d="" fill="#F3999B" transform="translate(0,0)"/>
<path d="" fill="#F3999B" transform="translate(0,0)"/>
<path d="" fill="#F3999B" transform="translate(0,0)"/>
<path d="" fill="#F3999B" transform="translate(0,0)"/>
<path d="" fill="#F3999B" transform="translate(0,0)"/>
<path d="" fill="#F3999B" transform="translate(0,0)"/>
<path d="" fill="#F3999B" transform="translate(0,0)"/>
<path d="" fill="#F3999B" transform="translate(0,0)"/>
<path d="" fill="#F3999B" transform="translate(0,0)"/>
<path d="" fill="#F3999B" transform="translate(0,0)"/>
<path d="" fill="#F3999B" transform="translate(0,0)"/>
<path d="" fill="#F3999B" transform="translate(0,0)"/>
<path d="" fill="#F3999B" transform="translate(0,0)"/>
<path d="" fill="#F3999B" transform="translate(0,0)"/>
<path d="" fill="#F3999B" transform="translate(0,0)"/>
<path d="" fill="#F3999B" transform="translate(0,0)"/>
<path d="" fill="#F3999B" transform="translate(0,0)"/>
<path d="" fill="#F3999B" transform="translate(0,0)"/>
<path d="" fill="#F3999B" transform="translate(0,0)"/>
<path d="" fill="#F3999B" transform="translate(0,0)"/>
<path d="" fill="#F3999B" transform="translate(0,0)"/>
<path d="" fill="#F3999B" transform="translate(0,0)"/>
<path d="" fill="#F3999B" transform="translate(0,0)"/>
<path d="" fill="#F3999B" transform="translate(0,0)"/>
<path d="" fill="#F3999B" transform="translate(0,0)"/>
<path d="" fill="#F3999B" transform="translate(0,0)"/>
<path d="" fill="#F3999B" transform="translate(0,0)"/>
<path d="" fill="#F3999B" transform="translate(0,0)"/>
<path d="" fill="#F3999B" transform="translate(0,0)"/>
<path d="" fill="#F3999B" transform="translate(0,0)"/>
<path d="" fill="#F3999B" transform="translate(0,0)"/>
<path d="" fill="#F3999B" transform="translate(0,0)"/>
<path d="" fill="#F3999B" transform="translate(0,0)"/>
<path d="" fill="#F3999B" transform="translate(0,0)"/>
<path d="" fill="#F3999B" transform="translate(0,0)"/>
<path d="" fill="#F3999B" transform="translate(0,0)"/>
<path d="" fill="#F3999B" transform="translate(0,0)"/>
<path d="" fill="#F3999B" transform="translate(0,0)"/>
<path d="" fill="#F3999B" transform="translate(0,0)"/>
<path d="" fill="#F3999B" transform="translate(0,0)"/>
<path d="" fill="#F3999B" transform="translate(0,0)"/>
<path d="" fill="#F3999B" transform="translate(0,0)"/>
<path d="" fill="#F3999B" transform="translate(0,0)"/>
<path d="" fill="#F3999B" transform="translate(0,0)"/>
<path d="" fill="#F3999B" transform="translate(0,0)"/>
<path d="" fill="#F3999B" transform="translate(0,0)"/>
<path d="" fill="#F3999B" transform="translate(0,0)"/>
<path d="" fill="#F3999B" transform="translate(0,0)"/>
<path d="" fill="#F3999B" transform="translate(0,0)"/>
<path d="" fill="#F3999B" transform="translate(0,0)"/>
<path d="" fill="#F3999B" transform="translate(0,0)"/>
<path d="" fill="#F3999B" transform="translate(0,0)"/>
<path d="" fill="#F3999B" transform="translate(0,0)"/>
<path d="" fill="#F3999B" transform="translate(0,0)"/>
<path d="" fill="#F3999B" transform="translate(0,0)"/>
<path d="" fill="#F3999B" transform="translate(0,0)"/>
<path d="" fill="#F3999B" transform="translate(0,0)"/>
<path d="" fill="#F3999B" transform="translate(0,0)"/>
<path d="" fill="#F3999B" transform="translate(0,0)"/>
<path d="" fill="#F3999B" transform="translate(0,0)"/>
<path d="" fill="#F3999B" transform="translate(0,0)"/>
<path d="" fill="#F3999B" transform="translate(0,0)"/>
<path d="" fill="#F3999B" transform="translate(0,0)"/>
<path d="" fill="#F3999B" transform="translate(0,0)"/>
<path d="" fill="#F3999B" transform="translate(0,0)"/>
<path d="" fill="#F3999B" transform="translate(0,0)"/>
<path d="" fill="#F3999B" transform="translate(0,0)"/>
<path d="" fill="#F3999B" transform="translate(0,0)"/>
<path d="" fill="#F3999B" transform="translate(0,0)"/>
<path d="" fill="#F3999B" transform="translate(0,0)"/>
<path d="" fill="#F3999B" transform="translate(0,0)"/>
<path d="" fill="#F3999B" transform="translate(0,0)"/>
<path d="" fill="#F3999B" transform="translate(0,0)"/>
<path d="" fill="#F3999B" transform="translate(0,0)"/>
<path d="" fill="#F3999B" transform="translate(0,0)"/>
<path d="" fill="#F3999B" transform="translate(0,0)"/>
<path d="" fill="#F3999B" transform="translate(0,0)"/>
<path d="" fill="#F3999B" transform="translate(0,0)"/>
<path d="" fill="#F3999B" transform="translate(0,0)"/>
<path d="" fill="#F3999B" transform="translate(0,0)"/>
<path d="" fill="#F3999B" transform="translate(0,0)"/>
<path d="" fill="#F3999B" transform="translate(0,0)"/>
<path d="" fill="#F3999B" transform="translate(0,0)"/>
<path d="" fill="#F3999B" transform="translate(0,0)"/>
<path d="" fill="#F3999B" transform="translate(0,0)"/>
<path d="" fill="#F3999B" transform="translate(0,0)"/>
<path d="" fill="#F3999B" transform="translate(0,0)"/>
<path d="" fill="#F3999B" transform="translate(0,0)"/>
<path d="" fill="#F3999B" transform="translate(0,0)"/>
<path d="" fill="#F3999B" transform="translate(0,0)"/>
<path d="" fill="#F3999B" transform="translate(0,0)"/>
<path d="" fill="#F3999B" transform="translate(0,0)"/>
<path d="" fill="#F3999B" transform="translate(0,0)"/>
<path d="" fill="#F3999B" transform="translate(0,0)"/>
<path d="" fill="#F3999B" transform="translate(0,0)"/>
<path d="" fill="#F3999B" transform="translate(0,0)"/>
<path d="" fill="#F3999B" transform="translate(0,0)"/>
<path d="" fill="#F3999B" transform="translate(0,0)"/>
<path d="" fill="#F3999B" transform="translate(0,0)"/>
<path d="" fill="#F3999B" transform="translate(0,0)"/>
<path d="" fill="#F3999B" transform="translate(0,0)"/>
<path d="" fill="#F3999B" transform="translate(0,0)"/>
<path d="" fill="#F3999B" transform="translate(0,0)"/>
<path d="" fill="#F3999B" transform="translate(0,0)"/>
<path d="" fill="#F3999B" transform="translate(0,0)"/>
<path d="" fill="#F3999B" transform="translate(0,0)"/>
<path d="" fill="#F3999B" transform="translate(0,0)"/>
<path d="" fill="#F3999B" transform="translate(0,0)"/>
<path d="" fill="#F3999B" transform="translate(0,0)"/>
<path d="" fill="#F3999B" transform="translate(0,0)"/>
<path d="" fill="#F3999B" transform="translate(0,0)"/>
<path d="" fill="#F3999B" transform="translate(0,0)"/>
<path d="" fill="#F3999B" transform="translate(0,0)"/>
<path d="" fill="#F3999B" transform="translate(0,0)"/>
<path d="" fill="#F3999B" transform="translate(0,0)"/>
<path d="" fill="#F3999B" transform="translate(0,0)"/>
<path d="" fill="#F3999B" transform="translate(0,0)"/>
<path d="" fill="#F3999B" transform="translate(0,0)"/>
<path d="" fill="#F3999B" transform="translate(0,0)"/>
<path d="" fill="#F3999B" transform="translate(0,0)"/>
<path d="" fill="#F3999B" transform="translate(0,0)"/>
<path d="" fill="#F3999B" transform="translate(0,0)"/>
<path d="" fill="#F3999B" transform="translate(0,0)"/>
<path d="" fill="#F3999B" transform="translate(0,0)"/>
<path d="" fill="#F3999B" transform="translate(0,0)"/>
<path d="" fill="#F3999B" transform="translate(0,0)"/>
<path d="" fill="#F3999B" transform="translate(0,0)"/>
<path d="" fill="#F3999B" transform="translate(0,0)"/>
<path d="" fill="#F3999B" transform="translate(0,0)"/>
<path d="" fill="#F3999B" transform="translate(0,0)"/>
<path d="" fill="#F3999B" transform="translate(0,0)"/>
<path d="" fill="#F3999B" transform="translate(0,0)"/>
<path d="" fill="#F3999B" transform="translate(0,0)"/>
<path d="" fill="#F3999B" transform="translate(0,0)"/>
<path d="" fill="#F3999B" transform="translate(0,0)"/>
<path d="" fill="#F3999B" transform="translate(0,0)"/>
<path d="" fill="#F3999B" transform="translate(0,0)"/>
<path d="" fill="#F3999B" transform="translate(0,0)"/>
<path d="" fill="#F3999B" transform="translate(0,0)"/>
<path d="" fill="#F3999B" transform="translate(0,0)"/>
<path d="" fill="#F3999B" transform="translate(0,0)"/>
<path d="" fill="#F3999B" transform="translate(0,0)"/>
<path d="" fill="#F3999B" transform="translate(0,0)"/>
<path d="" fill="#F3999B" transform="translate(0,0)"/>
<path d="" fill="#F3999B" transform="translate(0,0)"/>
<path d="" fill="#F3999B" transform="translate(0,0)"/>
<path d="" fill="#F3999B" transform="translate(0,0)"/>
<path d="" fill="#F3999B" transform="translate(0,0)"/>
<path d="" fill="#F3999B" transform="translate(0,0)"/>
<path d="" fill="#F3999B" transform="translate(0,0)"/>
<path d="" fill="#F3999B" transform="translate(0,0)"/>
<path d="" fill="#F3999B" transform="translate(0,0)"/>
<path d="" fill="#F3999B" transform="translate(0,0)"/>
<path d="" fill="#F3999B" transform="translate(0,0)"/>
<path d="" fill="#F3999B" transform="translate(0,0)"/>
<path d="" fill="#F3999B" transform="translate(0,0)"/>
<path d="" fill="#F3999B" transform="translate(0,0)"/>
<path d="" fill="#F3999B" transform="translate(0,0)"/>
<path d="" fill="#F3999B" transform="translate(0,0)"/>
<path d="" fill="#F3999B" transform="translate(0,0)"/>
<path d="" fill="#F3999B" transform="translate(0,0)"/>
<path d="" fill="#F3999B" transform="translate(0,0)"/>
<path d="" fill="#F3999B" transform="translate(0,0)"/>
<path d="" fill="#F3999B" transform="translate(0,0)"/>
<path d="" fill="#F3999B" transform="translate(0,0)"/>
<path d="" fill="#F3999B" transform="translate(0,0)"/>
<path d="" fill="#F3999B" transform="translate(0,0)"/>
<path d="" fill="#F3999B" transform="translate(0,0)"/>
<path d="" fill="#F3999B" transform="translate(0,0)"/>
<path d="" fill="#F3999B" transform="translate(0,0)"/>
<path d="" fill="#F3999B" transform="translate(0,0)"/>
<path d="" fill="#F3999B" transform="translate(0,0)"/>
<path d="" fill="#F3999B" transform="translate(0,0)"/>
<path d="" fill="#F3999B" transform="translate(0,0)"/>
<path d="" fill="#F3999B" transform="translate(0,0)"/>
<path d="" fill="#F3999B" transform="translate(0,0)"/>
<path d="" fill="#F3999B" transform="translate(0,0)"/>
<path d="" fill="#F3999B" transform="translate(0,0)"/>
<path d="" fill="#F3999B" transform="translate(0,0)"/>
<path d="" fill="#F3999B" transform="translate(0,0)"/>
<path d="" fill="#F3999B" transform="translate(0,0)"/>
<path d="" fill="#F3999B" transform="translate(0,0)"/>
<path d="" fill="#F3999B" transform="translate(0,0)"/>
<path d="" fill="#F3999B" transform="translate(0,0)"/>
<path d="" fill="#F3999B" transform="translate(0,0)"/>
<path d="" fill="#F3999B" transform="translate(0,0)"/>
<path d="" fill="#F3999B" transform="translate(0,0)"/>
<path d="" fill="#F3999B" transform="translate(0,0)"/>
<path d="" fill="#F3999B" transform="translate(0,0)"/>
<path d="" fill="#F3999B" transform="translate(0,0)"/>
<path d="" fill="#F3999B" transform="translate(0,0)"/>
<path d="" fill="#F3999B" transform="translate(0,0)"/>
<path d="" fill="#F3999B" transform="translate(0,0)"/>
<path d="" fill="#F3999B" transform="translate(0,0)"/>
<path d="" fill="#F3999B" transform="translate(0,0)"/>
<path d="" fill="#F3999B" transform="translate(0,0)"/>
<path d="" fill="#F3999B" transform="translate(0,0)"/>
<path d="" fill="#F3999B" transform="translate(0,0)"/>
<path d="" fill="#F3999B" transform="translate(0,0)"/>
<path d="" fill="#F3999B" transform="translate(0,0)"/>
<path d="" fill="#F3999B" transform="translate(0,0)"/>
<path d="" fill="#F3999B" transform="translate(0,0)"/>
<path d="" fill="#F3999B" transform="translate(0,0)"/>
<path d="" fill="#F3999B" transform="translate(0,0)"/>
<path d="" fill="#F3999B" transform="translate(0,0)"/>
<path d="" fill="#F3999B" transform="translate(0,0)"/>
<path d="" fill="#F3999B" transform="translate(0,0)"/>
<path d="" fill="#F3999B" transform="translate(0,0)"/>
<path d="" fill="#F3999B" transform="translate(0,0)"/>
<path d="" fill="#F3999B" transform="translate(0,0)"/>
<path d="" fill="#F3999B" transform="translate(0,0)"/>
<path d="" fill="#F3999B" transform="translate(0,0)"/>
<path d="" fill="#F3999B" transform="translate(0,0)"/>
<path d="" fill="#F3999B" transform="translate(0,0)"/>
<path d="" fill="#F3999B" transform="translate(0,0)"/>
</svg>
