<?xml version="1.0" encoding="UTF-8"?>
<svg version="1.1" xmlns="http://www.w3.org/2000/svg" width="512" height="512">
<path d="M0 0 C1.29762897 -0.00679667 1.29762897 -0.00679667 2.62147266 -0.01373065 C5.49549154 -0.02630479 8.36931923 -0.02475886 11.24336243 -0.02310181 C13.31374859 -0.02909112 15.38413252 -0.03589759 17.45451355 -0.04345703 C23.05958862 -0.06107567 28.66460258 -0.06581045 34.26970267 -0.0670886 C37.77260009 -0.06851224 41.27548206 -0.07278569 44.77837563 -0.07808304 C57.00092681 -0.09656425 69.22343445 -0.10475537 81.44599915 -0.10317993 C92.83813314 -0.1019766 104.23007826 -0.1231215 115.62216443 -0.15466726 C125.40920423 -0.18080273 135.1961822 -0.19154849 144.98325664 -0.19026911 C150.8262639 -0.18975901 156.66910294 -0.19547028 162.51207542 -0.21662521 C168.00248895 -0.23596341 173.49257286 -0.23616228 178.98299789 -0.22159195 C180.99779936 -0.2194978 183.01262124 -0.22424069 185.02738762 -0.23631287 C187.77743669 -0.25172439 190.52634314 -0.24248466 193.27636719 -0.22705078 C194.07374115 -0.23733791 194.87111512 -0.24762503 195.69265193 -0.25822389 C203.29467244 -0.16391449 207.4560138 3.52684473 212.71791077 8.78366089 C213.62358292 9.68369339 214.52925507 10.58372589 215.46237183 11.5110321 C216.44814485 12.50069284 217.43381338 13.49045766 218.41938782 14.48031616 C219.47078858 15.52900411 220.52261375 16.57726671 221.5748291 17.62513733 C224.42010959 20.46132841 227.2590615 23.30377514 230.09662151 26.14768791 C233.07020982 29.1263514 236.04868797 32.10011894 239.02638245 35.07467651 C244.02312908 40.06778907 249.01565382 45.0650939 254.0058136 50.06478882 C259.77452105 55.84439165 265.55041418 61.61673825 271.3300693 67.38539171 C276.29607509 72.34232295 281.25817455 77.30313927 286.21702695 82.2672267 C289.17717835 85.23049534 292.13866264 88.19239791 295.10367584 91.15080261 C297.88908617 93.93043728 300.66956152 96.71491581 303.4462986 99.50321388 C304.46608084 100.525641 305.48756958 101.54636928 306.51087761 102.56526756 C307.90702193 103.95594882 309.29641078 105.3534023 310.68544006 106.75119019 C311.85456751 107.92144871 311.85456751 107.92144871 313.04731369 109.11534882 C316.48045161 113.00316076 317.19779996 115.85270153 317.20218372 121.02038574 C317.20801592 122.20182065 317.21384811 123.38325556 317.21985704 124.60049152 C317.21607771 125.89968619 317.21229839 127.19888086 317.20840454 128.53744507 C317.21142438 129.93065439 317.21531302 131.32386205 317.21999711 132.71706676 C317.2303083 136.55002399 317.22808733 140.382888 317.22381651 144.21585298 C317.22135478 148.34830381 317.23035682 152.48073188 317.237854 156.61317444 C317.25062069 164.71268138 317.25239206 172.8121552 317.25005374 180.91167051 C317.2482718 187.49757495 317.25001758 194.08346932 317.25427818 200.66937256 C317.25487337 201.60621338 317.25546856 202.54305421 317.25608179 203.50828415 C317.25729354 205.41147224 317.25850767 207.31466033 317.25972416 209.21784842 C317.27060831 227.07930932 317.2684337 244.94075135 317.26233932 262.80221331 C317.25717536 279.13155517 317.26841026 295.46083729 317.28743754 311.79016733 C317.30682772 328.55974159 317.31506948 345.3292876 317.31131428 362.09887314 C317.30940326 371.51243809 317.31187968 380.92595226 317.32602882 390.33950806 C317.337959 398.35803933 317.33932956 406.37648859 317.32723866 414.39502102 C317.32136004 418.48357673 317.32022206 422.57198256 317.33224106 426.66052818 C317.3431348 430.41004902 317.33995535 434.15929551 317.32597937 437.9088037 C317.32210093 439.89401215 317.33285135 441.87923295 317.34427625 443.86441231 C317.26085196 457.78242607 314.34263143 469.62183604 304.69770813 480.01742554 C293.76319956 490.16235252 281.19230132 492.73868882 266.65180969 492.64837646 C265.4739603 492.65305644 264.29611092 492.65773641 263.08256912 492.6625582 C259.84907765 492.67237755 256.61593045 492.6689475 253.3824482 492.65959954 C249.88135678 492.6527649 246.38030917 492.66331198 242.87922668 492.67153931 C236.03476686 492.6848321 229.1904061 492.68201887 222.3459425 492.67330138 C216.77996195 492.66650762 211.21400903 492.66561541 205.64802551 492.66887283 C204.45670529 492.66956238 204.45670529 492.66956238 203.24131799 492.67026586 C201.62754916 492.6712251 200.01378035 492.67219774 198.40001154 492.67318363 C183.29160331 492.68172448 168.18324981 492.67192394 153.07485056 492.65578254 C140.1300986 492.64238054 127.18542738 492.644709 114.24067688 492.65853882 C99.18384346 492.67461775 84.12705794 492.68090063 69.07021713 492.67170203 C67.46260834 492.67074645 65.85499955 492.66980333 64.24739075 492.66887283 C63.45655539 492.66841001 62.66572003 492.66794718 61.85091996 492.66747033 C56.29597203 492.66488737 50.74105465 492.66923641 45.18611145 492.67631149 C38.41025777 492.68475245 31.63450827 492.68239207 24.85866642 492.66646926 C21.40598383 492.65862128 17.9534745 492.65543505 14.50079346 492.66541672 C10.74822668 492.67365151 6.99614284 492.66328649 3.24360657 492.64837646 C2.16615299 492.65506863 1.08869942 492.6617608 -0.02140427 492.66865575 C-13.732016 492.56346759 -25.0881809 488.94732587 -35.30229187 479.64242554 C-46.66275123 467.61505662 -47.35183512 453.03061872 -47.31298828 437.47291565 C-47.31601119 435.75778182 -47.31990137 434.04264934 -47.32458085 432.32751924 C-47.33485171 427.62794271 -47.33268134 422.92844255 -47.32840025 418.22885978 C-47.32593137 413.15511306 -47.33494924 408.08138465 -47.34243774 403.00764465 C-47.35518241 393.07264829 -47.35697871 383.13767895 -47.35463748 373.20267578 C-47.35285384 365.12614005 -47.35460495 357.04961252 -47.35886192 348.97307777 C-47.35945711 347.82321158 -47.3600523 346.67334539 -47.36066553 345.48863477 C-47.36187729 343.15260535 -47.36309142 340.81657593 -47.3643079 338.48054651 C-47.37518262 316.57644262 -47.37302131 294.67235413 -47.36692306 272.76824937 C-47.36175442 252.73714342 -47.37300808 232.70608611 -47.39202128 212.67498978 C-47.41140136 192.09937652 -47.41965534 171.52378626 -47.41589803 150.94816381 C-47.41398618 139.39962718 -47.41647188 127.85113195 -47.43061256 116.30260277 C-47.44252951 106.47077658 -47.44392772 96.63901726 -47.4318224 86.80719014 C-47.42593585 81.79306273 -47.42482813 76.77905761 -47.4368248 71.76493835 C-47.44769059 67.16999117 -47.4445719 62.5752683 -47.43056311 57.98033158 C-47.42791811 56.32292845 -47.43027652 54.6655077 -47.43829898 53.00812187 C-47.50945739 37.20341414 -45.41637676 24.08028796 -34.42729187 12.01742554 C-24.85888605 2.97958142 -12.79632936 -0.05012489 0 0 Z M-20.30229187 30.76742554 C-24.68256546 37.02495923 -25.17657467 42.74586247 -25.18092632 50.32401848 C-25.18267936 51.01402449 -25.1844324 51.7040305 -25.18623856 52.41494578 C-25.19088899 54.72613395 -25.18843553 57.03725894 -25.18600464 59.34844971 C-25.18787309 61.02259597 -25.19017393 62.69674179 -25.19286996 64.37088692 C-25.19899009 68.97092986 -25.19885412 73.57095464 -25.19767559 78.17100072 C-25.19747164 83.13224267 -25.20298977 88.09347878 -25.20773315 93.05471802 C-25.21604124 102.77421158 -25.21878806 112.49369909 -25.21934553 122.21319591 C-25.21982058 130.11249001 -25.22187477 138.01178212 -25.22504616 145.91107559 C-25.23385286 168.30213894 -25.23846546 190.6931975 -25.23771568 213.08426259 C-25.23767573 214.29148859 -25.23763577 215.49871459 -25.2375946 216.74252319 C-25.23755372 217.9512213 -25.23751284 219.1599194 -25.23747072 220.40524472 C-25.23706416 239.99950869 -25.24663621 259.59375346 -25.26073297 279.18801187 C-25.27508993 299.30246255 -25.28200354 319.41690386 -25.28113919 339.53135979 C-25.28080701 350.82605877 -25.28356362 362.12073761 -25.29431725 373.41543198 C-25.30341325 383.03077324 -25.30560488 392.64608524 -25.29880782 402.26142894 C-25.29553818 407.16767779 -25.29550198 412.07387044 -25.30416107 416.98011398 C-25.31200724 421.47192088 -25.31061392 425.96362685 -25.30187694 430.45543124 C-25.30033781 432.07987922 -25.30217363 433.70433466 -25.30773702 435.32877384 C-25.55577705 450.22149864 -25.55577705 450.22149864 -19.05229187 463.26742554 C-11.03224427 470.48546838 -3.18345348 470.41628106 7.1693573 470.40113831 C8.30406688 470.40340386 9.43877646 470.40566942 10.60787117 470.40800363 C14.41240398 470.41433683 18.2169011 470.4135147 22.0214386 470.41268921 C24.74822627 470.41513771 27.47501143 470.41905538 30.20179749 470.42286682 C36.84116759 470.43116585 43.48052881 470.43392132 50.11990367 470.4344792 C55.51729083 470.43495467 60.91467507 470.437011 66.31206131 470.44017982 C81.6199215 470.44898404 96.92777468 470.45359952 112.23563741 470.45284935 C113.06052798 470.45280939 113.88541854 470.45276944 114.73530579 470.45272827 C115.97415491 470.45266695 115.97415491 470.45266695 117.23803128 470.45260439 C130.62443369 470.45219789 144.01080797 470.46176897 157.39720224 470.47586664 C171.14742371 470.49023305 184.89763147 470.49713669 198.64786065 470.49627286 C206.36551675 470.495941 214.08314336 470.49868324 221.80079269 470.50945091 C228.37120097 470.51855935 234.94156639 470.52072831 241.51197825 470.51394149 C244.86285067 470.51067812 248.21357379 470.51170144 251.56444931 470.51929474 C255.20040368 470.52700052 258.83614202 470.52237899 262.47209167 470.5146637 C264.05352394 470.52237904 264.05352394 470.52237904 265.66690433 470.53025025 C274.12102516 470.4906028 281.10042925 469.71412465 287.94770813 464.26742554 C293.72436273 457.84892043 295.07410536 452.08595561 295.07075596 443.53157997 C295.07274701 442.4049471 295.07473806 441.27831422 295.07678944 440.11754096 C295.07242018 438.27610135 295.07242018 438.27610135 295.06796265 436.39746094 C295.06881707 435.08559763 295.0696715 433.77373433 295.07055181 432.42211759 C295.0727854 428.787159 295.06879103 425.15222993 295.06377375 421.51727509 C295.05945314 417.59505353 295.06091682 413.67283362 295.06167603 409.75061035 C295.06220024 402.95718619 295.05906415 396.16377163 295.05343819 389.37034988 C295.0453093 379.54821656 295.04270654 369.72608789 295.0414502 359.90395157 C295.03926186 343.96797802 295.0326077 328.03200959 295.02314758 312.09603882 C295.01396782 296.61622137 295.00688974 281.13640531 295.00263977 265.65658569 C295.00237705 264.70232345 295.00211432 263.74806121 295.00184364 262.76488192 C295.0005386 257.97760294 294.99927489 253.19032394 294.99803174 248.40304494 C294.98766593 208.69116822 294.97005355 168.97929722 294.94770813 129.26742554 C293.70378296 129.25933868 292.45985779 129.25125183 291.17823792 129.24291992 C279.46534025 129.16549363 267.75255925 129.07776316 256.039814 128.97989845 C250.01792462 128.92991556 243.99605295 128.88358558 237.97407532 128.84555054 C232.16443168 128.80872309 226.35493554 128.76236985 220.54541779 128.70936203 C218.32704501 128.69080461 216.1086406 128.67570166 213.89022064 128.66408157 C210.78715861 128.64724238 207.68443536 128.61821257 204.58149719 128.58627319 C203.66080444 128.58411301 202.74011169 128.58195282 201.79151917 128.57972717 C200.52114807 128.56298195 200.52114807 128.56298195 199.22511292 128.54589844 C198.4913657 128.54036768 197.75761848 128.53483692 197.00163651 128.52913857 C194.60730808 128.22405152 193.00471983 127.51627237 190.94770813 126.26742554 C189.10862586 123.49571838 188.69402706 121.27907072 188.66923523 117.99002075 C188.65807175 117.14310669 188.64690826 116.29619263 188.63540649 115.4236145 C188.63324631 114.50292175 188.63108612 113.582229 188.62886047 112.63363647 C188.61379204 111.16972473 188.61379204 111.16972473 188.59841919 109.67623901 C188.56753624 106.45143216 188.5505377 103.22670853 188.53364563 100.00180054 C188.51493811 97.76548545 188.49536502 95.52917745 188.47496033 93.2928772 C188.42358925 87.40748266 188.38399006 81.52206522 188.34681702 75.63656616 C188.30680863 69.63064893 188.25570184 63.62482736 188.20552063 57.61898804 C188.10870238 45.83520102 188.02431639 34.05136005 187.94770813 22.26742554 C163.052192 22.22069399 138.15668245 22.18543101 113.26113129 22.16380119 C101.70156386 22.15349093 90.14202369 22.13943532 78.58247375 22.11654663 C68.50656348 22.09660517 58.43067294 22.08370729 48.35474348 22.07924855 C43.02019271 22.07664246 37.68569843 22.07052212 32.35116577 22.05596542 C27.32797176 22.04236962 22.30485739 22.03820696 17.28164673 22.04121017 C15.44023709 22.04066091 13.59882473 22.0366954 11.75743103 22.02901459 C9.23779261 22.01902206 6.7184525 22.0214723 4.19880676 22.0269165 C3.11316775 22.01817798 3.11316775 22.01817798 2.00559664 22.00926292 C-6.85563498 22.06079528 -14.20468537 23.9923072 -20.30229187 30.76742554 Z M209.94770813 39.26742554 C209.94770813 61.70742554 209.94770813 84.14742554 209.94770813 107.26742554 C232.38770813 107.26742554 254.82770813 107.26742554 277.94770813 107.26742554 C273.96035388 102.61551224 270.00549781 98.17983152 265.68281555 93.87313843 C265.08857788 93.27714844 264.49434021 92.68115845 263.88209534 92.06710815 C261.94160905 90.12226414 259.99754047 88.18104886 258.05317688 86.24008179 C256.69636674 84.8825974 255.33970503 83.52496465 253.98318481 82.16719055 C251.15307492 79.33561241 248.32117898 76.50583618 245.48799133 73.67733765 C241.84826222 70.04333814 238.21308479 66.40482359 234.57920361 62.76497746 C231.7853085 59.96748101 228.98905124 57.17235552 226.19205666 54.3779583 C224.84962274 53.03619315 223.50793591 51.69368014 222.16699791 50.35042 C220.30227534 48.48317442 218.43440645 46.6191361 216.56562805 44.75595093 C216.00825455 44.19655319 215.45088104 43.63715546 214.87661743 43.06080627 C212.76513597 40.44910292 212.76513597 40.44910292 209.94770813 39.26742554 Z " fill="#BF0000" transform="translate(121.05229187011719,9.732574462890625)"/>
<path d="M0 0 C0.80757881 -0.00297112 1.61515763 -0.00594224 2.44720852 -0.0090034 C5.16249879 -0.01769865 7.877745 -0.01919934 10.5930481 -0.02069092 C12.53609308 -0.02531846 14.47913716 -0.03034303 16.42218018 -0.03573608 C21.70729332 -0.04886714 26.99239375 -0.05530627 32.27752066 -0.05974674 C35.57768647 -0.06267597 38.87784879 -0.06678047 42.17801285 -0.07125092 C52.49846121 -0.08492691 62.81890161 -0.09459341 73.1393584 -0.09845281 C85.06239517 -0.10293574 96.98531742 -0.12049416 108.90831935 -0.1494534 C118.11857524 -0.17104924 127.32879885 -0.18115594 136.53907979 -0.18249393 C142.04286099 -0.18354334 147.54653455 -0.18948031 153.05028915 -0.20731354 C158.22621427 -0.22375822 163.40195042 -0.22596726 168.5778923 -0.21717453 C170.4786174 -0.21640225 172.37935251 -0.22077185 174.28005219 -0.23063278 C176.87296327 -0.24329714 179.46519949 -0.23750571 182.05810547 -0.22705078 C183.18880126 -0.23913539 183.18880126 -0.23913539 184.3423394 -0.25146413 C189.83154879 -0.19962674 192.93852649 1.15232959 196.96853638 4.76544189 C198.83014959 8.48866831 198.83146058 12.06610881 198.15603638 16.14044189 C196.3620997 19.01074058 195.17340361 20.63175828 192.15603638 22.14044189 C189.52234408 22.24481566 186.91471031 22.28823817 184.2804718 22.28761292 C183.4574132 22.2912896 182.63435461 22.29496629 181.78635484 22.29875439 C179.01268453 22.30981765 176.23905165 22.31363952 173.46536255 22.31744385 C171.48305644 22.32370645 169.50075151 22.33035307 167.51844788 22.33735657 C162.12171258 22.35478402 156.72498615 22.36532286 151.32822967 22.3735621 C147.95888791 22.37870805 144.58954892 22.38478393 141.22020912 22.39107323 C130.68511722 22.41012929 120.15003235 22.42436012 109.61492652 22.4326852 C97.44111541 22.44246324 85.26748585 22.46879591 73.09373873 22.50918609 C63.6924226 22.53931099 54.29115861 22.55415058 44.88979512 22.55746621 C39.27082577 22.55982065 33.65205028 22.56883228 28.03313255 22.59392738 C22.74802004 22.61714998 17.46322984 22.62146475 12.17807961 22.611166 C10.23703568 22.61066913 8.2959762 22.61703394 6.35498047 22.63072205 C3.7071149 22.648352 1.06041721 22.64137906 -1.58744812 22.62818909 C-2.35749123 22.63915833 -3.12753434 22.65012758 -3.92091209 22.66142923 C-8.84596314 22.60210406 -11.39567463 21.66969159 -14.84396362 18.14044189 C-16.58745313 14.65346288 -16.42479088 10.94454127 -15.84396362 7.14044189 C-12.16351847 0.26269882 -7.12742525 -0.0081447 0 0 Z " fill="#BF0000" transform="translate(164.84396362304688,393.85955810546875)"/>
<path d="M0 0 C0.8230586 -0.00367669 1.64611719 -0.00735338 2.49411696 -0.01114148 C5.26778727 -0.02220474 8.04142015 -0.02602661 10.81510925 -0.02983093 C12.79741536 -0.03609354 14.77972029 -0.04274016 16.76202393 -0.04974365 C22.15875923 -0.0671711 27.55548566 -0.07770995 32.95224214 -0.08594918 C36.3215839 -0.09109514 39.69092288 -0.09717102 43.06026268 -0.10346031 C53.59535458 -0.12251637 64.13043945 -0.1367472 74.66554528 -0.14507228 C86.8393564 -0.15485033 99.01298595 -0.18118299 111.18673307 -0.22157317 C120.58804921 -0.25169808 129.98931319 -0.26653767 139.39067668 -0.26985329 C145.00964603 -0.27220773 150.62842153 -0.28121937 156.24733925 -0.30631447 C161.53245176 -0.32953706 166.81724196 -0.33385184 172.1023922 -0.32355309 C174.04343612 -0.32305621 175.98449561 -0.32942103 177.92549133 -0.34310913 C180.57335691 -0.36073909 183.22005459 -0.35376615 185.86791992 -0.34057617 C186.63796303 -0.35154542 187.40800614 -0.36251466 188.20138389 -0.37381631 C193.12643494 -0.31449115 195.67614643 0.61792133 199.12443542 4.14717102 C200.86792493 7.63415004 200.70526268 11.34307165 200.12443542 15.14717102 C198.21070482 18.7234089 196.03156834 20.84479338 192.12443542 22.14717102 C189.50102525 22.24718474 186.90407769 22.29061098 184.2804718 22.28761292 C183.47289299 22.29058404 182.66531418 22.29355516 181.83326328 22.29661632 C179.11797302 22.30531157 176.4027268 22.30681225 173.68742371 22.30830383 C171.74437872 22.31293138 169.80133464 22.31795595 167.85829163 22.323349 C162.57317849 22.33648006 157.28807805 22.34291919 152.00295115 22.34735966 C148.70278533 22.35028889 145.40262301 22.35439338 142.10245895 22.35886383 C131.7820106 22.37253983 121.46157019 22.38220632 111.1411134 22.38606572 C99.21807663 22.39054866 87.29515438 22.40810707 75.37215245 22.43706632 C66.16189657 22.45866215 56.95167296 22.46876886 47.74139202 22.47010684 C42.23761082 22.47115626 36.73393725 22.47709322 31.23018265 22.49492645 C26.05425753 22.51137114 20.87852138 22.51358018 15.7025795 22.50478745 C13.8018544 22.50401517 11.90111929 22.50838476 10.00041962 22.5182457 C7.40750853 22.53091005 4.81527231 22.52511862 2.22236633 22.5146637 C1.46856914 22.5227201 0.71477194 22.53077651 -0.06186759 22.53907704 C-5.55107699 22.48723966 -8.65805469 21.13528333 -12.68806458 17.52217102 C-14.54967778 13.7989446 -14.55098878 10.2215041 -13.87556458 6.14717102 C-10.03728068 0.00591679 -6.782799 -0.00160994 0 0 Z " fill="#BF0000" transform="translate(162.8755645751953,223.8528289794922)"/>
<path d="M0 0 C0.81660034 -0.00382555 1.63320068 -0.00765109 2.47454649 -0.01159257 C5.21442456 -0.02192217 7.95409304 -0.0179305 10.69398499 -0.01396179 C12.65688267 -0.01830828 14.61977866 -0.02349121 16.58267212 -0.02944946 C21.91733066 -0.04285728 27.25191842 -0.04341616 32.58659053 -0.04088616 C37.03754866 -0.03981769 41.48849241 -0.04469662 45.93944746 -0.04949158 C56.43836672 -0.06059287 66.9372502 -0.06102063 77.43617249 -0.05497742 C88.27322141 -0.04893557 99.11014056 -0.0612526 109.94716734 -0.08254749 C119.24662065 -0.10015024 128.5460326 -0.10616695 137.84550196 -0.10290974 C143.40179729 -0.10109468 148.95800005 -0.10375532 154.51428032 -0.11762428 C159.73865568 -0.13017647 164.96282839 -0.12828325 170.18720055 -0.11521339 C172.10566017 -0.1128424 174.02413395 -0.11560096 175.94257736 -0.12383652 C178.55952987 -0.13426144 181.17579704 -0.12623773 183.79272461 -0.11352539 C184.55362158 -0.12089968 185.31451856 -0.12827396 186.09847301 -0.13587171 C190.5645492 -0.0901653 193.39144028 0.53548167 196.95985413 3.26069641 C199.31842877 6.29314952 199.31919328 9.52135455 199.21376038 13.29585266 C198.83627944 16.21697433 197.8184404 18.00384165 195.95985413 20.26069641 C192.24646504 22.84091759 188.26604531 22.54291768 183.91970825 22.52139282 C183.10310791 22.52521837 182.28650757 22.52904392 181.44516176 22.53298539 C178.7052837 22.54331499 175.96561521 22.53932332 173.22572327 22.53535461 C171.26282558 22.5397011 169.29992959 22.54488404 167.33703613 22.55084229 C162.0023776 22.5642501 156.66778983 22.56480899 151.33311772 22.56227899 C146.88215959 22.56121052 142.43121585 22.56608944 137.98026079 22.57088441 C127.48134153 22.58198569 116.98245805 22.58241345 106.48353577 22.57637024 C95.64648685 22.5703284 84.80956769 22.58264543 73.97254092 22.60394031 C64.67308761 22.62154306 55.37367565 22.62755978 46.07420629 22.62430257 C40.51791096 22.6224875 34.96170821 22.62514815 29.40542793 22.63901711 C24.18105257 22.65156929 18.95687986 22.64967607 13.73250771 22.63660622 C11.81404808 22.63423522 9.8955743 22.63699378 7.97713089 22.64522934 C5.36017839 22.65565426 2.74391121 22.64763055 0.12698364 22.63491821 C-0.63391333 22.6422925 -1.3948103 22.64966678 -2.17876476 22.65726453 C-6.64484095 22.61155812 -9.47173203 21.98591115 -13.04014587 19.26069641 C-15.39872051 16.2282433 -15.39948503 13.00003827 -15.29405212 9.22554016 C-14.91657119 6.30441849 -13.89873215 4.51755117 -12.04014587 2.26069641 C-8.32675679 -0.31952476 -4.34633706 -0.02152486 0 0 Z " fill="#BF0000" transform="translate(164.04014587402344,308.7393035888672)"/>
</svg>
