<?xml version="1.0" encoding="UTF-8"?>
<svg version="1.1" xmlns="http://www.w3.org/2000/svg" width="512" height="512">
<path d="M0 0 C1.20963687 -0.00507454 2.41927374 -0.01014909 3.66556627 -0.0153774 C5.02003368 -0.01597913 6.37450114 -0.01647819 7.72896862 -0.01688576 C9.15843821 -0.02089894 10.58790667 -0.02533692 12.01737374 -0.03016531 C15.95954727 -0.04215262 19.90170855 -0.04778424 23.84389675 -0.05234647 C28.09008553 -0.05829432 32.3362596 -0.06990612 36.58243847 -0.08063698 C46.84348348 -0.10517846 57.10453337 -0.11979003 67.36559871 -0.13269705 C70.26223114 -0.13640749 73.15886308 -0.14038084 76.05549502 -0.14444971 C94.03145544 -0.16968305 112.00741659 -0.19174278 129.98339081 -0.20417786 C134.14868008 -0.2071077 138.31396933 -0.21006934 142.47925854 -0.21308327 C143.51455931 -0.21382932 144.54986008 -0.21457537 145.6165336 -0.21534403 C162.3969498 -0.22800427 179.1772602 -0.2612354 195.95762692 -0.3028851 C213.17345402 -0.34526651 230.3892269 -0.36886844 247.60510606 -0.37409842 C257.27618902 -0.37751669 266.9471066 -0.38932081 276.61813831 -0.42220116 C284.85250417 -0.45015067 293.08667075 -0.46122347 301.32108036 -0.4500057 C305.52430101 -0.44480604 309.72710403 -0.44778991 313.93026447 -0.47247124 C317.77647794 -0.49486858 321.6219715 -0.49429905 325.46819677 -0.47526737 C326.8612279 -0.47245389 328.25430685 -0.47814045 329.6472607 -0.4930803 C331.53800325 -0.51212278 333.42899603 -0.49743674 335.31976318 -0.48101807 C336.37088407 -0.4823746 337.42200496 -0.48373112 338.504978 -0.48512876 C342.49362247 0.38751537 343.93921627 1.873966 346.3486433 5.13701439 C346.84077122 7.84038145 347.02181329 9.91424739 346.97505569 12.60993004 C346.9820233 13.3570857 346.98899091 14.10424136 346.99616966 14.8740381 C347.01346121 17.38612542 346.99502464 19.89668011 346.97683239 22.4087429 C346.98187585 24.22441401 346.98910312 26.04008016 346.99833053 27.85573483 C347.01730831 32.85164403 347.00498793 37.84706561 346.9876076 42.84296274 C346.97426608 48.22818717 346.98965912 53.61333873 347.00142956 58.99855614 C347.01983455 69.55077443 347.01127473 80.10280789 346.99334133 90.65502048 C346.97933101 99.22895729 346.97541916 107.80284384 346.97878361 116.376791 C346.97926105 117.59582888 346.97973849 118.81486676 346.9802304 120.07084519 C346.9812567 122.54708887 346.98231206 125.02333255 346.98339617 127.49957621 C346.99196902 149.40903276 346.97526923 171.31839991 346.94556713 193.2278347 C346.91672835 214.50065936 346.90964545 235.77335523 346.92505932 257.04619408 C346.94181013 280.19595702 346.94586711 303.34565878 346.92834896 326.49542332 C346.92650452 328.9626948 346.92466979 331.42996628 346.92284489 333.89723778 C346.9219328 335.1112678 346.92102071 336.32529781 346.92008098 337.57611662 C346.91446862 346.14241634 346.91778928 354.70868625 346.92438984 363.27498436 C346.93211135 373.71063429 346.92541311 384.14615732 346.9002148 394.58178163 C346.88769231 399.90895017 346.88160652 405.23592085 346.89275646 410.563097 C346.9027634 415.43608734 346.89441514 420.30868227 346.87117528 425.18162429 C346.86599631 426.94803266 346.86761302 428.71447617 346.87656993 430.48086941 C346.88770707 432.87575711 346.87439589 435.26929427 346.85480118 437.66409874 C346.86388 438.35544643 346.87295881 439.04679412 346.88231274 439.75909173 C346.80693673 444.46103026 345.65487903 446.82749726 342.3486433 450.13701439 C339.77730872 451.42268168 337.9514723 451.25711217 335.0727644 451.25053978 C333.42127895 451.25042648 333.42127895 451.25042648 331.73643017 451.2503109 C330.54369488 451.24514961 329.35095959 451.23998833 328.1220808 451.23467064 C326.90412823 451.23325569 325.68617565 451.23184074 324.43131542 451.23038292 C320.5287334 451.22477077 316.62620808 451.21221618 312.7236433 451.19951439 C310.08301913 451.19450096 307.44239406 451.18993778 304.8017683 451.18584251 C298.31737385 451.1747974 291.83301263 451.15804741 285.3486433 451.13701439 C285.36822094 452.65355614 285.36822094 452.65355614 285.38819408 454.20073509 C285.39875355 455.55058625 285.40899027 456.90043996 285.4189558 458.25029564 C285.42838207 458.91388084 285.43780834 459.57746605 285.44752026 460.2611599 C285.52868065 474.96471876 279.34392068 488.0756711 269.2548933 498.59013939 C258.17158845 508.30292805 245.56317 512.6111262 230.94536877 512.52469444 C229.83935418 512.53007998 228.7333396 512.53546552 227.59380943 512.54101425 C223.91000281 512.55525283 220.2265576 512.5482 216.5427351 512.54106712 C213.89242458 512.54677287 211.24213946 512.55363798 208.59183788 512.56186485 C202.15317839 512.57901287 195.71461665 512.5799011 189.27594026 512.57465195 C184.03886607 512.57060106 178.80182064 512.57206469 173.56474781 512.57740021 C172.81773321 512.57814863 172.07071861 512.57889705 171.30106721 512.57966815 C169.78321005 512.58119973 168.26535289 512.58273807 166.74749575 512.58428312 C152.53038152 512.59799404 138.3133224 512.5925807 124.09620944 512.58109791 C111.11108777 512.57116995 98.12610868 512.5841011 85.141009 512.6080321 C71.78499827 512.63245983 58.42905384 512.64202178 45.07302123 512.63537937 C37.58383082 512.63189492 30.09474996 512.63406771 22.60557652 512.6516304 C16.22932622 512.66639856 9.85326263 512.66692809 3.47701582 512.64955949 C0.22869841 512.64108418 -3.01921996 512.64100756 -6.26753139 512.65421104 C-26.51583307 512.73020451 -42.04783713 511.39123738 -57.4638567 496.82451439 C-69.11569544 484.48604943 -72.27140792 470.40631417 -72.15929127 453.80437279 C-72.16391043 452.29685984 -72.17027012 450.78935141 -72.17820024 449.28185225 C-72.19477747 445.17462245 -72.18670065 441.06776817 -72.17425537 436.96053767 C-72.16515923 432.51737001 -72.17919712 428.07426435 -72.19017506 423.63110924 C-72.20791638 414.94090395 -72.2041399 406.25083723 -72.19252449 397.56062663 C-72.18347313 390.49486574 -72.18227353 383.42914355 -72.18661976 376.36337852 C-72.18723269 375.35588644 -72.18784562 374.34839435 -72.18847713 373.3103722 C-72.18975609 371.26336164 -72.19105295 369.21635109 -72.19236749 367.16934055 C-72.20376044 347.99633003 -72.19067977 328.82339614 -72.16916603 309.65039819 C-72.15129623 293.21637383 -72.15440069 276.7824625 -72.17284107 260.34844017 C-72.1942705 241.24176757 -72.20266193 222.13516204 -72.19039202 203.0284791 C-72.18911789 200.98920283 -72.1878604 198.94992655 -72.18661976 196.91065025 C-72.18600266 195.9074141 -72.18538555 194.90417795 -72.18474975 193.87054071 C-72.18130307 186.81723355 -72.18711047 179.76396911 -72.19653797 172.71066856 C-72.20778238 164.10935384 -72.20466668 155.50818504 -72.183415 146.90688694 C-72.17293738 142.52242753 -72.16872631 138.13821101 -72.1820116 133.75375366 C-72.19400994 129.73307068 -72.18725178 125.71285365 -72.1661014 121.6922124 C-72.16166661 120.24487381 -72.16383052 118.7974951 -72.17360455 117.35018271 C-72.27483981 101.10156166 -68.07211535 87.80665695 -56.8388567 75.82451439 C-46.23705346 65.83553215 -33.21662379 60.91784132 -18.8388567 61.07451439 C-18.05059498 61.07902611 -17.26233326 61.08353783 -16.45018482 61.08818626 C-14.51720909 61.09990127 -12.58427277 61.11783441 -10.6513567 61.13701439 C-10.65801853 60.45907326 -10.66468037 59.78113213 -10.67154408 59.08264732 C-10.73791823 52.02619227 -10.78316616 44.96982592 -10.81615162 37.91313744 C-10.83123727 35.27963725 -10.85170836 32.64616218 -10.87767506 30.01274681 C-10.91406688 26.22728335 -10.9310856 22.44215212 -10.94432545 18.65654564 C-10.9598093 17.4792942 -10.97529316 16.30204277 -10.99124622 15.08911705 C-10.99147282 13.98835335 -10.99169941 12.88758965 -10.99193287 11.75346947 C-10.9985947 10.78750343 -11.00525654 9.8215374 -11.01212025 8.82629967 C-10.58200903 5.62006733 -9.53991431 3.74127642 -7.6513567 1.13701439 C-4.99165731 -0.1928353 -2.98007309 0.00661076 0 0 Z M8.3486433 18.13701439 C8.3486433 32.32701439 8.3486433 46.51701439 8.3486433 61.13701439 C15.33882641 61.14636009 22.32900951 61.1557058 29.53101635 61.1653347 C51.93181302 61.19808629 74.33253753 61.25040244 96.733263 61.31493534 C100.21646552 61.32495204 103.69966851 61.3347963 107.18287182 61.34453392 C107.87627502 61.34647529 108.56967823 61.34841667 109.28409366 61.35041687 C120.49149669 61.38138447 131.69887928 61.39840285 142.90631702 61.41020861 C154.41787859 61.42264741 165.92931765 61.45050501 177.44081432 61.49162745 C183.90174678 61.51422405 190.36252706 61.52992613 196.82350254 61.52889824 C202.91137847 61.52815059 208.9989182 61.54614437 215.08670712 61.57818222 C217.31462285 61.5866637 219.54257636 61.58844314 221.77050114 61.58281708 C240.53544688 61.54176224 256.0604401 63.67235246 270.3486433 77.13701439 C278.94824298 87.50384571 284.45041987 99.15275726 284.4873085 112.82789898 C284.49278295 113.96995778 284.49825739 115.11201659 284.50389773 116.28868324 C284.50536489 118.16367422 284.50536489 118.16367422 284.50686169 120.07654381 C284.5114292 121.4214207 284.5164295 122.76629617 284.52182525 124.11116999 C284.5353942 127.80538165 284.54282112 131.49958412 284.54925191 135.19381416 C284.55726131 139.1780962 284.57095724 143.16235914 284.58396435 147.14662743 C284.60571942 154.04919206 284.62386746 160.95175864 284.63956928 167.8543396 C284.66227672 177.83432685 284.69041835 187.81429295 284.71988856 197.79426225 C284.76755374 213.9858962 284.81082084 230.1775388 284.85132885 246.36919212 C284.89068924 262.09836564 284.93211677 277.82753147 284.97632885 293.55669212 C284.97905312 294.52615207 284.98177739 295.49561201 284.98458422 296.49444953 C284.99826379 301.35791961 285.01198404 306.22138958 285.02572453 311.08485949 C285.13967244 351.43556197 285.24621465 391.78628115 285.3486433 432.13701439 C299.2086433 432.13701439 313.0686433 432.13701439 327.3486433 432.13701439 C327.3486433 295.51701439 327.3486433 158.89701439 327.3486433 18.13701439 C222.0786433 18.13701439 116.8086433 18.13701439 8.3486433 18.13701439 Z M-45.63182545 92.50029564 C-52.67205182 102.06629395 -52.94647218 109.96595848 -52.91878223 121.57849693 C-52.92252097 123.06234187 -52.92712338 124.54618484 -52.93251288 126.03002471 C-52.9447306 130.09949237 -52.94448387 134.16887775 -52.94212413 138.23835957 C-52.94171565 142.63043806 -52.952758 147.02249028 -52.96223927 151.4145565 C-52.97884326 160.01630462 -52.98434853 168.61802531 -52.98546402 177.21978811 C-52.98641473 184.21229348 -52.99052619 191.20478982 -52.99686527 198.19729233 C-53.01447567 218.02679347 -53.0237044 237.85627297 -53.02220432 257.68578199 C-53.02212441 258.75451534 -53.0220445 259.82324869 -53.02196217 260.9243679 C-53.0218804 261.99440761 -53.02179864 263.06444731 -53.0217144 264.16691246 C-53.02090145 281.50943958 -53.04004191 298.85187987 -53.0682389 316.19438187 C-53.09696976 334.00591342 -53.1107791 351.81740262 -53.10905135 369.62895793 C-53.10838754 379.62705541 -53.11387589 389.62506183 -53.13540745 399.62313843 C-53.15362183 408.13537199 -53.15796441 416.64747322 -53.1443886 425.15971784 C-53.1378604 429.50124427 -53.13773639 433.84251683 -53.1550951 438.18401909 C-53.17083736 442.16221083 -53.16795066 446.13994766 -53.15052684 450.11812838 C-53.14745947 451.55348665 -53.15107942 452.98887896 -53.16224699 454.42419706 C-53.25411767 467.074692 -51.0012644 475.71010882 -42.1357317 484.93779564 C-32.49247143 493.47420371 -20.24908966 494.44990101 -7.87364674 494.39098167 C-6.3337331 494.39566165 -6.3337331 494.39566165 -4.76271009 494.40043616 C-1.35378751 494.40835577 2.05495406 494.40211617 5.46387768 494.39580345 C7.92052851 494.39851599 10.37717853 494.4020784 12.83382702 494.40642357 C18.79508523 494.41457563 24.75627351 494.41341135 30.71752894 494.40759829 C35.56557447 494.40306787 40.4136059 494.40247484 45.26165295 494.40464592 C45.95360228 494.40495239 46.64555161 494.40525885 47.3584691 494.4055746 C48.76447618 494.4062141 50.17048327 494.40686253 51.57649034 494.40751979 C64.73769932 494.41321276 77.89888036 494.40668144 91.06008476 494.39591905 C102.3348331 494.38698448 113.60954024 494.38853682 124.88428783 494.39775658 C138.00078938 494.4084775 151.11726649 494.41266353 164.2337718 494.40653205 C165.63439242 494.405895 167.03501304 494.40526626 168.43563366 494.40464592 C169.12463264 494.40433737 169.81363162 494.40402882 170.52350935 494.40371092 C175.36156355 494.40198944 180.19960215 494.40488724 185.03765392 494.40960503 C191.5581001 494.41582407 198.07848083 494.41134947 204.59892368 494.39981651 C206.9873463 494.39717931 209.37577547 494.39791891 211.76419544 494.40234184 C215.03319523 494.40783584 218.30194907 494.40091649 221.57093334 494.39098167 C222.97655852 494.39767384 222.97655852 494.39767384 224.41058016 494.4045012 C237.31057475 494.32885913 247.50881179 491.74881005 257.3486433 483.13701439 C259.34406839 480.64212937 259.34406839 480.64212937 261.0361433 477.88701439 C261.90819408 476.54896751 261.90819408 476.54896751 262.79786205 475.18388939 C266.95586315 467.01451696 266.63782289 458.7434847 266.61606884 449.77855492 C266.61980879 448.31589628 266.62441169 446.85323964 266.62979949 445.39058614 C266.64200225 441.38424652 266.64177224 437.37799058 266.63941073 433.37163663 C266.63900188 429.04565925 266.65004828 424.71970845 266.65952587 420.39374352 C266.67612187 411.9231419 266.68163478 403.45256813 266.68275063 394.98195162 C266.68370176 388.09484582 266.68781532 381.20774919 266.69415188 374.32064629 C266.71176043 354.78387219 266.72099135 335.24712005 266.71949093 315.71033797 C266.71941102 314.65763044 266.71933111 313.60492292 266.71924877 312.52031517 C266.71912613 310.93932041 266.71912613 310.93932041 266.71900101 309.32638636 C266.71818821 292.24716768 266.73732541 275.1680372 266.7655255 258.08884403 C266.79426908 240.54169398 266.80806499 222.99458692 266.80633795 205.44741273 C266.80567456 195.60017244 266.81114449 185.75302464 266.83269405 175.90580559 C266.85092523 167.52137916 266.85523728 159.13708714 266.84167521 150.75264946 C266.83515535 146.47770062 266.8349927 142.20300949 266.85238171 137.92808533 C266.86816115 134.00842355 266.8651996 130.08922277 266.84781344 126.16957191 C266.84475421 124.75776091 266.84833504 123.34591508 266.85953359 121.93414518 C266.95542203 108.97937961 264.9514428 98.70984951 255.71973705 89.26592064 C247.40432832 81.79986173 239.63339428 79.83575163 228.63398266 79.86958885 C227.55377039 79.86505774 226.47355813 79.86052663 225.36061215 79.85585821 C221.74036813 79.84319627 218.12027421 79.84483576 214.50001049 79.84648705 C211.90454445 79.8405029 209.30908019 79.83369762 206.71361828 79.82613182 C200.39441887 79.80953563 194.07525677 79.80402288 187.75603738 79.80290706 C182.61753062 79.80195585 177.47903614 79.79784191 172.34053326 79.79150581 C157.76218751 79.77389651 143.18387119 79.76466636 128.60551473 79.76616676 C127.81998056 79.76624667 127.03444639 79.76632659 126.22510815 79.76640892 C125.43861135 79.76649068 124.65211454 79.76657244 123.84178451 79.76665668 C111.10011387 79.7674693 98.35856152 79.74833687 85.61692509 79.72013219 C72.52435475 79.69138012 59.43184206 79.6775932 46.33923936 79.67931974 C38.99259937 79.67998288 31.64608336 79.67452405 24.29947186 79.65296364 C17.38834448 79.63281083 10.47748271 79.6334493 3.56634235 79.6479969 C1.03236859 79.65008754 -1.50162151 79.64536902 -4.03556728 79.63327599 C-7.50027212 79.61781438 -10.96407571 79.62713897 -14.42876148 79.64253807 C-15.92558173 79.62710738 -15.92558173 79.62710738 -17.45264077 79.61136496 C-28.54215915 79.71995195 -38.44066071 83.91912273 -45.63182545 92.50029564 Z " fill="#C73FA9" transform="translate(118.65135669708252,-0.13701438903808594)"/>
<path d="M0 0 C0.84587138 -0.00583219 1.69174276 -0.01166439 2.56324661 -0.01767331 C3.49270697 -0.01389399 4.42216734 -0.01011467 5.37979317 -0.00622082 C6.36704828 -0.01004636 7.3543034 -0.01387191 8.37147534 -0.01781338 C11.69486821 -0.02817014 15.01808917 -0.02414613 18.34149361 -0.02018261 C20.71803129 -0.02452762 23.09456758 -0.02971006 25.47110176 -0.03567028 C31.26566264 -0.04769902 37.06016959 -0.05020883 42.85474144 -0.04787002 C47.56430093 -0.04608842 52.27384635 -0.0478331 56.98340416 -0.05209446 C57.6531915 -0.05268965 58.32297883 -0.05328484 59.01306275 -0.05389806 C60.3736635 -0.05510979 61.73426424 -0.05632393 63.09486498 -0.05754044 C75.86146376 -0.06842273 88.62803614 -0.06625036 101.39463641 -0.06015559 C113.07611446 -0.05498706 124.75750911 -0.06623893 136.43897067 -0.08525381 C148.42965928 -0.10462258 160.42030841 -0.11288983 172.41101277 -0.10913056 C179.14438694 -0.10721689 185.87769013 -0.10972206 192.61105156 -0.1238451 C198.94262829 -0.13638897 205.27403774 -0.1345119 211.6056118 -0.12143421 C213.93204746 -0.11906131 216.25849476 -0.12182851 218.58491707 -0.13005733 C221.75583355 -0.14046607 224.92618265 -0.13247111 228.09707832 -0.11974621 C229.02207724 -0.12712049 229.94707617 -0.13449478 230.90010536 -0.14209253 C235.69287849 -0.10150992 238.9996388 0.08257762 242.86541939 3.25447559 C244.58912712 6.70189107 244.36848611 10.48482899 243.86541939 14.25447559 C241.98921326 16.75608377 240.62650635 17.87393211 237.86541939 19.25447559 C236.53092713 19.35026722 235.19180847 19.38542611 233.8538866 19.38869667 C233.01000627 19.39315451 232.16612594 19.39761236 231.29667348 19.40220529 C230.36430027 19.40202093 229.43192706 19.40183656 228.47130013 19.40164661 C226.99169909 19.40716165 226.99169909 19.40716165 225.48220712 19.41278809 C222.15575643 19.42385756 218.82933694 19.42767427 215.50287056 19.43147755 C213.12648099 19.43773967 210.75009241 19.44438624 208.37370491 19.45139027 C201.22725692 19.4706412 194.08080832 19.48122157 186.93434164 19.49011806 C183.57033077 19.49449965 180.20632148 19.49986678 176.84231186 19.50510693 C165.66206851 19.52211957 154.48182615 19.53661441 143.30157185 19.54385567 C140.39959588 19.54576561 137.49761993 19.54768594 134.595644 19.54964161 C133.51371467 19.55036722 133.51371467 19.55036722 132.40992818 19.55110749 C120.72190435 19.55941028 109.03398278 19.58475118 97.34600361 19.61722229 C85.35083245 19.65027562 73.35571329 19.66830284 61.36049634 19.67149991 C54.62371723 19.67366657 47.88708726 19.68243789 41.15035248 19.70796108 C34.81466262 19.73116817 28.47924163 19.73550464 22.14352036 19.7251997 C19.81546448 19.72470246 17.4873957 19.73107804 15.15937996 19.74475574 C11.98609063 19.76235957 8.81377832 19.75542485 5.64048958 19.74222279 C4.71480854 19.75319203 3.7891275 19.76416128 2.83539551 19.77546293 C-1.36195419 19.73317473 -3.55930574 19.61309769 -7.19474125 17.34679413 C-9.76939165 14.56976586 -10.02983229 12.87947142 -10.27520561 9.21931934 C-10.06283499 6.25202979 -9.00267004 4.5228699 -7.13458061 2.25447559 C-4.06456002 0.2077952 -3.45697337 0.00409746 0 0 Z " fill="#FF3086" transform="translate(108.13458061218262,369.7455244064331)"/>
<path d="M0 0 C0.84499573 -0.00521549 1.68999146 -0.01043099 2.56059313 -0.01580453 C3.94560117 -0.00911236 3.94560117 -0.00911236 5.35858917 -0.002285 C6.34332073 -0.00540498 7.32805228 -0.00852497 8.34262419 -0.01173949 C11.65143235 -0.01973442 14.96005788 -0.01338996 18.26886749 -0.00710678 C20.63732257 -0.00981598 23.0057768 -0.0133765 25.37422943 -0.0177269 C31.14492714 -0.02591238 36.91556655 -0.02469699 42.68626606 -0.01890162 C47.37578644 -0.01438681 52.06529223 -0.01377143 56.75481415 -0.01594925 C57.75556196 -0.01640895 57.75556196 -0.01640895 58.7765269 -0.01687793 C60.13181484 -0.01751738 61.48710278 -0.0181658 62.84239072 -0.01882312 C75.5541238 -0.02452766 88.26582805 -0.01796657 100.97755641 -0.00722238 C111.88733731 0.00171324 122.79707564 0.00016124 133.70685577 -0.00905991 C146.37277124 -0.01976034 159.03866143 -0.02397833 171.70458078 -0.01783538 C173.05491288 -0.01719827 174.40524498 -0.01656953 175.75557709 -0.01594925 C176.41998486 -0.0156407 177.08439264 -0.01533215 177.76893398 -0.01501425 C182.45340183 -0.01328662 187.13785366 -0.01620386 191.82231903 -0.02090836 C198.12597264 -0.02667442 204.42954566 -0.02269844 210.73319054 -0.01111984 C213.05036981 -0.0084693 215.36755583 -0.00924503 217.68473244 -0.01364517 C220.8405147 -0.01908645 223.99603652 -0.0122836 227.15180206 -0.002285 C228.07514076 -0.00674645 228.99847945 -0.01120789 229.94979811 -0.01580453 C231.21729171 -0.00798129 231.21729171 -0.00798129 232.51039124 0 C233.23880486 0.0003247 233.96721848 0.00064941 234.71770525 0.00098395 C237.14071107 0.29911715 238.69203595 0.95171526 240.75519562 2.25168228 C242.76991158 5.27375623 243.09238596 6.16894927 243.19269562 9.62668228 C243.23265656 10.37691666 243.27261749 11.12715103 243.31378937 11.90011978 C242.4346478 15.60112135 240.7414617 16.93004268 237.75519562 19.25168228 C234.49252353 19.98681152 231.29551397 19.92240436 227.96234894 19.87987137 C226.96930142 19.88696576 225.9762539 19.89406014 224.95311403 19.90136951 C221.62177491 19.9189876 218.2915966 19.90082445 214.96027374 19.8827858 C212.57358518 19.88792312 210.18690041 19.89520299 207.8002243 19.90446854 C201.98844503 19.9210876 196.17703796 19.91433228 190.36526954 19.89638031 C185.64191367 19.88235371 180.91864906 19.87846162 176.19527435 19.88182259 C175.52298264 19.88230003 174.85069092 19.88277747 174.15802673 19.88326938 C172.79227203 19.88429571 171.42651735 19.88535107 170.0607627 19.88643514 C157.98439312 19.89500246 145.90818586 19.87832629 133.83185577 19.84860611 C122.11401298 19.81976857 110.39640401 19.81268507 98.67853546 19.8280983 C85.91808577 19.84485991 73.1577471 19.84889511 60.39729452 19.83138794 C59.03656865 19.82954355 57.67584278 19.82770883 56.31511688 19.82588387 C55.31086644 19.82451573 55.31086644 19.82451573 54.28632811 19.82311996 C49.56874264 19.81751429 44.85121137 19.820822 40.13362885 19.82742882 C33.78389348 19.83507993 27.43449566 19.82300337 21.08481789 19.79557991 C18.75194107 19.78868275 16.4190328 19.78861227 14.08615685 19.79579544 C10.90640634 19.8044593 7.72770491 19.78858503 4.5480423 19.76634598 C3.62051667 19.77458674 2.69299104 19.78282751 1.73735857 19.791318 C-2.4611768 19.73696185 -4.67075791 19.60972418 -8.30607605 17.34231853 C-10.87999811 14.56671832 -11.14298133 12.87643878 -11.38152313 9.21652603 C-11.17225652 6.2090659 -10.18122154 4.52196447 -8.24480438 2.25168228 C-5.40425776 0.53460589 -3.30066743 0.00147134 0 0 Z " fill="#FF16C5" transform="translate(109.24480438232422,307.74831771850586)"/>
<path d="M0 0 C0.84648808 -0.00521549 1.69297616 -0.01043099 2.56511539 -0.01580453 C3.49525788 -0.01134309 4.42540036 -0.00688164 5.38372898 -0.002285 C6.37168966 -0.00540498 7.35965035 -0.00852497 8.37754923 -0.01173949 C11.7032825 -0.01974606 15.02883466 -0.01338544 18.35456944 -0.00710678 C20.7327291 -0.00981548 23.11088792 -0.01337572 25.48904514 -0.0177269 C31.28728544 -0.02591774 37.08546774 -0.02469408 42.88370984 -0.01890162 C47.59566068 -0.01438887 52.307597 -0.01377054 57.01954937 -0.01594925 C58.02466346 -0.01640895 58.02466346 -0.01640895 59.05008288 -0.01687793 C60.41124936 -0.01751737 61.77241583 -0.0181658 63.1335823 -0.01882312 C75.90492254 -0.02452964 88.67623409 -0.01796371 101.44756962 -0.00722238 C112.40909695 0.00171138 123.37058193 0.00016316 134.3321085 -0.00905991 C147.05551541 -0.01976038 159.77889716 -0.02397813 172.50230795 -0.01783538 C173.8588343 -0.01719827 175.21536066 -0.01656953 176.57188702 -0.01594925 C177.57308733 -0.01548642 177.57308733 -0.01548642 178.5945139 -0.01501425 C183.30101151 -0.01328648 188.00749317 -0.0162042 192.7139883 -0.02090836 C199.04799722 -0.02667454 205.38192594 -0.0226982 211.71592617 -0.01111984 C214.0443925 -0.00846926 216.37286555 -0.00924511 218.70132923 -0.01364517 C221.87249128 -0.01908634 225.04339413 -0.0122837 228.21453953 -0.002285 C229.14245129 -0.00674645 230.07036305 -0.01120789 231.02639335 -0.01580453 C232.30003709 -0.00798129 232.30003709 -0.00798129 233.59941101 0 C234.33140447 0.0003247 235.06339793 0.00064941 235.81757301 0.00098395 C238.24479935 0.29853202 239.79637278 0.94895997 241.86262608 2.25168228 C244.54731038 6.27870873 244.42698027 9.52307818 243.86262608 14.25168228 C242.13573563 17.54099742 241.42054597 18.06570898 237.86262608 19.25168228 C236.48680349 19.34404748 235.10696089 19.38253084 233.72804546 19.38590336 C232.88217408 19.3903612 232.0363027 19.39481905 231.16479886 19.39941198 C229.77060831 19.39913543 229.77060831 19.39913543 228.3482523 19.3988533 C227.36099718 19.40252999 226.37374206 19.40620668 225.35657012 19.40999478 C222.0332255 19.42104841 218.70991213 19.42487828 215.38655186 19.42868423 C213.01001479 19.43494749 210.63347871 19.44159416 208.2569437 19.44859695 C201.1153628 19.46783392 193.97378132 19.47842541 186.83218175 19.48732474 C183.46966733 19.49170809 180.10715448 19.49707469 176.7446413 19.50231361 C165.56864658 19.51932324 154.39265283 19.53381854 143.21664715 19.54106236 C140.31690183 19.54297226 137.41715652 19.54489259 134.51741123 19.5468483 C133.79669051 19.54733204 133.0759698 19.54781578 132.33340906 19.54831418 C120.65191532 19.5566188 108.97052385 19.58196416 97.28907479 19.61442897 C85.29839202 19.64748189 73.30776127 19.66550941 61.31703269 19.6687066 C54.5836219 19.67087309 47.85036033 19.67964212 41.1169939 19.70516777 C34.78539462 19.72837412 28.45406438 19.73271163 22.12243366 19.72240639 C19.79598949 19.72190915 17.46953241 19.72828465 15.1431284 19.74196243 C11.97208187 19.75956622 8.80201307 19.75263161 5.63096714 19.73942947 C4.70596822 19.75039872 3.7809693 19.76136797 2.82794011 19.77266961 C-1.36787824 19.73036622 -3.56303771 19.60976843 -7.19711399 17.34400082 C-9.77226739 14.56703207 -10.03260909 12.87692446 -10.27799892 9.21652603 C-10.0656283 6.24923648 -9.00546335 4.52007659 -7.13737392 2.25168228 C-4.06563351 0.20385534 -3.4590953 0.00153476 0 0 Z " fill="#FB02FD" transform="translate(108.13737392425537,245.74831771850586)"/>
<path d="M0 0 C0.99713107 -0.00865438 1.99426214 -0.01730876 3.02160931 -0.02622539 C6.36693428 -0.04783753 9.71060057 -0.02650872 13.0559082 -0.00532532 C15.45245154 -0.01181747 17.84898909 -0.02087773 20.24551392 -0.03231812 C26.08140953 -0.05302801 31.91677383 -0.04566823 37.75265908 -0.02481725 C42.49557229 -0.00853224 47.23835478 -0.00433389 51.98129272 -0.00878334 C52.6563598 -0.00941402 53.33142688 -0.01004469 54.02695054 -0.01069448 C55.39834225 -0.01204054 56.76973392 -0.01342011 58.14112556 -0.01483283 C71.00034956 -0.0267695 83.859311 -0.00270404 96.71847522 0.03418525 C107.75194434 0.06507828 118.78511116 0.06744934 129.81860352 0.04838562 C142.63180854 0.02627239 155.44484411 0.02013027 168.25805759 0.04070824 C169.62440043 0.04287118 170.9907433 0.04502028 172.35708618 0.04715538 C173.36548279 0.04875493 173.36548279 0.04875493 174.39425105 0.05038679 C179.13138542 0.05685591 183.86843257 0.05209084 188.6055603 0.04313087 C194.98162948 0.03259491 201.35717898 0.04666393 207.73316574 0.07987404 C210.07571372 0.08809561 212.4183092 0.08778054 214.76085281 0.07839584 C217.95394703 0.0670069 221.14541466 0.08628943 224.33837891 0.11352539 C225.26979548 0.1030539 226.20121206 0.09258241 227.16085339 0.08179361 C231.68501373 0.15389669 233.56903464 0.28768924 237.24430847 3.1505003 C239.79654463 6.60408482 239.83351615 8.51773616 239.59887695 12.66532898 C238.97190986 15.71466895 237.70133716 17.01884288 235.16918945 18.75517273 C232.44630232 19.66280177 230.86676038 19.88248772 228.06863689 19.88939381 C227.230349 19.89385165 226.39206111 19.89830949 225.52837056 19.90290242 C224.14687604 19.90262588 224.14687604 19.90262588 222.73747253 19.90234375 C221.75909009 19.90602044 220.78070764 19.90969713 219.77267724 19.91348523 C216.47930562 19.92453852 213.18596553 19.92836868 209.89257812 19.93217468 C207.53736775 19.938438 205.18215837 19.94508468 202.82695007 19.9520874 C195.7491379 19.97132483 188.67132928 19.98191635 181.59349748 19.99081519 C178.26049981 19.99519883 174.92750364 20.00056539 171.59450722 20.00580406 C160.51545002 20.02281445 149.43639381 20.03730921 138.35732555 20.0445528 C135.48268317 20.04646269 132.60804079 20.04838303 129.73339844 20.05033875 C129.01892126 20.05082249 128.30444408 20.05130623 127.56831608 20.05180462 C115.99096187 20.06010722 104.4137109 20.0854488 92.83640178 20.11791942 C80.95080532 20.15098305 69.06526135 20.16900087 57.17961866 20.17219704 C50.50598673 20.17436264 43.83248525 20.18356104 37.15889549 20.20865822 C30.8822844 20.23188118 24.6059447 20.23619532 18.32930183 20.22589684 C16.02424087 20.22539999 13.7191668 20.23176402 11.41414642 20.24545288 C8.26972221 20.2630836 5.12628134 20.2561086 1.9818573 20.24291992 C1.06755312 20.25388917 0.15324893 20.26485841 -0.78876144 20.27616006 C-6.41665424 20.21908441 -9.52074956 19.45922618 -13.83081055 15.75517273 C-14.8112793 13.60673523 -14.8112793 13.60673523 -15.01831055 11.38017273 C-15.11499023 10.65056335 -15.21166992 9.92095398 -15.3112793 9.16923523 C-13.58136628 0.47747715 -7.53157123 -0.11374338 0 0 Z " fill="#FF4947" transform="translate(112.830810546875,431.2448272705078)"/>
<path d="M0 0 C1.26134346 -0.00874829 1.26134346 -0.00874829 2.5481686 -0.01767331 C3.46693423 -0.01389399 4.38569985 -0.01011467 5.33230686 -0.00622082 C6.3122493 -0.01004636 7.29219174 -0.01387191 8.3018294 -0.01781338 C11.59447779 -0.02815483 14.88695217 -0.02414903 18.17961216 -0.02018261 C20.53659318 -0.02452843 22.89357278 -0.02971115 25.25055027 -0.03567028 C31.6595515 -0.04908514 38.06849386 -0.0496362 44.4775064 -0.04710698 C48.47904152 -0.04582482 52.48057095 -0.04844271 56.4821043 -0.05209446 C57.14620542 -0.05268965 57.81030655 -0.05328484 58.49453195 -0.05389806 C59.84361716 -0.0551098 61.19270237 -0.05632394 62.54178757 -0.05754044 C75.1958441 -0.06841891 87.84987398 -0.06625201 100.50393201 -0.06015559 C112.08188235 -0.05498593 123.65974857 -0.0662426 135.23768228 -0.08525381 C147.12444147 -0.10462258 159.01116085 -0.11288992 170.89793593 -0.10913056 C177.57204677 -0.10721708 184.24609651 -0.10998419 190.92019558 -0.1238451 C197.19515254 -0.13638892 203.46994071 -0.13451197 209.74489498 -0.12143421 C212.05036824 -0.11906139 214.35585326 -0.1218282 216.66131306 -0.13005733 C219.80371389 -0.14046668 222.94554225 -0.13247067 226.0879221 -0.11974621 C227.004457 -0.12712049 227.92099191 -0.13449478 228.8653006 -0.14209253 C234.91299982 -0.09042349 238.38208954 0.86295884 242.7736063 5.25447559 C243.14470005 7.24275684 243.14470005 7.24275684 243.2111063 9.56697559 C243.25106724 10.32623341 243.29102818 11.08549122 243.33220005 11.86775684 C242.45938814 15.59704409 240.78375015 16.91854237 237.7736063 19.25447559 C234.49613076 19.98994947 231.28377458 19.92517366 227.93606663 19.88266468 C226.93822999 19.88975907 225.94039335 19.89685346 224.91231924 19.90416282 C221.56482853 19.92178135 218.21849295 19.90361757 214.87101841 19.88557911 C212.47285527 19.89071639 210.07469589 19.89799621 207.67654514 19.90726185 C201.837028 19.92388067 195.99788129 19.91712609 190.15837496 19.89917362 C185.41308077 19.88514818 180.66787743 19.88125468 175.92256451 19.8846159 C174.9095308 19.88533206 174.9095308 19.88533206 173.87603178 19.88606269 C172.50407435 19.88708902 171.13211694 19.88814438 169.76015956 19.88922846 C157.62940231 19.89779554 145.49880665 19.88111963 133.36808872 19.85139942 C121.59490771 19.82255554 109.82195944 19.81548143 98.04875278 19.83089161 C85.2293492 19.84764818 72.41005612 19.85169407 59.59064966 19.83418125 C58.2240439 19.83233685 56.85743812 19.83050212 55.49083233 19.82867718 C54.81842721 19.82776509 54.14602209 19.826853 53.45324106 19.82591327 C48.71264357 19.82030496 43.97209997 19.82361772 39.23150539 19.83022213 C32.85307367 19.83875552 26.47490233 19.82581398 20.09652233 19.79837322 C17.75193754 19.79147078 15.40732143 19.79141119 13.06273746 19.79858875 C9.8695003 19.80723986 6.67731155 19.79140028 3.48416233 19.76913929 C2.54983291 19.77738006 1.61550349 19.78562082 0.65286106 19.79411131 C-5.61087179 19.71315974 -5.61087179 19.71315974 -8.78862572 17.34511185 C-11.03502697 14.07865443 -11.42898844 11.17390455 -11.2263937 7.25447559 C-10.00239461 4.29110938 -9.12216777 2.79553876 -6.37726206 1.13756782 C-4.06771724 0.18932705 -2.485 0.00297164 0 0 Z " fill="#D71AF1" transform="translate(109.226393699646,183.7455244064331)"/>
<path d="M0 0 C1.82093973 -0.00282769 1.82093973 -0.00282769 3.67866611 -0.00571251 C4.35642568 -0.01351246 5.03418524 -0.02131242 5.73248297 -0.02934873 C8.002985 -0.0492888 10.27181448 -0.03349854 12.54232883 -0.01776695 C14.17026339 -0.02454233 15.79819029 -0.03344502 17.42610264 -0.04431725 C21.8477389 -0.06712877 26.26879242 -0.05826633 30.69043899 -0.04242182 C35.31658652 -0.02977018 39.94268388 -0.04150108 44.56883335 -0.04935265 C52.33906106 -0.05845228 60.10905125 -0.04645406 67.8792429 -0.02264977 C76.86236144 0.00455261 85.84491243 -0.00424482 94.82801718 -0.03178179 C102.53941421 -0.05447438 110.2506404 -0.05767194 117.96206003 -0.04458845 C122.56826107 -0.0367935 127.1741954 -0.03575327 131.7803793 -0.05227089 C136.11195199 -0.0667183 140.4427935 -0.05668946 144.77428722 -0.02779961 C146.36377212 -0.02118975 147.95331858 -0.02308484 149.54277897 -0.03411293 C151.71366022 -0.04778594 153.88220148 -0.03063688 156.05293369 -0.00571251 C157.26727054 -0.00382738 158.48160738 -0.00194225 159.73274231 0 C163.832723 0.80703624 165.32548757 2.43664464 167.92929173 5.6292057 C168.59335423 7.6917057 168.59335423 7.6917057 168.55429173 9.6292057 C168.56718235 10.2685807 168.58007298 10.9079557 168.59335423 11.5667057 C167.52871488 14.87335024 165.56663132 16.42787455 162.92929173 18.6292057 C159.73274231 19.25841141 159.73274231 19.25841141 156.05293369 19.26412392 C155.03395436 19.27582385 155.03395436 19.27582385 153.99438959 19.28776014 C151.72465666 19.30765851 149.45660458 19.29192644 147.18686008 19.27617836 C145.55715552 19.28295547 143.92745863 19.29185912 142.29777622 19.30272865 C137.876266 19.32551601 133.45533933 19.31668865 129.03381896 19.30083323 C124.40720946 19.2881734 119.78064989 19.29991436 115.15403843 19.30776405 C107.38559084 19.31685947 99.61738096 19.3048746 91.84896946 19.28106117 C82.86524227 19.25384047 73.88208226 19.26267123 64.89836878 19.2901932 C57.18611796 19.31287495 49.47403798 19.31608924 41.76176459 19.30299985 C37.1550514 19.2952014 32.54860493 19.29417468 27.94190884 19.3106823 C23.61196713 19.32511464 19.28275767 19.31512857 14.95289516 19.28621101 C13.36298941 19.27959391 11.77302212 19.28150861 10.18314075 19.29252434 C8.0141479 19.30616827 5.84750848 19.2890839 3.67866611 19.26412392 C2.4647063 19.26223879 1.25074648 19.26035366 0 19.25841141 C-3.07070827 18.6292057 -3.07070827 18.6292057 -5.45934105 16.21842957 C-7.02082116 13.70936677 -7.61743701 12.52638749 -7.57070827 9.6292057 C-7.58102077 8.9898307 -7.59133327 8.3504557 -7.60195827 7.6917057 C-6.4923702 3.38389319 -4.36466998 0.89434586 0 0 Z " fill="#B332E5" transform="translate(145.0707082748413,122.37079429626465)"/>
</svg>
