<?xml version="1.0" encoding="UTF-8"?>
<svg version="1.1" xmlns="http://www.w3.org/2000/svg" width="225" height="225">
<path d="M0 0 C74.25 0 148.5 0 225 0 C225 74.25 225 148.5 225 225 C150.75 225 76.5 225 0 225 C0 150.75 0 76.5 0 0 Z " fill="#FFFCFC" transform="translate(0,0)"/>
<path d="M0 0 C74.25 0 148.5 0 225 0 C225 74.25 225 148.5 225 225 C150.75 225 76.5 225 0 225 C0 150.75 0 76.5 0 0 Z M37.75 9 C36.98171875 9.66 36.2134375 10.32 35.421875 11 C27.30783861 21.0509354 26.12861964 30.60862742 26.25537109 43.00854492 C26.25050505 44.69028114 26.24305654 46.37201155 26.23324585 48.0537262 C26.21456334 52.58684736 26.23315973 57.11909462 26.25991011 61.65214705 C26.28267805 66.41249189 26.27431371 71.17279806 26.27041626 75.93318176 C26.26865517 83.92133731 26.29071415 91.90915183 26.32763672 99.8972168 C26.3700085 109.11667261 26.37697975 118.33563006 26.3645128 127.55516356 C26.35310409 136.44952955 26.36443913 145.34372108 26.38685989 154.2380619 C26.39611918 158.01257891 26.3979139 161.78698866 26.3936882 165.5615139 C26.38990682 170.00804982 26.40624826 174.45408208 26.43780899 178.90050316 C26.44625572 180.5270072 26.4480221 182.15356253 26.44242859 183.78007889 C26.41787313 192.20092424 26.46215141 199.63118564 31 207 C31.48082031 207.79792969 31.96164063 208.59585938 32.45703125 209.41796875 C37.89219077 216.51343637 43.14258179 221.62886828 52 224 C55.93277501 224.43714278 59.83913586 224.45088631 63.79345703 224.45166016 C64.95231918 224.46334229 66.11118134 224.47502441 67.30516052 224.48706055 C71.12279621 224.52055536 74.94004294 224.53137536 78.7578125 224.5390625 C80.75064617 224.54816753 82.74347988 224.55727706 84.73631084 224.56695783 C91.00131085 224.59650112 97.26618658 224.60834169 103.53125 224.61083984 C109.95946305 224.61386809 116.38671001 224.65424567 122.81464303 224.71198809 C128.36151058 224.76003163 133.90806224 224.78057219 139.45513618 224.78063047 C142.75572877 224.78116438 146.05517109 224.79572892 149.35559464 224.83180618 C170.98943408 225.25307399 170.98943408 225.25307399 189.31814575 214.9112854 C197.37087669 206.67167702 198.59512578 198.59761224 198.56518555 187.49072266 C198.57553331 186.13631394 198.58752624 184.78191695 198.60102844 183.42753601 C198.63193666 179.76827081 198.63735603 176.10940039 198.63609672 172.45002031 C198.63693044 169.38611498 198.64919637 166.32229388 198.66104633 163.25841463 C198.68837069 156.02508667 198.69376304 148.79196241 198.6862793 141.55859375 C198.67904009 134.11695364 198.71245433 126.67626127 198.76533669 119.23482668 C198.8092173 112.82686637 198.82582465 106.41921118 198.8213008 100.01110303 C198.81898687 96.19210189 198.82713284 92.37386713 198.86237144 88.55501175 C198.89450082 84.96100496 198.89238612 81.36856023 198.86492729 77.77453041 C198.85840311 75.84177669 198.88621008 73.90900036 198.91537476 71.97645569 C198.80241102 63.38312476 196.6755408 58.42813255 191 52 C190.29672184 51.19221572 190.29672184 51.19221572 189.57923603 50.36811256 C188.35293293 49.0334799 187.05644098 47.7643685 185.7578125 46.5 C184.83742187 45.59378906 183.91703125 44.68757813 182.96875 43.75390625 C182.0303125 42.84511719 181.091875 41.93632813 180.125 41 C178.22818909 39.14943732 176.33643237 37.29389591 174.4453125 35.4375 C173.61531738 34.63183594 172.78532227 33.82617188 171.93017578 32.99609375 C170 31 170 31 169 29 C168.34 29 167.68 29 167 29 C167 28.34 167 27.68 167 27 C165.65062663 25.6358772 165.65062663 25.6358772 163.8125 24.1875 C161.0471041 21.85771514 158.43424563 19.46005664 155.92578125 16.859375 C155.38139404 16.29710205 154.83700684 15.7348291 154.27612305 15.15551758 C153.20772118 14.04382987 152.14737735 12.92431701 151.09692383 11.7956543 C144.10879367 4.56440161 137.5600343 0.53577548 127.40429688 0.25537109 C124.00781653 0.2071233 120.61520708 0.23500689 117.21875 0.2734375 C115.39611818 0.27447686 113.57348411 0.27343312 111.75085449 0.27041626 C107.9447245 0.27059492 104.13944866 0.29128951 100.33349609 0.32763672 C95.47822042 0.37301027 90.62419008 0.37409146 85.76876068 0.36060143 C82.00922768 0.35388781 78.24997366 0.36724537 74.49049377 0.38685989 C72.70131392 0.39450572 70.91210288 0.39688471 69.12290955 0.3936882 C57.32183124 0.39016223 47.01613255 0.67939118 37.75 9 Z " fill="#FFFAFA" transform="translate(0,0)"/>
<path d="M0 0 C1.82166735 -0.01220092 3.6433328 -0.02468755 5.46499634 -0.03744507 C9.2726083 -0.05984183 13.08002123 -0.06946689 16.88769531 -0.07177734 C21.74212525 -0.07706041 26.59487925 -0.12842528 31.44885826 -0.19129372 C35.20838805 -0.23235597 38.96751915 -0.24142098 42.72725296 -0.24189377 C44.51569351 -0.24724292 46.30414084 -0.26395307 48.09235764 -0.29274368 C59.02667949 -0.45415069 66.703055 0.0372119 75.3515625 7.5390625 C76.77190796 8.74248291 76.77190796 8.74248291 78.22094727 9.97021484 C78.90471436 10.68129395 79.58848145 11.39237305 80.29296875 12.125 C81.44442383 13.30255859 81.44442383 13.30255859 82.61914062 14.50390625 C83.75512695 15.69693359 83.75512695 15.69693359 84.9140625 16.9140625 C86.47587082 18.52797345 88.03957483 20.14005279 89.60546875 21.75 C90.27908447 22.45431152 90.9527002 23.15862305 91.64672852 23.88427734 C93.26480747 25.62154396 93.26480747 25.62154396 95.3515625 26.5390625 C95.3515625 27.1990625 95.3515625 27.8590625 95.3515625 28.5390625 C96.0115625 28.5390625 96.6715625 28.5390625 97.3515625 28.5390625 C98.77490234 29.99023438 98.77490234 29.99023438 100.4375 32.0078125 C103.03625203 35.06548449 105.70725223 37.95364338 108.578125 40.7578125 C109.3 41.46292969 110.021875 42.16804688 110.765625 42.89453125 C112.24361383 44.32812819 113.72541551 45.75780429 115.2109375 47.18359375 C116.28988281 48.24126953 116.28988281 48.24126953 117.390625 49.3203125 C118.03209473 49.93970703 118.67356445 50.55910156 119.33447266 51.19726562 C126.04942962 58.99318274 127.08142264 64.77119124 126.99853516 75.06420898 C127.0053209 76.42023895 127.0142294 77.77625969 127.02508545 79.13226318 C127.04777469 82.7957323 127.03908565 86.45849311 127.02319002 90.12197375 C127.01047411 93.96813955 127.0222871 97.8142473 127.03012085 101.66041565 C127.03920205 108.11885389 127.0272711 114.5770057 127.00341797 121.03540039 C126.97622087 128.48486225 126.98501623 135.93363949 127.01255 143.38308471 C127.03529775 149.79613174 127.03841328 156.20897359 127.02535665 162.62204796 C127.0175916 166.44473957 127.01643834 170.26711026 127.03303909 174.08978081 C127.04756731 177.68605688 127.03731252 181.2814575 127.00856781 184.87763977 C126.99888725 186.81409019 127.01358666 188.75061534 127.02920532 190.68702698 C126.93781077 198.27375364 125.75819878 203.32724849 121.3515625 209.5390625 C120.8359375 210.33699219 120.3203125 211.13492188 119.7890625 211.95703125 C114.31869518 218.6909345 107.2309844 222.81200216 98.59913635 223.87943268 C90.385584 224.44482525 82.15748945 224.32885903 73.9296875 224.265625 C71.25695443 224.26458622 68.58428486 224.26552383 65.91156006 224.26864624 C60.33031896 224.27040304 54.74956796 224.24843633 49.16845703 224.21142578 C42.73741435 224.16902033 36.30708626 224.1620935 29.87593198 224.1745497 C23.654953 224.18597655 17.4342228 224.17460486 11.21327972 224.15220261 C8.58036045 224.14452641 5.94741982 224.14219061 3.31449127 224.1453743 C-0.36594591 224.14611876 -4.04531049 224.12079214 -7.72558594 224.08837891 C-8.80424423 224.09333374 -9.88290253 224.09828857 -10.99424744 224.10339355 C-20.66401329 223.96796091 -27.71501712 221.11473396 -34.79296875 214.53125 C-41.46807716 207.36429149 -44.88222994 200.24115722 -44.92932129 190.36849976 C-44.93526353 189.66946899 -44.94120578 188.97043823 -44.94732809 188.25022471 C-44.96460001 185.91985962 -44.96770978 183.58970124 -44.97070312 181.25927734 C-44.97996688 179.5832984 -44.99001719 177.90732366 -45.00079346 176.23135376 C-45.02697754 171.68559529 -45.03991921 167.13989583 -45.04881477 162.59407377 C-45.05468758 159.7499599 -45.06289939 156.90586196 -45.07182312 154.06175613 C-45.09915839 145.15142914 -45.11849791 136.24113877 -45.1262269 127.33077276 C-45.13518015 117.06712891 -45.17024426 106.80401885 -45.22822809 96.54053724 C-45.27155949 88.59293745 -45.2916407 80.64548729 -45.29430914 72.69777071 C-45.2963986 67.95768149 -45.30806984 63.21809452 -45.34394836 58.47813034 C-45.37707979 54.01436929 -45.38114057 49.5514834 -45.36367035 45.08764267 C-45.36213847 43.45752099 -45.3706976 41.82735061 -45.39058685 40.19734955 C-45.52841571 28.18883774 -43.63220924 18.49387996 -35.0234375 9.4765625 C-33.91366029 8.48017557 -32.79094137 7.49774768 -31.6484375 6.5390625 C-31.0296875 5.9615625 -30.4109375 5.3840625 -29.7734375 4.7890625 C-20.53157413 -0.64732772 -10.35142955 0.03078217 0 0 Z M-24.6484375 23.5390625 C-27.10398977 28.39987112 -28.02471958 31.95178129 -28.03611755 37.47042847 C-28.04150309 38.13159483 -28.04688863 38.79276119 -28.05243737 39.4739629 C-28.06664535 41.67017337 -28.05963142 43.86577496 -28.05249023 46.06201172 C-28.05819763 47.64448528 -28.06516332 49.22695473 -28.07328796 50.80941772 C-28.09119507 55.09465443 -28.09005546 59.37968609 -28.08434558 63.66494894 C-28.08124976 67.2483101 -28.08735064 70.8316321 -28.09338433 74.41498768 C-28.1074203 82.87223211 -28.10587637 91.32937551 -28.09448242 99.78662109 C-28.08300567 108.49755524 -28.09707149 117.20818134 -28.1238789 125.91907489 C-28.14606651 133.4106118 -28.15266628 140.90205224 -28.14680248 148.39361966 C-28.14343859 152.86239126 -28.14580997 157.33096549 -28.16305351 161.79970932 C-28.17856918 166.00400138 -28.17451623 170.20783879 -28.15574837 174.41211319 C-28.15207503 175.94994269 -28.15513417 177.48780621 -28.16563416 179.02560425 C-28.32476453 190.87606664 -28.32476453 190.87606664 -23.6484375 201.5390625 C-19.34771657 205.59476992 -15.10090213 207.65732744 -9.19671631 207.67950439 C-8.28556564 207.68521454 -7.37441498 207.69092468 -6.43565369 207.69680786 C-5.43820633 207.69792572 -4.44075897 207.69904358 -3.41308594 207.70019531 C-2.36075272 207.70516022 -1.30841949 207.71012512 -0.22419739 207.71524048 C3.26460418 207.72987071 6.75336027 207.73666593 10.2421875 207.7421875 C12.66493735 207.7479387 15.08768719 207.75369644 17.51043701 207.75946045 C22.59468803 207.7699732 27.67892323 207.77581393 32.76318359 207.77929688 C39.27440528 207.78477898 45.78541758 207.80880003 52.29657364 207.83726883 C57.30318815 207.8559043 62.30975235 207.86110133 67.31639862 207.86263275 C69.71654148 207.86565826 72.11668347 207.87368334 74.5167923 207.88681793 C77.87756712 207.90389526 81.23783205 207.90199366 84.59863281 207.89550781 C85.58798325 207.9047226 86.57733368 207.91393738 87.59666443 207.9234314 C94.67693973 207.88068437 99.48630656 206.88336281 105.1015625 202.2890625 C110.62138805 195.54260905 110.79453658 189.41121962 110.77148438 180.99169922 C110.77995392 179.84778717 110.78842346 178.70387512 110.79714966 177.52529907 C110.82048817 173.75633535 110.82154279 169.98778041 110.8203125 166.21875 C110.82741403 163.59514198 110.83511302 160.97153551 110.84338379 158.34793091 C110.85796265 152.85545538 110.85858188 147.36309344 110.85253906 141.87060547 C110.8458885 135.52705457 110.86881219 129.18408369 110.90585279 122.84065044 C110.94025462 116.72649088 110.94688678 110.61260548 110.94276428 104.49835587 C110.94445925 101.90117791 110.95413771 99.30399256 110.97190857 96.70687485 C110.99400201 93.0799906 110.9844446 89.45451546 110.96679688 85.82763672 C110.98006012 84.75322327 110.99332336 83.67880981 111.00698853 82.57183838 C110.96142285 76.52653407 110.96142285 76.52653407 107.93811035 71.39602661 C103.45958677 68.18075357 99.91210505 68.38950213 94.546875 68.36328125 C92.74868619 68.34008435 90.95050907 68.31596707 89.15234375 68.29101562 C86.31258313 68.25588102 83.47325244 68.22654687 80.63330078 68.21313477 C77.89562755 68.19766903 75.15921549 68.15747042 72.421875 68.11328125 C71.57384308 68.11518967 70.72581116 68.11709808 69.8520813 68.11906433 C66.27292952 68.04473414 63.95541235 67.88338984 60.81176758 66.09082031 C58.57450403 62.18112651 58.8454256 58.56442837 58.91796875 54.13671875 C58.90836329 52.25846272 58.89859257 50.38020752 58.88867188 48.50195312 C58.89727348 45.54816228 58.91411483 42.59458862 58.9362793 39.64086914 C58.95080568 36.78488609 58.93554284 33.93015734 58.91796875 31.07421875 C58.93444962 30.19387466 58.95093048 29.31353058 58.96791077 28.4065094 C58.95781227 27.16513466 58.95781227 27.16513466 58.94750977 25.89868164 C58.95291275 25.17572403 58.95831573 24.45276642 58.96388245 23.707901 C57.98778106 20.25054789 56.13465261 18.73131837 53.3515625 16.5390625 C50.19978166 15.80156803 50.19978166 15.80156803 46.72875977 15.92382812 C45.76188736 15.91550461 45.76188736 15.91550461 44.77548218 15.90701294 C42.6555423 15.89525135 40.53775745 15.91945348 38.41796875 15.9453125 C36.93733314 15.94702488 35.4566945 15.94695662 33.97605896 15.94519043 C30.87656548 15.94684174 27.77779694 15.9655012 24.6784668 15.99707031 C20.71619321 16.03671338 16.75486989 16.04111854 12.79243565 16.03360748 C9.73564533 16.03052952 6.67906647 16.04268805 3.6223278 16.05973816 C2.16197983 16.06674347 0.70160789 16.0698957 -0.75875664 16.06904602 C-2.80502007 16.07085506 -4.85017069 16.09232898 -6.89624023 16.11914062 C-8.6390049 16.13176941 -8.6390049 16.13176941 -10.41697693 16.14465332 C-16.04486724 16.83155373 -20.6206054 19.62009072 -24.6484375 23.5390625 Z " fill="#FF0202" transform="translate(71.6484375,0.4609375)"/>
<path d="M0 0 C0.91756577 -0.00073013 1.83513153 -0.00146027 2.78050232 -0.00221252 C5.80569089 0.00126387 8.82932931 0.0401279 11.85424805 0.0793457 C13.95459655 0.08867363 16.05495594 0.09578984 18.15531921 0.1007843 C23.67772571 0.11985553 29.19947245 0.16895808 34.72161865 0.2243042 C40.35883662 0.27549358 45.99616142 0.29829772 51.63354492 0.32348633 C62.69047508 0.37707615 73.74691603 0.46239101 84.8034668 0.56762695 C84.8034668 1.22762695 84.8034668 1.88762695 84.8034668 2.56762695 C86.1234668 3.22762695 87.4434668 3.88762695 88.8034668 4.56762695 C89.23306999 8.8636589 89.12979149 11.03606208 86.84228516 14.76228333 C84.61399179 17.25851722 83.06610246 18.00893529 79.74316406 18.32279968 C78.11905749 18.35527928 76.49408493 18.35482373 74.86987305 18.328125 C73.97984589 18.33703262 73.08981873 18.34594025 72.17282104 18.3551178 C69.2364529 18.37639468 66.30228086 18.35409739 63.3659668 18.3293457 C61.3224261 18.33084822 59.278886 18.33427847 57.23535156 18.33955383 C52.95470482 18.34388516 48.67481144 18.32704787 44.39428711 18.29492188 C38.9094002 18.25514093 33.42592597 18.26444049 27.94099426 18.28915691 C23.72184688 18.30334441 19.50302909 18.2932497 15.28390503 18.2756443 C13.26171659 18.26979718 11.23949439 18.27109288 9.21731567 18.27966881 C6.38980248 18.28766668 3.56435416 18.26340378 0.73706055 18.23046875 C-0.51459396 18.24329391 -0.51459396 18.24329391 -1.79153442 18.25637817 C-6.15174236 18.16878357 -7.70512435 17.97424515 -11.19238281 15.08869934 C-11.85375244 14.25674545 -12.51512207 13.42479156 -13.1965332 12.56762695 C-13.5265332 12.23762695 -13.8565332 11.90762695 -14.1965332 11.56762695 C-14.72232215 7.71184131 -14.57173743 6.08127013 -12.24787903 2.89997864 C-8.07915768 -0.28645935 -5.10787163 -0.10664551 0 0 Z " fill="#FF0505" transform="translate(75.196533203125,155.432373046875)"/>
<path d="M0 0 C0.8996347 -0.00700928 1.79926941 -0.01401855 2.72616577 -0.02124023 C5.70000071 -0.03884504 8.67288389 -0.02718759 11.64672852 -0.01367188 C13.71411827 -0.01636631 15.78150679 -0.02024832 17.84889221 -0.02526855 C22.18242454 -0.03116718 26.5156271 -0.02258966 30.84912109 -0.00390625 C36.40222942 0.01886906 41.95456386 0.00577125 47.5076437 -0.01819611 C51.77734701 -0.0326563 56.04686715 -0.02804678 60.316576 -0.01768494 C62.36389317 -0.01501753 64.41122699 -0.01828788 66.4585247 -0.02760315 C69.32175552 -0.03777061 72.18373714 -0.02226405 75.046875 0 C76.31491219 -0.01214539 76.31491219 -0.01214539 77.60856628 -0.02453613 C81.57663438 0.03258039 83.64563883 0.25339773 87.12586975 2.33117676 C89.08813477 4.51757812 89.08813477 4.51757812 89.52563477 8.01757812 C89.13469298 11.1451124 88.87688896 12.97566428 87.08813477 15.51757812 C83.16759823 18.13126915 79.82485374 17.82042657 75.27392578 17.82397461 C74.37283081 17.83229813 73.47173584 17.84062164 72.54333496 17.84919739 C69.5595266 17.87332697 66.57593664 17.88207255 63.59204102 17.88867188 C61.52082756 17.89763501 59.44961479 17.90675679 57.37840271 17.91603088 C53.03480453 17.93253082 48.69128354 17.940223 44.34765625 17.94311523 C38.77756371 17.94850414 33.20819463 17.98620113 27.63830662 18.0318594 C23.36009561 18.06157595 19.08206007 18.0688376 14.80375481 18.06984138 C12.74999613 18.0740534 10.69623738 18.08652682 8.64258003 18.10735893 C5.77175508 18.13416494 2.90262376 18.12948047 0.03173828 18.11694336 C-1.24404839 18.13919479 -1.24404839 18.13919479 -2.54560852 18.16189575 C-8.31096687 18.09006678 -8.31096687 18.09006678 -11.43763733 15.11122131 C-13.71300725 11.10811048 -13.49151132 9.08229103 -12.91186523 4.51757812 C-9.55983175 -0.51583233 -5.51660142 -0.05271233 0 0 Z " fill="#FF0606" transform="translate(74.911865234375,86.482421875)"/>
<path d="M0 0 C0.72421646 -0.00861557 1.44843292 -0.01723114 2.19459534 -0.02610779 C4.57866576 -0.04873433 6.96155763 -0.04203624 9.34570312 -0.03295898 C11.00810087 -0.03819578 12.67049564 -0.04447247 14.33288574 -0.05174255 C17.81304937 -0.06214035 21.29280395 -0.05759401 24.77294922 -0.04296875 C29.22877695 -0.02577421 33.68331598 -0.04928653 38.13899994 -0.08445835 C41.57062291 -0.10643652 45.00193763 -0.10499009 48.43360901 -0.09669304 C50.07623204 -0.09587388 51.71887778 -0.1027306 53.36143494 -0.11746407 C55.65972757 -0.13492096 57.955706 -0.12036261 60.25390625 -0.09765625 C62.21318054 -0.09621361 62.21318054 -0.09621361 64.21203613 -0.09474182 C68.50344123 0.69468113 69.98269283 2.12442885 72.62695312 5.53344727 C73.25195312 9.03344727 73.25195312 9.03344727 72.62695312 12.53344727 C69.96940598 15.9694524 68.4876781 17.37548438 64.16734314 18.16836548 C62.82729404 18.1978604 61.4864682 18.20018208 60.14624023 18.18041992 C59.41066391 18.18918152 58.67508759 18.19794312 57.91722107 18.20697021 C55.49563914 18.22890483 53.075896 18.21443613 50.65429688 18.19750977 C48.96708324 18.2008793 47.27987197 18.20573306 45.59266663 18.21200562 C42.06113515 18.21936852 38.53023702 18.20868947 34.9987793 18.18530273 C30.47331656 18.15679268 25.94933496 18.17323562 21.42392635 18.20316505 C17.94170474 18.22123555 14.45983421 18.21548169 10.97760201 18.20252609 C9.30904528 18.19919249 7.64045659 18.20327761 5.97193718 18.21492386 C3.63985658 18.22763193 1.31017351 18.208262 -1.02172852 18.18041992 C-2.05435822 18.19560165 -2.05435822 18.19560165 -3.10784912 18.21109009 C-6.79576995 18.12955883 -8.13867916 17.76639134 -10.79710388 15.12411499 C-13.23533199 11.11595042 -13.03570714 9.17206914 -12.37304688 4.53344727 C-8.50893563 0.41149931 -5.52443844 0.02621659 0 0 Z " fill="#FF0707" transform="translate(74.373046875,120.466552734375)"/>
<path d="M0 0 C-0.33 0.99 -0.66 1.98 -1 3 C-4.3 3 -7.6 3 -11 3 C-11 2.67 -11 2.34 -11 2 C-9.5422647 1.664061 -8.08378894 1.33133376 -6.625 1 C-5.40683594 0.7215625 -5.40683594 0.7215625 -4.1640625 0.4375 C-2 0 -2 0 0 0 Z " fill="#FFDADA" transform="translate(178,222)"/>
</svg>
