<?xml version="1.0" encoding="UTF-8"?>
<svg version="1.1" xmlns="http://www.w3.org/2000/svg" width="512" height="512">
<path d="M0 0 C-1.27303767 4.42065827 -3.10084599 8.17452698 -5.32543945 12.16308594 C-17.76998108 34.54128478 -26.04304444 60.43332814 -26.203125 86.20703125 C-26.21013931 86.96583084 -26.21715363 87.72463043 -26.22438049 88.50642395 C-26.24178979 90.94184368 -26.24823277 93.37702033 -26.25 95.8125 C-26.25067474 96.64424744 -26.25134949 97.47599487 -26.25204468 98.33294678 C-26.23636732 110.47894506 -25.82814707 122.13904069 -23 134 C-22.83371094 134.7523291 -22.66742188 135.5046582 -22.49609375 136.27978516 C-12.4986532 181.11090051 15.21526612 221.96997939 53.91772461 246.91796875 C57.24241264 249.00770376 60.61039932 251.01767383 64 253 C64.60392578 253.35690918 65.20785156 253.71381836 65.83007812 254.08154297 C82.97560951 264.09878674 101.59361866 270.13707887 121 274 C122.16015625 274.23460937 123.3203125 274.46921875 124.515625 274.7109375 C130.25064417 275.68560824 135.5441184 276.02155232 141.35546875 275.87890625 C158.7505562 275.60676478 158.7505562 275.60676478 162.81005859 278.12109375 C165.9623874 281.47182087 167.33972127 285.79244432 169 290 C170.38514536 292.09201129 171.84510272 294.13639416 173.375 296.125 C174.12394531 297.10082031 174.87289063 298.07664062 175.64453125 299.08203125 C181.31876745 306.11130893 187.30973222 312.5467883 194.1875 318.3984375 C201.64360948 324.9868101 206.50992531 333.24339644 207.23828125 343.28515625 C207.4651331 354.83072144 205.6438911 363.88637263 198.04296875 372.9296875 C190.6021914 380.4700546 181.7995838 384.9644262 171.11495972 385.36076355 C169.39679759 385.36930135 167.67850086 385.36184959 165.96044922 385.34057617 C164.5391143 385.34123329 164.5391143 385.34123329 163.08906555 385.34190369 C159.99405446 385.33983348 156.89960256 385.3165866 153.8046875 385.29296875 C151.64421891 385.2873665 149.48374648 385.28309938 147.32327271 385.28010559 C141.664686 385.26870637 136.00633398 385.23928185 130.34783936 385.20599365 C124.56265436 385.17518624 118.77743106 385.16157752 112.9921875 385.14648438 C101.66135579 385.1144072 90.33069749 385.06327086 79 385 C79.00516632 385.67859573 79.01033264 386.35719147 79.01565552 387.05635071 C79.02168289 388.39804573 79.02168289 388.39804573 79.02783203 389.7668457 C79.03299835 390.65169144 79.03816467 391.53653717 79.04348755 392.44819641 C78.66556542 414.62426937 66.24414245 433.72849362 51.109375 448.89453125 C35.34306774 463.5677962 14.97169165 470.63416329 -6.3125 470.4375 C-7.49239502 470.42847656 -8.67229004 470.41945313 -9.88793945 470.41015625 C-34.08229709 469.93194782 -54.61785824 459.36170153 -71.36328125 442.04296875 C-83.63921764 428.32967427 -92.10973889 409.73649273 -92.02783203 391.27368164 C-92.02381378 390.09979385 -92.01979553 388.92590607 -92.01565552 387.71644592 C-92.00790604 386.37180519 -92.00790604 386.37180519 -92 385 C-93.20332474 385.00888245 -94.40664948 385.01776489 -95.6464386 385.0269165 C-107.01853914 385.10820598 -118.39058029 385.16806302 -129.76290607 385.20724869 C-135.60874407 385.2280721 -141.45434642 385.25629386 -147.30004883 385.30175781 C-152.94756048 385.34540263 -158.59484629 385.36917652 -164.24251366 385.37950897 C-166.39096821 385.38686695 -168.53941122 385.40123497 -170.68776894 385.42292023 C-185.3126346 385.56459378 -197.65554881 385.39700252 -209 375 C-217.12838465 366.98477152 -220.2174627 358.67516698 -220.3125 347.375 C-220.33233318 336.33232483 -217.51020862 328.25948697 -210 320 C-208.13399247 318.25292482 -206.20925802 316.6001565 -204.2578125 314.94921875 C-177.45190817 291.8070972 -160.57233261 257.48293762 -157.69100952 222.21824646 C-157.60649136 220.86769019 -157.52658025 219.51683967 -157.45068359 218.16577148 C-157.38763314 217.0616059 -157.38763314 217.0616059 -157.32330894 215.93513393 C-156.92893046 208.51704942 -156.83485056 201.10509995 -156.80076981 193.67787361 C-156.78864492 191.26454087 -156.76912638 188.85136197 -156.74765015 186.43809509 C-156.68709908 179.59037556 -156.63215417 172.74268592 -156.59863281 165.89477539 C-156.57740982 161.66691066 -156.54191817 157.43935383 -156.49787521 153.21166801 C-156.48395919 151.62728989 -156.47504976 150.04285765 -156.47182083 148.45842171 C-156.38082432 108.11918178 -140.49216266 71.65020207 -112.3125 42.875 C-82.20366655 13.10112267 -41.9052647 -1.01520157 0 0 Z " fill="#FFC106" transform="translate(220,42)"/>
<path d="M0 0 C26.2322632 21.26579914 43.95529823 46.10368378 52.9375 78.9375 C53.12812012 79.61039062 53.31874023 80.28328125 53.51513672 80.9765625 C58.73124823 100.30949056 58.44404768 126.72829523 52.9375 145.9375 C52.59090332 147.15687256 52.59090332 147.15687256 52.23730469 148.40087891 C45.30584693 172.05938282 34.18186003 192.29442644 16.9375 209.9375 C16.14859375 210.78828125 15.3596875 211.6390625 14.546875 212.515625 C-6.11765173 234.27496109 -34.64852189 246.73550313 -64.0625 250.9375 C-64.91199219 251.06769531 -65.76148438 251.19789063 -66.63671875 251.33203125 C-100.44864242 255.63745447 -137.79736524 246.38278324 -164.859375 225.5 C-165.92937938 224.64871133 -166.99706884 223.79450538 -168.0625 222.9375 C-168.61873047 222.49792969 -169.17496094 222.05835938 -169.74804688 221.60546875 C-197.96904899 199.1709035 -215.77479354 167.4914069 -221.0625 131.9375 C-221.19398438 131.09574219 -221.32546875 130.25398437 -221.4609375 129.38671875 C-225.82353152 95.25236821 -216.71035132 58.50821765 -196.0625 30.9375 C-195.41152344 30.06480469 -194.76054687 29.19210938 -194.08984375 28.29296875 C-183.90293858 15.28800383 -172.06686915 3.73754278 -158.0625 -5.0625 C-157.44826172 -5.45131348 -156.83402344 -5.84012695 -156.20117188 -6.24072266 C-109.51129048 -35.296195 -43.9933375 -33.96000121 0 0 Z M-122.5 55.625 C-125.00923855 60.94458572 -125.84770466 65.5356975 -124 71.1875 C-121.32679878 74.98172108 -118.26506941 77.83621529 -114.0625 79.9375 C-111.17095062 80.08260103 -108.29971575 80.17179127 -105.40625 80.21875 C-104.11914124 80.24636414 -104.11914124 80.24636414 -102.80603027 80.27453613 C-100.05825752 80.33337682 -97.31042253 80.38615938 -94.5625 80.4375 C-90.94778124 80.50503534 -87.33326627 80.57870275 -83.71875 80.65625 C-82.88226929 80.66982544 -82.04578857 80.68340088 -81.18395996 80.6973877 C-75.28810362 80.82469819 -75.28810362 80.82469819 -73.0625 81.9375 C-72.75008629 84.48691373 -72.54946579 86.94111513 -72.4375 89.5 C-72.37949219 90.56637695 -72.37949219 90.56637695 -72.3203125 91.65429688 C-72.22578217 93.41492425 -72.14304183 95.17617728 -72.0625 96.9375 C-73.23232422 96.91655273 -74.40214844 96.89560547 -75.60742188 96.87402344 C-79.9757854 96.80125144 -84.34409605 96.75556578 -88.71289062 96.71777344 C-90.59839916 96.69774233 -92.48384623 96.67050927 -94.36914062 96.63574219 C-97.08999862 96.58684728 -99.81003056 96.56444618 -102.53125 96.546875 C-103.36491089 96.52622986 -104.19857178 96.50558472 -105.05749512 96.48431396 C-110.84791258 96.4821278 -115.23637696 97.65658458 -120.0625 100.9375 C-124.12410202 105.41567658 -125.31888838 109.99783591 -125.0625 115.9375 C-123.33472852 121.22244806 -120.39103311 123.71412428 -116.0625 126.9375 C-113.77618506 128.08065747 -112.51902594 128.05862732 -109.97998047 128.05102539 C-109.13925995 128.05094986 -108.29853943 128.05087433 -107.43234253 128.05079651 C-106.52396637 128.04563522 -105.61559021 128.04047394 -104.6796875 128.03515625 C-103.28558151 128.03303383 -103.28558151 128.03303383 -101.86331177 128.03086853 C-98.88800876 128.02526053 -95.91278036 128.01270668 -92.9375 128 C-90.92317817 127.99498603 -88.90885516 127.99042295 -86.89453125 127.98632812 C-81.95049198 127.9752885 -77.00650865 127.95801849 -72.0625 127.9375 C-72.20274219 130.41710136 -72.3494185 132.89602402 -72.5 135.375 C-72.53931641 136.08205078 -72.57863281 136.78910156 -72.61914062 137.51757812 C-72.94921875 142.82421875 -72.94921875 142.82421875 -74.0625 143.9375 C-76.77886889 144.04838388 -79.47406339 144.09915325 -82.19140625 144.11328125 C-83.88347569 144.13650056 -85.57553299 144.16061871 -87.26757812 144.18554688 C-89.93798687 144.22051331 -92.6079558 144.24991375 -95.27856445 144.26342773 C-97.85422631 144.27901746 -100.42859185 144.31931876 -103.00390625 144.36328125 C-103.79068253 144.36137283 -104.5774588 144.35946442 -105.38807678 144.35749817 C-111.01128333 144.48000445 -115.36026667 145.79080226 -120.0625 148.9375 C-124.12410202 153.41567658 -125.31888838 157.99783591 -125.0625 163.9375 C-123.33472852 169.22244806 -120.39103311 171.71412428 -116.0625 174.9375 C-113.81374238 176.06187881 -112.55826844 176.08067648 -110.06274414 176.11450195 C-108.82488914 176.13375481 -108.82488914 176.13375481 -107.56202698 176.15339661 C-106.66628464 176.16078354 -105.7705423 176.16817047 -104.84765625 176.17578125 C-103.45938881 176.18788887 -103.45938881 176.18788887 -102.04307556 176.20024109 C-100.07683183 176.21409362 -98.11056394 176.22481053 -96.14428711 176.23266602 C-93.1679749 176.24975328 -90.19281039 176.29361281 -87.21679688 176.33789062 C-73.6060718 176.44996705 -62.52239398 175.52382041 -52.0625 165.9375 C-42.60284699 156.60953589 -40.12153436 145.96776162 -39.80371094 132.90039062 C-39.7907366 130.79821589 -39.78884402 128.69594944 -39.796875 126.59375 C-39.79496155 125.46279907 -39.7930481 124.33184814 -39.79107666 123.16662598 C-39.78972557 120.79353613 -39.79334609 118.42043861 -39.80175781 116.04736328 C-39.81247242 112.44676874 -39.80182529 108.84667305 -39.7890625 105.24609375 C-39.79038429 102.92447808 -39.79294707 100.60286272 -39.796875 98.28125 C-39.79282654 97.22151978 -39.78877808 96.16178955 -39.78460693 95.06994629 C-39.86370988 82.2532467 -41.25365466 70.42597131 -50.17578125 60.61328125 C-59.49429315 51.90634699 -69.48101722 48.63724551 -82.09375 48.6015625 C-82.92910278 48.5949057 -83.76445557 48.5882489 -84.62512207 48.58139038 C-86.37977924 48.57132899 -88.13447417 48.56657133 -89.88916016 48.56689453 C-92.55565812 48.56251125 -95.22051157 48.52609631 -97.88671875 48.48828125 C-99.60155691 48.48241345 -101.31640283 48.47844381 -103.03125 48.4765625 C-103.81794067 48.46219147 -104.60463135 48.44782043 -105.41516113 48.43301392 C-112.34858005 48.48956754 -117.78661039 50.42818582 -122.5 55.625 Z " fill="#F44335" transform="translate(456.0625,26.0625)"/>
<path d="M0 0 C56.43 0 112.86 0 171 0 C171 25.91657704 161.33583129 45.63041699 143.109375 63.89453125 C127.34306774 78.5677962 106.97169165 85.63416329 85.6875 85.4375 C84.50760498 85.42847656 83.32770996 85.41945313 82.11206055 85.41015625 C57.91770291 84.93194782 37.38214176 74.36170153 20.63671875 57.04296875 C6.20669134 40.92336623 0 21.35069615 0 0 Z " fill="#FFA000" transform="translate(128,427)"/>
</svg>
